%TF.GenerationSoftware,KiCad,Pcbnew,(6.0.0)*%
%TF.CreationDate,2022-03-02T14:41:02+07:00*%
%TF.ProjectId,balancingRobot_sabaiCode,62616c61-6e63-4696-9e67-526f626f745f,rev?*%
%TF.SameCoordinates,Original*%
%TF.FileFunction,Legend,Top*%
%TF.FilePolarity,Positive*%
%FSLAX46Y46*%
G04 Gerber Fmt 4.6, Leading zero omitted, Abs format (unit mm)*
G04 Created by KiCad (PCBNEW (6.0.0)) date 2022-03-02 14:41:02*
%MOMM*%
%LPD*%
G01*
G04 APERTURE LIST*
%ADD10C,0.150000*%
%ADD11C,0.300000*%
%ADD12C,0.120000*%
%ADD13C,0.127000*%
%ADD14C,0.200000*%
G04 APERTURE END LIST*
D10*
X191750000Y-89250000D02*
X188000000Y-89250000D01*
X188000000Y-82000000D02*
X191750000Y-82000000D01*
X193500000Y-82000000D02*
X201000000Y-82000000D01*
X191750000Y-82000000D02*
X191750000Y-91250000D01*
X188000000Y-91250000D02*
X191750000Y-91250000D01*
X193500000Y-84000000D02*
X201000000Y-84000000D01*
X188000000Y-84000000D02*
X191750000Y-84000000D01*
X188000000Y-91250000D02*
X188000000Y-82000000D01*
X193500000Y-91250000D02*
X193500000Y-82000000D01*
X193500000Y-86500000D02*
X201000000Y-86500000D01*
X193500000Y-89250000D02*
X201000000Y-89250000D01*
X188000000Y-86750000D02*
X191750000Y-86750000D01*
X201000000Y-91250000D02*
X193500000Y-91250000D01*
X201000000Y-82000000D02*
X201000000Y-91250000D01*
X140361904Y-133652380D02*
X140361904Y-132652380D01*
X140742857Y-132652380D01*
X140838095Y-132700000D01*
X140885714Y-132747619D01*
X140933333Y-132842857D01*
X140933333Y-132985714D01*
X140885714Y-133080952D01*
X140838095Y-133128571D01*
X140742857Y-133176190D01*
X140361904Y-133176190D01*
X141695238Y-133128571D02*
X141838095Y-133176190D01*
X141885714Y-133223809D01*
X141933333Y-133319047D01*
X141933333Y-133461904D01*
X141885714Y-133557142D01*
X141838095Y-133604761D01*
X141742857Y-133652380D01*
X141361904Y-133652380D01*
X141361904Y-132652380D01*
X141695238Y-132652380D01*
X141790476Y-132700000D01*
X141838095Y-132747619D01*
X141885714Y-132842857D01*
X141885714Y-132938095D01*
X141838095Y-133033333D01*
X141790476Y-133080952D01*
X141695238Y-133128571D01*
X141361904Y-133128571D01*
X142409523Y-133652380D02*
X142600000Y-133652380D01*
X142695238Y-133604761D01*
X142742857Y-133557142D01*
X142838095Y-133414285D01*
X142885714Y-133223809D01*
X142885714Y-132842857D01*
X142838095Y-132747619D01*
X142790476Y-132700000D01*
X142695238Y-132652380D01*
X142504761Y-132652380D01*
X142409523Y-132700000D01*
X142361904Y-132747619D01*
X142314285Y-132842857D01*
X142314285Y-133080952D01*
X142361904Y-133176190D01*
X142409523Y-133223809D01*
X142504761Y-133271428D01*
X142695238Y-133271428D01*
X142790476Y-133223809D01*
X142838095Y-133176190D01*
X142885714Y-133080952D01*
X183604761Y-88014285D02*
X183652380Y-87871428D01*
X183652380Y-87633333D01*
X183604761Y-87538095D01*
X183557142Y-87490476D01*
X183461904Y-87442857D01*
X183366666Y-87442857D01*
X183271428Y-87490476D01*
X183223809Y-87538095D01*
X183176190Y-87633333D01*
X183128571Y-87823809D01*
X183080952Y-87919047D01*
X183033333Y-87966666D01*
X182938095Y-88014285D01*
X182842857Y-88014285D01*
X182747619Y-87966666D01*
X182700000Y-87919047D01*
X182652380Y-87823809D01*
X182652380Y-87585714D01*
X182700000Y-87442857D01*
X183652380Y-87014285D02*
X182652380Y-87014285D01*
X182652380Y-86776190D01*
X182700000Y-86633333D01*
X182795238Y-86538095D01*
X182890476Y-86490476D01*
X183080952Y-86442857D01*
X183223809Y-86442857D01*
X183414285Y-86490476D01*
X183509523Y-86538095D01*
X183604761Y-86633333D01*
X183652380Y-86776190D01*
X183652380Y-87014285D01*
X183366666Y-86061904D02*
X183366666Y-85585714D01*
X183652380Y-86157142D02*
X182652380Y-85823809D01*
X183652380Y-85490476D01*
X202904761Y-75535714D02*
X202952380Y-75392857D01*
X202952380Y-75154761D01*
X202904761Y-75059523D01*
X202857142Y-75011904D01*
X202761904Y-74964285D01*
X202666666Y-74964285D01*
X202571428Y-75011904D01*
X202523809Y-75059523D01*
X202476190Y-75154761D01*
X202428571Y-75345238D01*
X202380952Y-75440476D01*
X202333333Y-75488095D01*
X202238095Y-75535714D01*
X202142857Y-75535714D01*
X202047619Y-75488095D01*
X202000000Y-75440476D01*
X201952380Y-75345238D01*
X201952380Y-75107142D01*
X202000000Y-74964285D01*
X201952380Y-74678571D02*
X201952380Y-74107142D01*
X202952380Y-74392857D02*
X201952380Y-74392857D01*
X202571428Y-73773809D02*
X202571428Y-73011904D01*
X202952380Y-72059523D02*
X202952380Y-72535714D01*
X201952380Y-72535714D01*
X202952380Y-71726190D02*
X202285714Y-71726190D01*
X201952380Y-71726190D02*
X202000000Y-71773809D01*
X202047619Y-71726190D01*
X202000000Y-71678571D01*
X201952380Y-71726190D01*
X202047619Y-71726190D01*
X202285714Y-71250000D02*
X202952380Y-71250000D01*
X202380952Y-71250000D02*
X202333333Y-71202380D01*
X202285714Y-71107142D01*
X202285714Y-70964285D01*
X202333333Y-70869047D01*
X202428571Y-70821428D01*
X202952380Y-70821428D01*
X202952380Y-70345238D02*
X201952380Y-70345238D01*
X202571428Y-70250000D02*
X202952380Y-69964285D01*
X202285714Y-69964285D02*
X202666666Y-70345238D01*
X137440476Y-88452380D02*
X137440476Y-87452380D01*
X137773809Y-88166666D01*
X138107142Y-87452380D01*
X138107142Y-88452380D01*
X138773809Y-87452380D02*
X138869047Y-87452380D01*
X138964285Y-87500000D01*
X139011904Y-87547619D01*
X139059523Y-87642857D01*
X139107142Y-87833333D01*
X139107142Y-88071428D01*
X139059523Y-88261904D01*
X139011904Y-88357142D01*
X138964285Y-88404761D01*
X138869047Y-88452380D01*
X138773809Y-88452380D01*
X138678571Y-88404761D01*
X138630952Y-88357142D01*
X138583333Y-88261904D01*
X138535714Y-88071428D01*
X138535714Y-87833333D01*
X138583333Y-87642857D01*
X138630952Y-87547619D01*
X138678571Y-87500000D01*
X138773809Y-87452380D01*
X179200000Y-83376190D02*
X179200000Y-83852380D01*
X178866666Y-82852380D02*
X179200000Y-83376190D01*
X179533333Y-82852380D01*
X131952380Y-73404761D02*
X132095238Y-73452380D01*
X132333333Y-73452380D01*
X132428571Y-73404761D01*
X132476190Y-73357142D01*
X132523809Y-73261904D01*
X132523809Y-73166666D01*
X132476190Y-73071428D01*
X132428571Y-73023809D01*
X132333333Y-72976190D01*
X132142857Y-72928571D01*
X132047619Y-72880952D01*
X132000000Y-72833333D01*
X131952380Y-72738095D01*
X131952380Y-72642857D01*
X132000000Y-72547619D01*
X132047619Y-72500000D01*
X132142857Y-72452380D01*
X132380952Y-72452380D01*
X132523809Y-72500000D01*
X132809523Y-72452380D02*
X133380952Y-72452380D01*
X133095238Y-73452380D02*
X133095238Y-72452380D01*
X133714285Y-72928571D02*
X134047619Y-72928571D01*
X134190476Y-73452380D02*
X133714285Y-73452380D01*
X133714285Y-72452380D01*
X134190476Y-72452380D01*
X134619047Y-73452380D02*
X134619047Y-72452380D01*
X135000000Y-72452380D01*
X135095238Y-72500000D01*
X135142857Y-72547619D01*
X135190476Y-72642857D01*
X135190476Y-72785714D01*
X135142857Y-72880952D01*
X135095238Y-72928571D01*
X135000000Y-72976190D01*
X134619047Y-72976190D01*
X136380952Y-73452380D02*
X136380952Y-72452380D01*
X136714285Y-73166666D01*
X137047619Y-72452380D01*
X137047619Y-73452380D01*
X137714285Y-72452380D02*
X137904761Y-72452380D01*
X138000000Y-72500000D01*
X138095238Y-72595238D01*
X138142857Y-72785714D01*
X138142857Y-73119047D01*
X138095238Y-73309523D01*
X138000000Y-73404761D01*
X137904761Y-73452380D01*
X137714285Y-73452380D01*
X137619047Y-73404761D01*
X137523809Y-73309523D01*
X137476190Y-73119047D01*
X137476190Y-72785714D01*
X137523809Y-72595238D01*
X137619047Y-72500000D01*
X137714285Y-72452380D01*
X138571428Y-73452380D02*
X138571428Y-72452380D01*
X138809523Y-72452380D01*
X138952380Y-72500000D01*
X139047619Y-72595238D01*
X139095238Y-72690476D01*
X139142857Y-72880952D01*
X139142857Y-73023809D01*
X139095238Y-73214285D01*
X139047619Y-73309523D01*
X138952380Y-73404761D01*
X138809523Y-73452380D01*
X138571428Y-73452380D01*
X139571428Y-72928571D02*
X139904761Y-72928571D01*
X140047619Y-73452380D02*
X139571428Y-73452380D01*
X139571428Y-72452380D01*
X140047619Y-72452380D01*
X199178571Y-135559523D02*
X199226190Y-135416666D01*
X199273809Y-135369047D01*
X199369047Y-135321428D01*
X199511904Y-135321428D01*
X199607142Y-135369047D01*
X199654761Y-135416666D01*
X199702380Y-135511904D01*
X199702380Y-135892857D01*
X198702380Y-135892857D01*
X198702380Y-135559523D01*
X198750000Y-135464285D01*
X198797619Y-135416666D01*
X198892857Y-135369047D01*
X198988095Y-135369047D01*
X199083333Y-135416666D01*
X199130952Y-135464285D01*
X199178571Y-135559523D01*
X199178571Y-135892857D01*
X198702380Y-135035714D02*
X198702380Y-134464285D01*
X199702380Y-134750000D02*
X198702380Y-134750000D01*
X188738095Y-90000000D02*
X188642857Y-89952380D01*
X188500000Y-89952380D01*
X188357142Y-90000000D01*
X188261904Y-90095238D01*
X188214285Y-90190476D01*
X188166666Y-90380952D01*
X188166666Y-90523809D01*
X188214285Y-90714285D01*
X188261904Y-90809523D01*
X188357142Y-90904761D01*
X188500000Y-90952380D01*
X188595238Y-90952380D01*
X188738095Y-90904761D01*
X188785714Y-90857142D01*
X188785714Y-90523809D01*
X188595238Y-90523809D01*
X189214285Y-90952380D02*
X189214285Y-89952380D01*
X189785714Y-90952380D01*
X189785714Y-89952380D01*
X190261904Y-90952380D02*
X190261904Y-89952380D01*
X190500000Y-89952380D01*
X190642857Y-90000000D01*
X190738095Y-90095238D01*
X190785714Y-90190476D01*
X190833333Y-90380952D01*
X190833333Y-90523809D01*
X190785714Y-90714285D01*
X190738095Y-90809523D01*
X190642857Y-90904761D01*
X190500000Y-90952380D01*
X190261904Y-90952380D01*
X150657142Y-129152380D02*
X150657142Y-128152380D01*
X151228571Y-129152380D01*
X151228571Y-128152380D01*
X152276190Y-129152380D02*
X151942857Y-128676190D01*
X151704761Y-129152380D02*
X151704761Y-128152380D01*
X152085714Y-128152380D01*
X152180952Y-128200000D01*
X152228571Y-128247619D01*
X152276190Y-128342857D01*
X152276190Y-128485714D01*
X152228571Y-128580952D01*
X152180952Y-128628571D01*
X152085714Y-128676190D01*
X151704761Y-128676190D01*
X152657142Y-129104761D02*
X152800000Y-129152380D01*
X153038095Y-129152380D01*
X153133333Y-129104761D01*
X153180952Y-129057142D01*
X153228571Y-128961904D01*
X153228571Y-128866666D01*
X153180952Y-128771428D01*
X153133333Y-128723809D01*
X153038095Y-128676190D01*
X152847619Y-128628571D01*
X152752380Y-128580952D01*
X152704761Y-128533333D01*
X152657142Y-128438095D01*
X152657142Y-128342857D01*
X152704761Y-128247619D01*
X152752380Y-128200000D01*
X152847619Y-128152380D01*
X153085714Y-128152380D01*
X153228571Y-128200000D01*
X153514285Y-128152380D02*
X154085714Y-128152380D01*
X153800000Y-129152380D02*
X153800000Y-128152380D01*
X181352380Y-88076190D02*
X181352380Y-87457142D01*
X181733333Y-87790476D01*
X181733333Y-87647619D01*
X181780952Y-87552380D01*
X181828571Y-87504761D01*
X181923809Y-87457142D01*
X182161904Y-87457142D01*
X182257142Y-87504761D01*
X182304761Y-87552380D01*
X182352380Y-87647619D01*
X182352380Y-87933333D01*
X182304761Y-88028571D01*
X182257142Y-88076190D01*
X182257142Y-87028571D02*
X182304761Y-86980952D01*
X182352380Y-87028571D01*
X182304761Y-87076190D01*
X182257142Y-87028571D01*
X182352380Y-87028571D01*
X181352380Y-86647619D02*
X181352380Y-86028571D01*
X181733333Y-86361904D01*
X181733333Y-86219047D01*
X181780952Y-86123809D01*
X181828571Y-86076190D01*
X181923809Y-86028571D01*
X182161904Y-86028571D01*
X182257142Y-86076190D01*
X182304761Y-86123809D01*
X182352380Y-86219047D01*
X182352380Y-86504761D01*
X182304761Y-86600000D01*
X182257142Y-86647619D01*
X181352380Y-85742857D02*
X182352380Y-85409523D01*
X181352380Y-85076190D01*
X184904761Y-87990476D02*
X184952380Y-87847619D01*
X184952380Y-87609523D01*
X184904761Y-87514285D01*
X184857142Y-87466666D01*
X184761904Y-87419047D01*
X184666666Y-87419047D01*
X184571428Y-87466666D01*
X184523809Y-87514285D01*
X184476190Y-87609523D01*
X184428571Y-87800000D01*
X184380952Y-87895238D01*
X184333333Y-87942857D01*
X184238095Y-87990476D01*
X184142857Y-87990476D01*
X184047619Y-87942857D01*
X184000000Y-87895238D01*
X183952380Y-87800000D01*
X183952380Y-87561904D01*
X184000000Y-87419047D01*
X184857142Y-86419047D02*
X184904761Y-86466666D01*
X184952380Y-86609523D01*
X184952380Y-86704761D01*
X184904761Y-86847619D01*
X184809523Y-86942857D01*
X184714285Y-86990476D01*
X184523809Y-87038095D01*
X184380952Y-87038095D01*
X184190476Y-86990476D01*
X184095238Y-86942857D01*
X184000000Y-86847619D01*
X183952380Y-86704761D01*
X183952380Y-86609523D01*
X184000000Y-86466666D01*
X184047619Y-86419047D01*
X184952380Y-85514285D02*
X184952380Y-85990476D01*
X183952380Y-85990476D01*
X175809523Y-95604761D02*
X175952380Y-95652380D01*
X176190476Y-95652380D01*
X176285714Y-95604761D01*
X176333333Y-95557142D01*
X176380952Y-95461904D01*
X176380952Y-95366666D01*
X176333333Y-95271428D01*
X176285714Y-95223809D01*
X176190476Y-95176190D01*
X176000000Y-95128571D01*
X175904761Y-95080952D01*
X175857142Y-95033333D01*
X175809523Y-94938095D01*
X175809523Y-94842857D01*
X175857142Y-94747619D01*
X175904761Y-94700000D01*
X176000000Y-94652380D01*
X176238095Y-94652380D01*
X176380952Y-94700000D01*
X177380952Y-95557142D02*
X177333333Y-95604761D01*
X177190476Y-95652380D01*
X177095238Y-95652380D01*
X176952380Y-95604761D01*
X176857142Y-95509523D01*
X176809523Y-95414285D01*
X176761904Y-95223809D01*
X176761904Y-95080952D01*
X176809523Y-94890476D01*
X176857142Y-94795238D01*
X176952380Y-94700000D01*
X177095238Y-94652380D01*
X177190476Y-94652380D01*
X177333333Y-94700000D01*
X177380952Y-94747619D01*
X178285714Y-95652380D02*
X177809523Y-95652380D01*
X177809523Y-94652380D01*
X181623809Y-82052380D02*
X181623809Y-81052380D01*
X182052380Y-81147619D02*
X182100000Y-81100000D01*
X182195238Y-81052380D01*
X182433333Y-81052380D01*
X182528571Y-81100000D01*
X182576190Y-81147619D01*
X182623809Y-81242857D01*
X182623809Y-81338095D01*
X182576190Y-81480952D01*
X182004761Y-82052380D01*
X182623809Y-82052380D01*
X183623809Y-81957142D02*
X183576190Y-82004761D01*
X183433333Y-82052380D01*
X183338095Y-82052380D01*
X183195238Y-82004761D01*
X183100000Y-81909523D01*
X183052380Y-81814285D01*
X183004761Y-81623809D01*
X183004761Y-81480952D01*
X183052380Y-81290476D01*
X183100000Y-81195238D01*
X183195238Y-81100000D01*
X183338095Y-81052380D01*
X183433333Y-81052380D01*
X183576190Y-81100000D01*
X183623809Y-81147619D01*
X205509523Y-79852380D02*
X205033333Y-79852380D01*
X204985714Y-80328571D01*
X205033333Y-80280952D01*
X205128571Y-80233333D01*
X205366666Y-80233333D01*
X205461904Y-80280952D01*
X205509523Y-80328571D01*
X205557142Y-80423809D01*
X205557142Y-80661904D01*
X205509523Y-80757142D01*
X205461904Y-80804761D01*
X205366666Y-80852380D01*
X205128571Y-80852380D01*
X205033333Y-80804761D01*
X204985714Y-80757142D01*
X205842857Y-79852380D02*
X206176190Y-80852380D01*
X206509523Y-79852380D01*
X157273809Y-98702380D02*
X157892857Y-98702380D01*
X157559523Y-99083333D01*
X157702380Y-99083333D01*
X157797619Y-99130952D01*
X157845238Y-99178571D01*
X157892857Y-99273809D01*
X157892857Y-99511904D01*
X157845238Y-99607142D01*
X157797619Y-99654761D01*
X157702380Y-99702380D01*
X157416666Y-99702380D01*
X157321428Y-99654761D01*
X157273809Y-99607142D01*
X158321428Y-99607142D02*
X158369047Y-99654761D01*
X158321428Y-99702380D01*
X158273809Y-99654761D01*
X158321428Y-99607142D01*
X158321428Y-99702380D01*
X158702380Y-98702380D02*
X159321428Y-98702380D01*
X158988095Y-99083333D01*
X159130952Y-99083333D01*
X159226190Y-99130952D01*
X159273809Y-99178571D01*
X159321428Y-99273809D01*
X159321428Y-99511904D01*
X159273809Y-99607142D01*
X159226190Y-99654761D01*
X159130952Y-99702380D01*
X158845238Y-99702380D01*
X158750000Y-99654761D01*
X158702380Y-99607142D01*
X159607142Y-98702380D02*
X159940476Y-99702380D01*
X160273809Y-98702380D01*
X132440476Y-88452380D02*
X132440476Y-87452380D01*
X132773809Y-88166666D01*
X133107142Y-87452380D01*
X133107142Y-88452380D01*
X133535714Y-87547619D02*
X133583333Y-87500000D01*
X133678571Y-87452380D01*
X133916666Y-87452380D01*
X134011904Y-87500000D01*
X134059523Y-87547619D01*
X134107142Y-87642857D01*
X134107142Y-87738095D01*
X134059523Y-87880952D01*
X133488095Y-88452380D01*
X134107142Y-88452380D01*
X148847619Y-133652380D02*
X148514285Y-133176190D01*
X148276190Y-133652380D02*
X148276190Y-132652380D01*
X148657142Y-132652380D01*
X148752380Y-132700000D01*
X148800000Y-132747619D01*
X148847619Y-132842857D01*
X148847619Y-132985714D01*
X148800000Y-133080952D01*
X148752380Y-133128571D01*
X148657142Y-133176190D01*
X148276190Y-133176190D01*
X149276190Y-133128571D02*
X149609523Y-133128571D01*
X149752380Y-133652380D02*
X149276190Y-133652380D01*
X149276190Y-132652380D01*
X149752380Y-132652380D01*
X150133333Y-133604761D02*
X150276190Y-133652380D01*
X150514285Y-133652380D01*
X150609523Y-133604761D01*
X150657142Y-133557142D01*
X150704761Y-133461904D01*
X150704761Y-133366666D01*
X150657142Y-133271428D01*
X150609523Y-133223809D01*
X150514285Y-133176190D01*
X150323809Y-133128571D01*
X150228571Y-133080952D01*
X150180952Y-133033333D01*
X150133333Y-132938095D01*
X150133333Y-132842857D01*
X150180952Y-132747619D01*
X150228571Y-132700000D01*
X150323809Y-132652380D01*
X150561904Y-132652380D01*
X150704761Y-132700000D01*
X151133333Y-133128571D02*
X151466666Y-133128571D01*
X151609523Y-133652380D02*
X151133333Y-133652380D01*
X151133333Y-132652380D01*
X151609523Y-132652380D01*
X151895238Y-132652380D02*
X152466666Y-132652380D01*
X152180952Y-133652380D02*
X152180952Y-132652380D01*
X158238095Y-96500000D02*
X158142857Y-96452380D01*
X158000000Y-96452380D01*
X157857142Y-96500000D01*
X157761904Y-96595238D01*
X157714285Y-96690476D01*
X157666666Y-96880952D01*
X157666666Y-97023809D01*
X157714285Y-97214285D01*
X157761904Y-97309523D01*
X157857142Y-97404761D01*
X158000000Y-97452380D01*
X158095238Y-97452380D01*
X158238095Y-97404761D01*
X158285714Y-97357142D01*
X158285714Y-97023809D01*
X158095238Y-97023809D01*
X158714285Y-97452380D02*
X158714285Y-96452380D01*
X159285714Y-97452380D01*
X159285714Y-96452380D01*
X159761904Y-97452380D02*
X159761904Y-96452380D01*
X160000000Y-96452380D01*
X160142857Y-96500000D01*
X160238095Y-96595238D01*
X160285714Y-96690476D01*
X160333333Y-96880952D01*
X160333333Y-97023809D01*
X160285714Y-97214285D01*
X160238095Y-97309523D01*
X160142857Y-97404761D01*
X160000000Y-97452380D01*
X159761904Y-97452380D01*
X193797619Y-84952380D02*
X194369047Y-84952380D01*
X194083333Y-85952380D02*
X194083333Y-84952380D01*
X194702380Y-85952380D02*
X194702380Y-84952380D01*
X195178571Y-85952380D02*
X195178571Y-84952380D01*
X195511904Y-85666666D01*
X195845238Y-84952380D01*
X195845238Y-85952380D01*
X196226190Y-84952380D02*
X196845238Y-84952380D01*
X196511904Y-85333333D01*
X196654761Y-85333333D01*
X196750000Y-85380952D01*
X196797619Y-85428571D01*
X196845238Y-85523809D01*
X196845238Y-85761904D01*
X196797619Y-85857142D01*
X196750000Y-85904761D01*
X196654761Y-85952380D01*
X196369047Y-85952380D01*
X196273809Y-85904761D01*
X196226190Y-85857142D01*
X197035714Y-86047619D02*
X197797619Y-86047619D01*
X198607142Y-85857142D02*
X198559523Y-85904761D01*
X198416666Y-85952380D01*
X198321428Y-85952380D01*
X198178571Y-85904761D01*
X198083333Y-85809523D01*
X198035714Y-85714285D01*
X197988095Y-85523809D01*
X197988095Y-85380952D01*
X198035714Y-85190476D01*
X198083333Y-85095238D01*
X198178571Y-85000000D01*
X198321428Y-84952380D01*
X198416666Y-84952380D01*
X198559523Y-85000000D01*
X198607142Y-85047619D01*
X199035714Y-85952380D02*
X199035714Y-84952380D01*
X199035714Y-85428571D02*
X199607142Y-85428571D01*
X199607142Y-85952380D02*
X199607142Y-84952380D01*
X199988095Y-84952380D02*
X200607142Y-84952380D01*
X200273809Y-85333333D01*
X200416666Y-85333333D01*
X200511904Y-85380952D01*
X200559523Y-85428571D01*
X200607142Y-85523809D01*
X200607142Y-85761904D01*
X200559523Y-85857142D01*
X200511904Y-85904761D01*
X200416666Y-85952380D01*
X200130952Y-85952380D01*
X200035714Y-85904761D01*
X199988095Y-85857142D01*
X131035714Y-93952380D02*
X131035714Y-92952380D01*
X131369047Y-93666666D01*
X131702380Y-92952380D01*
X131702380Y-93952380D01*
X132321428Y-93952380D02*
X132226190Y-93904761D01*
X132178571Y-93857142D01*
X132130952Y-93761904D01*
X132130952Y-93476190D01*
X132178571Y-93380952D01*
X132226190Y-93333333D01*
X132321428Y-93285714D01*
X132464285Y-93285714D01*
X132559523Y-93333333D01*
X132607142Y-93380952D01*
X132654761Y-93476190D01*
X132654761Y-93761904D01*
X132607142Y-93857142D01*
X132559523Y-93904761D01*
X132464285Y-93952380D01*
X132321428Y-93952380D01*
X132940476Y-93285714D02*
X133321428Y-93285714D01*
X133083333Y-92952380D02*
X133083333Y-93809523D01*
X133130952Y-93904761D01*
X133226190Y-93952380D01*
X133321428Y-93952380D01*
X133797619Y-93952380D02*
X133702380Y-93904761D01*
X133654761Y-93857142D01*
X133607142Y-93761904D01*
X133607142Y-93476190D01*
X133654761Y-93380952D01*
X133702380Y-93333333D01*
X133797619Y-93285714D01*
X133940476Y-93285714D01*
X134035714Y-93333333D01*
X134083333Y-93380952D01*
X134130952Y-93476190D01*
X134130952Y-93761904D01*
X134083333Y-93857142D01*
X134035714Y-93904761D01*
X133940476Y-93952380D01*
X133797619Y-93952380D01*
X134559523Y-93952380D02*
X134559523Y-93285714D01*
X134559523Y-93476190D02*
X134607142Y-93380952D01*
X134654761Y-93333333D01*
X134750000Y-93285714D01*
X134845238Y-93285714D01*
X134940476Y-94047619D02*
X135702380Y-94047619D01*
X136273809Y-93428571D02*
X136416666Y-93476190D01*
X136464285Y-93523809D01*
X136511904Y-93619047D01*
X136511904Y-93761904D01*
X136464285Y-93857142D01*
X136416666Y-93904761D01*
X136321428Y-93952380D01*
X135940476Y-93952380D01*
X135940476Y-92952380D01*
X136273809Y-92952380D01*
X136369047Y-93000000D01*
X136416666Y-93047619D01*
X136464285Y-93142857D01*
X136464285Y-93238095D01*
X136416666Y-93333333D01*
X136369047Y-93380952D01*
X136273809Y-93428571D01*
X135940476Y-93428571D01*
X130857142Y-114202380D02*
X130857142Y-113202380D01*
X131190476Y-113916666D01*
X131523809Y-113202380D01*
X131523809Y-114202380D01*
X132142857Y-114202380D02*
X132047619Y-114154761D01*
X132000000Y-114107142D01*
X131952380Y-114011904D01*
X131952380Y-113726190D01*
X132000000Y-113630952D01*
X132047619Y-113583333D01*
X132142857Y-113535714D01*
X132285714Y-113535714D01*
X132380952Y-113583333D01*
X132428571Y-113630952D01*
X132476190Y-113726190D01*
X132476190Y-114011904D01*
X132428571Y-114107142D01*
X132380952Y-114154761D01*
X132285714Y-114202380D01*
X132142857Y-114202380D01*
X132761904Y-113535714D02*
X133142857Y-113535714D01*
X132904761Y-113202380D02*
X132904761Y-114059523D01*
X132952380Y-114154761D01*
X133047619Y-114202380D01*
X133142857Y-114202380D01*
X133619047Y-114202380D02*
X133523809Y-114154761D01*
X133476190Y-114107142D01*
X133428571Y-114011904D01*
X133428571Y-113726190D01*
X133476190Y-113630952D01*
X133523809Y-113583333D01*
X133619047Y-113535714D01*
X133761904Y-113535714D01*
X133857142Y-113583333D01*
X133904761Y-113630952D01*
X133952380Y-113726190D01*
X133952380Y-114011904D01*
X133904761Y-114107142D01*
X133857142Y-114154761D01*
X133761904Y-114202380D01*
X133619047Y-114202380D01*
X134380952Y-114202380D02*
X134380952Y-113535714D01*
X134380952Y-113726190D02*
X134428571Y-113630952D01*
X134476190Y-113583333D01*
X134571428Y-113535714D01*
X134666666Y-113535714D01*
X134761904Y-114297619D02*
X135523809Y-114297619D01*
X135714285Y-113916666D02*
X136190476Y-113916666D01*
X135619047Y-114202380D02*
X135952380Y-113202380D01*
X136285714Y-114202380D01*
X207538095Y-79800000D02*
X207442857Y-79752380D01*
X207300000Y-79752380D01*
X207157142Y-79800000D01*
X207061904Y-79895238D01*
X207014285Y-79990476D01*
X206966666Y-80180952D01*
X206966666Y-80323809D01*
X207014285Y-80514285D01*
X207061904Y-80609523D01*
X207157142Y-80704761D01*
X207300000Y-80752380D01*
X207395238Y-80752380D01*
X207538095Y-80704761D01*
X207585714Y-80657142D01*
X207585714Y-80323809D01*
X207395238Y-80323809D01*
X208014285Y-80752380D02*
X208014285Y-79752380D01*
X208585714Y-80752380D01*
X208585714Y-79752380D01*
X209061904Y-80752380D02*
X209061904Y-79752380D01*
X209300000Y-79752380D01*
X209442857Y-79800000D01*
X209538095Y-79895238D01*
X209585714Y-79990476D01*
X209633333Y-80180952D01*
X209633333Y-80323809D01*
X209585714Y-80514285D01*
X209538095Y-80609523D01*
X209442857Y-80704761D01*
X209300000Y-80752380D01*
X209061904Y-80752380D01*
X194047619Y-89952380D02*
X194619047Y-89952380D01*
X194333333Y-90952380D02*
X194333333Y-89952380D01*
X194952380Y-90952380D02*
X194952380Y-89952380D01*
X195428571Y-90952380D02*
X195428571Y-89952380D01*
X195761904Y-90666666D01*
X196095238Y-89952380D01*
X196095238Y-90952380D01*
X196476190Y-89952380D02*
X197095238Y-89952380D01*
X196761904Y-90333333D01*
X196904761Y-90333333D01*
X197000000Y-90380952D01*
X197047619Y-90428571D01*
X197095238Y-90523809D01*
X197095238Y-90761904D01*
X197047619Y-90857142D01*
X197000000Y-90904761D01*
X196904761Y-90952380D01*
X196619047Y-90952380D01*
X196523809Y-90904761D01*
X196476190Y-90857142D01*
X197285714Y-91047619D02*
X198047619Y-91047619D01*
X198857142Y-90857142D02*
X198809523Y-90904761D01*
X198666666Y-90952380D01*
X198571428Y-90952380D01*
X198428571Y-90904761D01*
X198333333Y-90809523D01*
X198285714Y-90714285D01*
X198238095Y-90523809D01*
X198238095Y-90380952D01*
X198285714Y-90190476D01*
X198333333Y-90095238D01*
X198428571Y-90000000D01*
X198571428Y-89952380D01*
X198666666Y-89952380D01*
X198809523Y-90000000D01*
X198857142Y-90047619D01*
X199285714Y-90952380D02*
X199285714Y-89952380D01*
X199285714Y-90428571D02*
X199857142Y-90428571D01*
X199857142Y-90952380D02*
X199857142Y-89952380D01*
X200857142Y-90952380D02*
X200285714Y-90952380D01*
X200571428Y-90952380D02*
X200571428Y-89952380D01*
X200476190Y-90095238D01*
X200380952Y-90190476D01*
X200285714Y-90238095D01*
X147138095Y-128200000D02*
X147042857Y-128152380D01*
X146900000Y-128152380D01*
X146757142Y-128200000D01*
X146661904Y-128295238D01*
X146614285Y-128390476D01*
X146566666Y-128580952D01*
X146566666Y-128723809D01*
X146614285Y-128914285D01*
X146661904Y-129009523D01*
X146757142Y-129104761D01*
X146900000Y-129152380D01*
X146995238Y-129152380D01*
X147138095Y-129104761D01*
X147185714Y-129057142D01*
X147185714Y-128723809D01*
X146995238Y-128723809D01*
X147614285Y-129152380D02*
X147614285Y-128152380D01*
X148185714Y-129152380D01*
X148185714Y-128152380D01*
X148661904Y-129152380D02*
X148661904Y-128152380D01*
X148900000Y-128152380D01*
X149042857Y-128200000D01*
X149138095Y-128295238D01*
X149185714Y-128390476D01*
X149233333Y-128580952D01*
X149233333Y-128723809D01*
X149185714Y-128914285D01*
X149138095Y-129009523D01*
X149042857Y-129104761D01*
X148900000Y-129152380D01*
X148661904Y-129152380D01*
X196702380Y-135964285D02*
X195702380Y-135964285D01*
X195702380Y-135583333D01*
X195750000Y-135488095D01*
X195797619Y-135440476D01*
X195892857Y-135392857D01*
X196035714Y-135392857D01*
X196130952Y-135440476D01*
X196178571Y-135488095D01*
X196226190Y-135583333D01*
X196226190Y-135964285D01*
X196607142Y-134392857D02*
X196654761Y-134440476D01*
X196702380Y-134583333D01*
X196702380Y-134678571D01*
X196654761Y-134821428D01*
X196559523Y-134916666D01*
X196464285Y-134964285D01*
X196273809Y-135011904D01*
X196130952Y-135011904D01*
X195940476Y-134964285D01*
X195845238Y-134916666D01*
X195750000Y-134821428D01*
X195702380Y-134678571D01*
X195702380Y-134583333D01*
X195750000Y-134440476D01*
X195797619Y-134392857D01*
X196702380Y-133440476D02*
X196702380Y-134011904D01*
X196702380Y-133726190D02*
X195702380Y-133726190D01*
X195845238Y-133821428D01*
X195940476Y-133916666D01*
X195988095Y-134011904D01*
X195702380Y-133107142D02*
X195702380Y-132488095D01*
X196083333Y-132821428D01*
X196083333Y-132678571D01*
X196130952Y-132583333D01*
X196178571Y-132535714D01*
X196273809Y-132488095D01*
X196511904Y-132488095D01*
X196607142Y-132535714D01*
X196654761Y-132583333D01*
X196702380Y-132678571D01*
X196702380Y-132964285D01*
X196654761Y-133059523D01*
X196607142Y-133107142D01*
X191933333Y-113352380D02*
X191600000Y-112876190D01*
X191361904Y-113352380D02*
X191361904Y-112352380D01*
X191742857Y-112352380D01*
X191838095Y-112400000D01*
X191885714Y-112447619D01*
X191933333Y-112542857D01*
X191933333Y-112685714D01*
X191885714Y-112780952D01*
X191838095Y-112828571D01*
X191742857Y-112876190D01*
X191361904Y-112876190D01*
X192266666Y-112352380D02*
X192933333Y-113352380D01*
X192933333Y-112352380D02*
X192266666Y-113352380D01*
X202076190Y-80804761D02*
X202219047Y-80852380D01*
X202457142Y-80852380D01*
X202552380Y-80804761D01*
X202600000Y-80757142D01*
X202647619Y-80661904D01*
X202647619Y-80566666D01*
X202600000Y-80471428D01*
X202552380Y-80423809D01*
X202457142Y-80376190D01*
X202266666Y-80328571D01*
X202171428Y-80280952D01*
X202123809Y-80233333D01*
X202076190Y-80138095D01*
X202076190Y-80042857D01*
X202123809Y-79947619D01*
X202171428Y-79900000D01*
X202266666Y-79852380D01*
X202504761Y-79852380D01*
X202647619Y-79900000D01*
X203076190Y-80852380D02*
X203076190Y-79852380D01*
X204076190Y-79900000D02*
X203980952Y-79852380D01*
X203838095Y-79852380D01*
X203695238Y-79900000D01*
X203600000Y-79995238D01*
X203552380Y-80090476D01*
X203504761Y-80280952D01*
X203504761Y-80423809D01*
X203552380Y-80614285D01*
X203600000Y-80709523D01*
X203695238Y-80804761D01*
X203838095Y-80852380D01*
X203933333Y-80852380D01*
X204076190Y-80804761D01*
X204123809Y-80757142D01*
X204123809Y-80423809D01*
X203933333Y-80423809D01*
X180100000Y-87461904D02*
X180052380Y-87557142D01*
X180052380Y-87700000D01*
X180100000Y-87842857D01*
X180195238Y-87938095D01*
X180290476Y-87985714D01*
X180480952Y-88033333D01*
X180623809Y-88033333D01*
X180814285Y-87985714D01*
X180909523Y-87938095D01*
X181004761Y-87842857D01*
X181052380Y-87700000D01*
X181052380Y-87604761D01*
X181004761Y-87461904D01*
X180957142Y-87414285D01*
X180623809Y-87414285D01*
X180623809Y-87604761D01*
X181052380Y-86985714D02*
X180052380Y-86985714D01*
X181052380Y-86414285D01*
X180052380Y-86414285D01*
X181052380Y-85938095D02*
X180052380Y-85938095D01*
X180052380Y-85700000D01*
X180100000Y-85557142D01*
X180195238Y-85461904D01*
X180290476Y-85414285D01*
X180480952Y-85366666D01*
X180623809Y-85366666D01*
X180814285Y-85414285D01*
X180909523Y-85461904D01*
X181004761Y-85557142D01*
X181052380Y-85700000D01*
X181052380Y-85938095D01*
X191338095Y-114452380D02*
X191909523Y-114452380D01*
X191623809Y-115452380D02*
X191623809Y-114452380D01*
X192147619Y-114452380D02*
X192814285Y-115452380D01*
X192814285Y-114452380D02*
X192147619Y-115452380D01*
X189035714Y-85857142D02*
X188988095Y-85904761D01*
X188845238Y-85952380D01*
X188750000Y-85952380D01*
X188607143Y-85904761D01*
X188511905Y-85809523D01*
X188464286Y-85714285D01*
X188416667Y-85523809D01*
X188416667Y-85380952D01*
X188464286Y-85190476D01*
X188511905Y-85095238D01*
X188607143Y-85000000D01*
X188750000Y-84952380D01*
X188845238Y-84952380D01*
X188988095Y-85000000D01*
X189035714Y-85047619D01*
X189940476Y-85952380D02*
X189464286Y-85952380D01*
X189464286Y-84952380D01*
X190273810Y-85952380D02*
X190273810Y-84952380D01*
X190845238Y-85952380D02*
X190416667Y-85380952D01*
X190845238Y-84952380D02*
X190273810Y-85523809D01*
X193797619Y-87452380D02*
X194369047Y-87452380D01*
X194083333Y-88452380D02*
X194083333Y-87452380D01*
X194702380Y-88452380D02*
X194702380Y-87452380D01*
X195178571Y-88452380D02*
X195178571Y-87452380D01*
X195511904Y-88166666D01*
X195845238Y-87452380D01*
X195845238Y-88452380D01*
X196226190Y-87452380D02*
X196845238Y-87452380D01*
X196511904Y-87833333D01*
X196654761Y-87833333D01*
X196750000Y-87880952D01*
X196797619Y-87928571D01*
X196845238Y-88023809D01*
X196845238Y-88261904D01*
X196797619Y-88357142D01*
X196750000Y-88404761D01*
X196654761Y-88452380D01*
X196369047Y-88452380D01*
X196273809Y-88404761D01*
X196226190Y-88357142D01*
X197035714Y-88547619D02*
X197797619Y-88547619D01*
X198607142Y-88357142D02*
X198559523Y-88404761D01*
X198416666Y-88452380D01*
X198321428Y-88452380D01*
X198178571Y-88404761D01*
X198083333Y-88309523D01*
X198035714Y-88214285D01*
X197988095Y-88023809D01*
X197988095Y-87880952D01*
X198035714Y-87690476D01*
X198083333Y-87595238D01*
X198178571Y-87500000D01*
X198321428Y-87452380D01*
X198416666Y-87452380D01*
X198559523Y-87500000D01*
X198607142Y-87547619D01*
X199035714Y-88452380D02*
X199035714Y-87452380D01*
X199035714Y-87928571D02*
X199607142Y-87928571D01*
X199607142Y-88452380D02*
X199607142Y-87452380D01*
X200035714Y-87547619D02*
X200083333Y-87500000D01*
X200178571Y-87452380D01*
X200416666Y-87452380D01*
X200511904Y-87500000D01*
X200559523Y-87547619D01*
X200607142Y-87642857D01*
X200607142Y-87738095D01*
X200559523Y-87880952D01*
X199988095Y-88452380D01*
X200607142Y-88452380D01*
X188464286Y-88452380D02*
X188464286Y-87452380D01*
X188702381Y-87452380D01*
X188845238Y-87500000D01*
X188940476Y-87595238D01*
X188988096Y-87690476D01*
X189035715Y-87880952D01*
X189035715Y-88023809D01*
X188988096Y-88214285D01*
X188940476Y-88309523D01*
X188845238Y-88404761D01*
X188702381Y-88452380D01*
X188464286Y-88452380D01*
X189464286Y-88452380D02*
X189464286Y-87452380D01*
X190130953Y-87452380D02*
X190321429Y-87452380D01*
X190416667Y-87500000D01*
X190511905Y-87595238D01*
X190559524Y-87785714D01*
X190559524Y-88119047D01*
X190511905Y-88309523D01*
X190416667Y-88404761D01*
X190321429Y-88452380D01*
X190130953Y-88452380D01*
X190035715Y-88404761D01*
X189940476Y-88309523D01*
X189892857Y-88119047D01*
X189892857Y-87785714D01*
X189940476Y-87595238D01*
X190035715Y-87500000D01*
X190130953Y-87452380D01*
X190702380Y-135892857D02*
X189702380Y-135892857D01*
X190416666Y-135559523D01*
X189702380Y-135226190D01*
X190702380Y-135226190D01*
X190797619Y-134988095D02*
X190797619Y-134226190D01*
X190416666Y-134035714D02*
X190416666Y-133559523D01*
X190702380Y-134130952D02*
X189702380Y-133797619D01*
X190702380Y-133464285D01*
X174833333Y-88847619D02*
X174166666Y-87847619D01*
X174166666Y-88847619D02*
X174833333Y-87847619D01*
X195436190Y-77340952D02*
X195340952Y-77293333D01*
X195293333Y-77245714D01*
X195245714Y-77150476D01*
X195245714Y-77102857D01*
X195293333Y-77007619D01*
X195340952Y-76960000D01*
X195436190Y-76912380D01*
X195626666Y-76912380D01*
X195721904Y-76960000D01*
X195769523Y-77007619D01*
X195817142Y-77102857D01*
X195817142Y-77150476D01*
X195769523Y-77245714D01*
X195721904Y-77293333D01*
X195626666Y-77340952D01*
X195436190Y-77340952D01*
X195340952Y-77388571D01*
X195293333Y-77436190D01*
X195245714Y-77531428D01*
X195245714Y-77721904D01*
X195293333Y-77817142D01*
X195340952Y-77864761D01*
X195436190Y-77912380D01*
X195626666Y-77912380D01*
X195721904Y-77864761D01*
X195769523Y-77817142D01*
X195817142Y-77721904D01*
X195817142Y-77531428D01*
X195769523Y-77436190D01*
X195721904Y-77388571D01*
X195626666Y-77340952D01*
X196102857Y-76912380D02*
X196436190Y-77912380D01*
X196769523Y-76912380D01*
X197102857Y-77531428D02*
X197864761Y-77531428D01*
X198293333Y-77007619D02*
X198340952Y-76960000D01*
X198436190Y-76912380D01*
X198674285Y-76912380D01*
X198769523Y-76960000D01*
X198817142Y-77007619D01*
X198864761Y-77102857D01*
X198864761Y-77198095D01*
X198817142Y-77340952D01*
X198245714Y-77912380D01*
X198864761Y-77912380D01*
X199721904Y-77245714D02*
X199721904Y-77912380D01*
X199483809Y-76864761D02*
X199245714Y-77579047D01*
X199864761Y-77579047D01*
X200102857Y-76912380D02*
X200436190Y-77912380D01*
X200769523Y-76912380D01*
X188398809Y-82452380D02*
X189017857Y-82452380D01*
X188684523Y-82833333D01*
X188827380Y-82833333D01*
X188922619Y-82880952D01*
X188970238Y-82928571D01*
X189017857Y-83023809D01*
X189017857Y-83261904D01*
X188970238Y-83357142D01*
X188922619Y-83404761D01*
X188827380Y-83452380D01*
X188541666Y-83452380D01*
X188446428Y-83404761D01*
X188398809Y-83357142D01*
X189446428Y-83357142D02*
X189494047Y-83404761D01*
X189446428Y-83452380D01*
X189398809Y-83404761D01*
X189446428Y-83357142D01*
X189446428Y-83452380D01*
X189827380Y-82452380D02*
X190446428Y-82452380D01*
X190113095Y-82833333D01*
X190255952Y-82833333D01*
X190351190Y-82880952D01*
X190398809Y-82928571D01*
X190446428Y-83023809D01*
X190446428Y-83261904D01*
X190398809Y-83357142D01*
X190351190Y-83404761D01*
X190255952Y-83452380D01*
X189970238Y-83452380D01*
X189875000Y-83404761D01*
X189827380Y-83357142D01*
X190732142Y-82452380D02*
X191065476Y-83452380D01*
X191398809Y-82452380D01*
X158080952Y-133366666D02*
X158557142Y-133366666D01*
X157985714Y-133652380D02*
X158319047Y-132652380D01*
X158652380Y-133652380D01*
X158842857Y-132652380D02*
X159414285Y-132652380D01*
X159128571Y-133652380D02*
X159128571Y-132652380D01*
X193797619Y-82452380D02*
X194369047Y-82452380D01*
X194083333Y-83452380D02*
X194083333Y-82452380D01*
X194702380Y-83452380D02*
X194702380Y-82452380D01*
X195178571Y-83452380D02*
X195178571Y-82452380D01*
X195511904Y-83166666D01*
X195845238Y-82452380D01*
X195845238Y-83452380D01*
X196226190Y-82452380D02*
X196845238Y-82452380D01*
X196511904Y-82833333D01*
X196654761Y-82833333D01*
X196750000Y-82880952D01*
X196797619Y-82928571D01*
X196845238Y-83023809D01*
X196845238Y-83261904D01*
X196797619Y-83357142D01*
X196750000Y-83404761D01*
X196654761Y-83452380D01*
X196369047Y-83452380D01*
X196273809Y-83404761D01*
X196226190Y-83357142D01*
X197035714Y-83547619D02*
X197797619Y-83547619D01*
X198607142Y-83357142D02*
X198559523Y-83404761D01*
X198416666Y-83452380D01*
X198321428Y-83452380D01*
X198178571Y-83404761D01*
X198083333Y-83309523D01*
X198035714Y-83214285D01*
X197988095Y-83023809D01*
X197988095Y-82880952D01*
X198035714Y-82690476D01*
X198083333Y-82595238D01*
X198178571Y-82500000D01*
X198321428Y-82452380D01*
X198416666Y-82452380D01*
X198559523Y-82500000D01*
X198607142Y-82547619D01*
X199035714Y-83452380D02*
X199035714Y-82452380D01*
X199035714Y-82928571D02*
X199607142Y-82928571D01*
X199607142Y-83452380D02*
X199607142Y-82452380D01*
X200511904Y-82785714D02*
X200511904Y-83452380D01*
X200273809Y-82404761D02*
X200035714Y-83119047D01*
X200654761Y-83119047D01*
X187702380Y-136083333D02*
X186702380Y-136083333D01*
X186702380Y-135702380D01*
X186750000Y-135607142D01*
X186797619Y-135559523D01*
X186892857Y-135511904D01*
X187035714Y-135511904D01*
X187130952Y-135559523D01*
X187178571Y-135607142D01*
X187226190Y-135702380D01*
X187226190Y-136083333D01*
X186702380Y-135178571D02*
X187702380Y-134940476D01*
X186988095Y-134750000D01*
X187702380Y-134559523D01*
X186702380Y-134321428D01*
X187702380Y-133369047D02*
X187226190Y-133702380D01*
X187702380Y-133940476D02*
X186702380Y-133940476D01*
X186702380Y-133559523D01*
X186750000Y-133464285D01*
X186797619Y-133416666D01*
X186892857Y-133369047D01*
X187035714Y-133369047D01*
X187130952Y-133416666D01*
X187178571Y-133464285D01*
X187226190Y-133559523D01*
X187226190Y-133940476D01*
X172585714Y-95604761D02*
X172728571Y-95652380D01*
X172966666Y-95652380D01*
X173061904Y-95604761D01*
X173109523Y-95557142D01*
X173157142Y-95461904D01*
X173157142Y-95366666D01*
X173109523Y-95271428D01*
X173061904Y-95223809D01*
X172966666Y-95176190D01*
X172776190Y-95128571D01*
X172680952Y-95080952D01*
X172633333Y-95033333D01*
X172585714Y-94938095D01*
X172585714Y-94842857D01*
X172633333Y-94747619D01*
X172680952Y-94700000D01*
X172776190Y-94652380D01*
X173014285Y-94652380D01*
X173157142Y-94700000D01*
X173585714Y-95652380D02*
X173585714Y-94652380D01*
X173823809Y-94652380D01*
X173966666Y-94700000D01*
X174061904Y-94795238D01*
X174109523Y-94890476D01*
X174157142Y-95080952D01*
X174157142Y-95223809D01*
X174109523Y-95414285D01*
X174061904Y-95509523D01*
X173966666Y-95604761D01*
X173823809Y-95652380D01*
X173585714Y-95652380D01*
X174538095Y-95366666D02*
X175014285Y-95366666D01*
X174442857Y-95652380D02*
X174776190Y-94652380D01*
X175109523Y-95652380D01*
X193702380Y-135964285D02*
X192702380Y-135964285D01*
X193416666Y-135630952D01*
X192702380Y-135297619D01*
X193702380Y-135297619D01*
X193797619Y-135059523D02*
X193797619Y-134297619D01*
X193178571Y-133726190D02*
X193226190Y-133583333D01*
X193273809Y-133535714D01*
X193369047Y-133488095D01*
X193511904Y-133488095D01*
X193607142Y-133535714D01*
X193654761Y-133583333D01*
X193702380Y-133678571D01*
X193702380Y-134059523D01*
X192702380Y-134059523D01*
X192702380Y-133726190D01*
X192750000Y-133630952D01*
X192797619Y-133583333D01*
X192892857Y-133535714D01*
X192988095Y-133535714D01*
X193083333Y-133583333D01*
X193130952Y-133630952D01*
X193178571Y-133726190D01*
X193178571Y-134059523D01*
X134940476Y-88452380D02*
X134940476Y-87452380D01*
X135273809Y-88166666D01*
X135607142Y-87452380D01*
X135607142Y-88452380D01*
X136607142Y-88452380D02*
X136035714Y-88452380D01*
X136321428Y-88452380D02*
X136321428Y-87452380D01*
X136226190Y-87595238D01*
X136130952Y-87690476D01*
X136035714Y-87738095D01*
D11*
X165771428Y-89778571D02*
X166628571Y-89778571D01*
X166200000Y-91278571D02*
X166200000Y-89778571D01*
X166985714Y-89778571D02*
X167342857Y-91278571D01*
X167628571Y-90207142D01*
X167914285Y-91278571D01*
X168271428Y-89778571D01*
X169342857Y-90492857D02*
X169557142Y-90564285D01*
X169628571Y-90635714D01*
X169700000Y-90778571D01*
X169700000Y-90992857D01*
X169628571Y-91135714D01*
X169557142Y-91207142D01*
X169414285Y-91278571D01*
X168842857Y-91278571D01*
X168842857Y-89778571D01*
X169342857Y-89778571D01*
X169485714Y-89850000D01*
X169557142Y-89921428D01*
X169628571Y-90064285D01*
X169628571Y-90207142D01*
X169557142Y-90350000D01*
X169485714Y-90421428D01*
X169342857Y-90492857D01*
X168842857Y-90492857D01*
X171057142Y-91278571D02*
X170342857Y-91278571D01*
X170342857Y-89778571D01*
X173557142Y-91278571D02*
X173057142Y-90564285D01*
X172700000Y-91278571D02*
X172700000Y-89778571D01*
X173271428Y-89778571D01*
X173414285Y-89850000D01*
X173485714Y-89921428D01*
X173557142Y-90064285D01*
X173557142Y-90278571D01*
X173485714Y-90421428D01*
X173414285Y-90492857D01*
X173271428Y-90564285D01*
X172700000Y-90564285D01*
X174414285Y-91278571D02*
X174271428Y-91207142D01*
X174200000Y-91135714D01*
X174128571Y-90992857D01*
X174128571Y-90564285D01*
X174200000Y-90421428D01*
X174271428Y-90350000D01*
X174414285Y-90278571D01*
X174628571Y-90278571D01*
X174771428Y-90350000D01*
X174842857Y-90421428D01*
X174914285Y-90564285D01*
X174914285Y-90992857D01*
X174842857Y-91135714D01*
X174771428Y-91207142D01*
X174628571Y-91278571D01*
X174414285Y-91278571D01*
X175557142Y-91278571D02*
X175557142Y-89778571D01*
X175557142Y-90350000D02*
X175700000Y-90278571D01*
X175985714Y-90278571D01*
X176128571Y-90350000D01*
X176200000Y-90421428D01*
X176271428Y-90564285D01*
X176271428Y-90992857D01*
X176200000Y-91135714D01*
X176128571Y-91207142D01*
X175985714Y-91278571D01*
X175700000Y-91278571D01*
X175557142Y-91207142D01*
X177128571Y-91278571D02*
X176985714Y-91207142D01*
X176914285Y-91135714D01*
X176842857Y-90992857D01*
X176842857Y-90564285D01*
X176914285Y-90421428D01*
X176985714Y-90350000D01*
X177128571Y-90278571D01*
X177342857Y-90278571D01*
X177485714Y-90350000D01*
X177557142Y-90421428D01*
X177628571Y-90564285D01*
X177628571Y-90992857D01*
X177557142Y-91135714D01*
X177485714Y-91207142D01*
X177342857Y-91278571D01*
X177128571Y-91278571D01*
X178057142Y-90278571D02*
X178628571Y-90278571D01*
X178271428Y-89778571D02*
X178271428Y-91064285D01*
X178342857Y-91207142D01*
X178485714Y-91278571D01*
X178628571Y-91278571D01*
D10*
%TO.C,R7*%
X166482380Y-101241666D02*
X166006190Y-101575000D01*
X166482380Y-101813095D02*
X165482380Y-101813095D01*
X165482380Y-101432142D01*
X165530000Y-101336904D01*
X165577619Y-101289285D01*
X165672857Y-101241666D01*
X165815714Y-101241666D01*
X165910952Y-101289285D01*
X165958571Y-101336904D01*
X166006190Y-101432142D01*
X166006190Y-101813095D01*
X165482380Y-100908333D02*
X165482380Y-100241666D01*
X166482380Y-100670238D01*
%TO.C,R14*%
X139757142Y-94752380D02*
X139423809Y-94276190D01*
X139185714Y-94752380D02*
X139185714Y-93752380D01*
X139566666Y-93752380D01*
X139661904Y-93800000D01*
X139709523Y-93847619D01*
X139757142Y-93942857D01*
X139757142Y-94085714D01*
X139709523Y-94180952D01*
X139661904Y-94228571D01*
X139566666Y-94276190D01*
X139185714Y-94276190D01*
X140709523Y-94752380D02*
X140138095Y-94752380D01*
X140423809Y-94752380D02*
X140423809Y-93752380D01*
X140328571Y-93895238D01*
X140233333Y-93990476D01*
X140138095Y-94038095D01*
X141566666Y-94085714D02*
X141566666Y-94752380D01*
X141328571Y-93704761D02*
X141090476Y-94419047D01*
X141709523Y-94419047D01*
%TO.C,C14*%
X172457142Y-119157142D02*
X172409523Y-119204761D01*
X172266666Y-119252380D01*
X172171428Y-119252380D01*
X172028571Y-119204761D01*
X171933333Y-119109523D01*
X171885714Y-119014285D01*
X171838095Y-118823809D01*
X171838095Y-118680952D01*
X171885714Y-118490476D01*
X171933333Y-118395238D01*
X172028571Y-118300000D01*
X172171428Y-118252380D01*
X172266666Y-118252380D01*
X172409523Y-118300000D01*
X172457142Y-118347619D01*
X173409523Y-119252380D02*
X172838095Y-119252380D01*
X173123809Y-119252380D02*
X173123809Y-118252380D01*
X173028571Y-118395238D01*
X172933333Y-118490476D01*
X172838095Y-118538095D01*
X174266666Y-118585714D02*
X174266666Y-119252380D01*
X174028571Y-118204761D02*
X173790476Y-118919047D01*
X174409523Y-118919047D01*
%TO.C,C5*%
X188133333Y-62627142D02*
X188085714Y-62674761D01*
X187942857Y-62722380D01*
X187847619Y-62722380D01*
X187704761Y-62674761D01*
X187609523Y-62579523D01*
X187561904Y-62484285D01*
X187514285Y-62293809D01*
X187514285Y-62150952D01*
X187561904Y-61960476D01*
X187609523Y-61865238D01*
X187704761Y-61770000D01*
X187847619Y-61722380D01*
X187942857Y-61722380D01*
X188085714Y-61770000D01*
X188133333Y-61817619D01*
X189038095Y-61722380D02*
X188561904Y-61722380D01*
X188514285Y-62198571D01*
X188561904Y-62150952D01*
X188657142Y-62103333D01*
X188895238Y-62103333D01*
X188990476Y-62150952D01*
X189038095Y-62198571D01*
X189085714Y-62293809D01*
X189085714Y-62531904D01*
X189038095Y-62627142D01*
X188990476Y-62674761D01*
X188895238Y-62722380D01*
X188657142Y-62722380D01*
X188561904Y-62674761D01*
X188514285Y-62627142D01*
%TO.C,U8*%
X146138095Y-80652380D02*
X146138095Y-81461904D01*
X146185714Y-81557142D01*
X146233333Y-81604761D01*
X146328571Y-81652380D01*
X146519047Y-81652380D01*
X146614285Y-81604761D01*
X146661904Y-81557142D01*
X146709523Y-81461904D01*
X146709523Y-80652380D01*
X147328571Y-81080952D02*
X147233333Y-81033333D01*
X147185714Y-80985714D01*
X147138095Y-80890476D01*
X147138095Y-80842857D01*
X147185714Y-80747619D01*
X147233333Y-80700000D01*
X147328571Y-80652380D01*
X147519047Y-80652380D01*
X147614285Y-80700000D01*
X147661904Y-80747619D01*
X147709523Y-80842857D01*
X147709523Y-80890476D01*
X147661904Y-80985714D01*
X147614285Y-81033333D01*
X147519047Y-81080952D01*
X147328571Y-81080952D01*
X147233333Y-81128571D01*
X147185714Y-81176190D01*
X147138095Y-81271428D01*
X147138095Y-81461904D01*
X147185714Y-81557142D01*
X147233333Y-81604761D01*
X147328571Y-81652380D01*
X147519047Y-81652380D01*
X147614285Y-81604761D01*
X147661904Y-81557142D01*
X147709523Y-81461904D01*
X147709523Y-81271428D01*
X147661904Y-81176190D01*
X147614285Y-81128571D01*
X147519047Y-81080952D01*
%TO.C,C27*%
X138107142Y-118142857D02*
X138154761Y-118190476D01*
X138202380Y-118333333D01*
X138202380Y-118428571D01*
X138154761Y-118571428D01*
X138059523Y-118666666D01*
X137964285Y-118714285D01*
X137773809Y-118761904D01*
X137630952Y-118761904D01*
X137440476Y-118714285D01*
X137345238Y-118666666D01*
X137250000Y-118571428D01*
X137202380Y-118428571D01*
X137202380Y-118333333D01*
X137250000Y-118190476D01*
X137297619Y-118142857D01*
X137297619Y-117761904D02*
X137250000Y-117714285D01*
X137202380Y-117619047D01*
X137202380Y-117380952D01*
X137250000Y-117285714D01*
X137297619Y-117238095D01*
X137392857Y-117190476D01*
X137488095Y-117190476D01*
X137630952Y-117238095D01*
X138202380Y-117809523D01*
X138202380Y-117190476D01*
X137202380Y-116857142D02*
X137202380Y-116190476D01*
X138202380Y-116619047D01*
%TO.C,C13*%
X177057142Y-120457142D02*
X177009523Y-120504761D01*
X176866666Y-120552380D01*
X176771428Y-120552380D01*
X176628571Y-120504761D01*
X176533333Y-120409523D01*
X176485714Y-120314285D01*
X176438095Y-120123809D01*
X176438095Y-119980952D01*
X176485714Y-119790476D01*
X176533333Y-119695238D01*
X176628571Y-119600000D01*
X176771428Y-119552380D01*
X176866666Y-119552380D01*
X177009523Y-119600000D01*
X177057142Y-119647619D01*
X178009523Y-120552380D02*
X177438095Y-120552380D01*
X177723809Y-120552380D02*
X177723809Y-119552380D01*
X177628571Y-119695238D01*
X177533333Y-119790476D01*
X177438095Y-119838095D01*
X178342857Y-119552380D02*
X178961904Y-119552380D01*
X178628571Y-119933333D01*
X178771428Y-119933333D01*
X178866666Y-119980952D01*
X178914285Y-120028571D01*
X178961904Y-120123809D01*
X178961904Y-120361904D01*
X178914285Y-120457142D01*
X178866666Y-120504761D01*
X178771428Y-120552380D01*
X178485714Y-120552380D01*
X178390476Y-120504761D01*
X178342857Y-120457142D01*
%TO.C,U2*%
X169238095Y-95852380D02*
X169238095Y-96661904D01*
X169285714Y-96757142D01*
X169333333Y-96804761D01*
X169428571Y-96852380D01*
X169619047Y-96852380D01*
X169714285Y-96804761D01*
X169761904Y-96757142D01*
X169809523Y-96661904D01*
X169809523Y-95852380D01*
X170238095Y-95947619D02*
X170285714Y-95900000D01*
X170380952Y-95852380D01*
X170619047Y-95852380D01*
X170714285Y-95900000D01*
X170761904Y-95947619D01*
X170809523Y-96042857D01*
X170809523Y-96138095D01*
X170761904Y-96280952D01*
X170190476Y-96852380D01*
X170809523Y-96852380D01*
%TO.C,C1*%
X180133333Y-93057142D02*
X180085714Y-93104761D01*
X179942857Y-93152380D01*
X179847619Y-93152380D01*
X179704761Y-93104761D01*
X179609523Y-93009523D01*
X179561904Y-92914285D01*
X179514285Y-92723809D01*
X179514285Y-92580952D01*
X179561904Y-92390476D01*
X179609523Y-92295238D01*
X179704761Y-92200000D01*
X179847619Y-92152380D01*
X179942857Y-92152380D01*
X180085714Y-92200000D01*
X180133333Y-92247619D01*
X181085714Y-93152380D02*
X180514285Y-93152380D01*
X180800000Y-93152380D02*
X180800000Y-92152380D01*
X180704761Y-92295238D01*
X180609523Y-92390476D01*
X180514285Y-92438095D01*
%TO.C,C39*%
X147867142Y-86407142D02*
X147819523Y-86454761D01*
X147676666Y-86502380D01*
X147581428Y-86502380D01*
X147438571Y-86454761D01*
X147343333Y-86359523D01*
X147295714Y-86264285D01*
X147248095Y-86073809D01*
X147248095Y-85930952D01*
X147295714Y-85740476D01*
X147343333Y-85645238D01*
X147438571Y-85550000D01*
X147581428Y-85502380D01*
X147676666Y-85502380D01*
X147819523Y-85550000D01*
X147867142Y-85597619D01*
X148200476Y-85502380D02*
X148819523Y-85502380D01*
X148486190Y-85883333D01*
X148629047Y-85883333D01*
X148724285Y-85930952D01*
X148771904Y-85978571D01*
X148819523Y-86073809D01*
X148819523Y-86311904D01*
X148771904Y-86407142D01*
X148724285Y-86454761D01*
X148629047Y-86502380D01*
X148343333Y-86502380D01*
X148248095Y-86454761D01*
X148200476Y-86407142D01*
X149295714Y-86502380D02*
X149486190Y-86502380D01*
X149581428Y-86454761D01*
X149629047Y-86407142D01*
X149724285Y-86264285D01*
X149771904Y-86073809D01*
X149771904Y-85692857D01*
X149724285Y-85597619D01*
X149676666Y-85550000D01*
X149581428Y-85502380D01*
X149390952Y-85502380D01*
X149295714Y-85550000D01*
X149248095Y-85597619D01*
X149200476Y-85692857D01*
X149200476Y-85930952D01*
X149248095Y-86026190D01*
X149295714Y-86073809D01*
X149390952Y-86121428D01*
X149581428Y-86121428D01*
X149676666Y-86073809D01*
X149724285Y-86026190D01*
X149771904Y-85930952D01*
%TO.C,R4*%
X185433333Y-111352380D02*
X185100000Y-110876190D01*
X184861904Y-111352380D02*
X184861904Y-110352380D01*
X185242857Y-110352380D01*
X185338095Y-110400000D01*
X185385714Y-110447619D01*
X185433333Y-110542857D01*
X185433333Y-110685714D01*
X185385714Y-110780952D01*
X185338095Y-110828571D01*
X185242857Y-110876190D01*
X184861904Y-110876190D01*
X186290476Y-110685714D02*
X186290476Y-111352380D01*
X186052380Y-110304761D02*
X185814285Y-111019047D01*
X186433333Y-111019047D01*
%TO.C,C10*%
X166657142Y-105587142D02*
X166609523Y-105634761D01*
X166466666Y-105682380D01*
X166371428Y-105682380D01*
X166228571Y-105634761D01*
X166133333Y-105539523D01*
X166085714Y-105444285D01*
X166038095Y-105253809D01*
X166038095Y-105110952D01*
X166085714Y-104920476D01*
X166133333Y-104825238D01*
X166228571Y-104730000D01*
X166371428Y-104682380D01*
X166466666Y-104682380D01*
X166609523Y-104730000D01*
X166657142Y-104777619D01*
X167609523Y-105682380D02*
X167038095Y-105682380D01*
X167323809Y-105682380D02*
X167323809Y-104682380D01*
X167228571Y-104825238D01*
X167133333Y-104920476D01*
X167038095Y-104968095D01*
X168228571Y-104682380D02*
X168323809Y-104682380D01*
X168419047Y-104730000D01*
X168466666Y-104777619D01*
X168514285Y-104872857D01*
X168561904Y-105063333D01*
X168561904Y-105301428D01*
X168514285Y-105491904D01*
X168466666Y-105587142D01*
X168419047Y-105634761D01*
X168323809Y-105682380D01*
X168228571Y-105682380D01*
X168133333Y-105634761D01*
X168085714Y-105587142D01*
X168038095Y-105491904D01*
X167990476Y-105301428D01*
X167990476Y-105063333D01*
X168038095Y-104872857D01*
X168085714Y-104777619D01*
X168133333Y-104730000D01*
X168228571Y-104682380D01*
%TO.C,U4*%
X195466176Y-124016314D02*
X195466176Y-124583501D01*
X195499540Y-124650229D01*
X195532904Y-124683593D01*
X195599632Y-124716957D01*
X195733088Y-124716957D01*
X195799816Y-124683593D01*
X195833180Y-124650229D01*
X195866544Y-124583501D01*
X195866544Y-124016314D01*
X196500459Y-124249862D02*
X196500459Y-124716957D01*
X196333639Y-123982950D02*
X196166819Y-124483409D01*
X196600551Y-124483409D01*
%TO.C,L3*%
X169833333Y-128697380D02*
X169357142Y-128697380D01*
X169357142Y-127697380D01*
X170071428Y-127697380D02*
X170690476Y-127697380D01*
X170357142Y-128078333D01*
X170500000Y-128078333D01*
X170595238Y-128125952D01*
X170642857Y-128173571D01*
X170690476Y-128268809D01*
X170690476Y-128506904D01*
X170642857Y-128602142D01*
X170595238Y-128649761D01*
X170500000Y-128697380D01*
X170214285Y-128697380D01*
X170119047Y-128649761D01*
X170071428Y-128602142D01*
%TO.C,C12*%
X175957142Y-102117857D02*
X176004761Y-102165476D01*
X176052380Y-102308333D01*
X176052380Y-102403571D01*
X176004761Y-102546428D01*
X175909523Y-102641666D01*
X175814285Y-102689285D01*
X175623809Y-102736904D01*
X175480952Y-102736904D01*
X175290476Y-102689285D01*
X175195238Y-102641666D01*
X175100000Y-102546428D01*
X175052380Y-102403571D01*
X175052380Y-102308333D01*
X175100000Y-102165476D01*
X175147619Y-102117857D01*
X176052380Y-101165476D02*
X176052380Y-101736904D01*
X176052380Y-101451190D02*
X175052380Y-101451190D01*
X175195238Y-101546428D01*
X175290476Y-101641666D01*
X175338095Y-101736904D01*
X175147619Y-100784523D02*
X175100000Y-100736904D01*
X175052380Y-100641666D01*
X175052380Y-100403571D01*
X175100000Y-100308333D01*
X175147619Y-100260714D01*
X175242857Y-100213095D01*
X175338095Y-100213095D01*
X175480952Y-100260714D01*
X176052380Y-100832142D01*
X176052380Y-100213095D01*
%TO.C,U6*%
X146638095Y-115317380D02*
X146638095Y-116126904D01*
X146685714Y-116222142D01*
X146733333Y-116269761D01*
X146828571Y-116317380D01*
X147019047Y-116317380D01*
X147114285Y-116269761D01*
X147161904Y-116222142D01*
X147209523Y-116126904D01*
X147209523Y-115317380D01*
X148114285Y-115317380D02*
X147923809Y-115317380D01*
X147828571Y-115365000D01*
X147780952Y-115412619D01*
X147685714Y-115555476D01*
X147638095Y-115745952D01*
X147638095Y-116126904D01*
X147685714Y-116222142D01*
X147733333Y-116269761D01*
X147828571Y-116317380D01*
X148019047Y-116317380D01*
X148114285Y-116269761D01*
X148161904Y-116222142D01*
X148209523Y-116126904D01*
X148209523Y-115888809D01*
X148161904Y-115793571D01*
X148114285Y-115745952D01*
X148019047Y-115698333D01*
X147828571Y-115698333D01*
X147733333Y-115745952D01*
X147685714Y-115793571D01*
X147638095Y-115888809D01*
%TO.C,C2*%
X182133333Y-93057142D02*
X182085714Y-93104761D01*
X181942857Y-93152380D01*
X181847619Y-93152380D01*
X181704761Y-93104761D01*
X181609523Y-93009523D01*
X181561904Y-92914285D01*
X181514285Y-92723809D01*
X181514285Y-92580952D01*
X181561904Y-92390476D01*
X181609523Y-92295238D01*
X181704761Y-92200000D01*
X181847619Y-92152380D01*
X181942857Y-92152380D01*
X182085714Y-92200000D01*
X182133333Y-92247619D01*
X182514285Y-92247619D02*
X182561904Y-92200000D01*
X182657142Y-92152380D01*
X182895238Y-92152380D01*
X182990476Y-92200000D01*
X183038095Y-92247619D01*
X183085714Y-92342857D01*
X183085714Y-92438095D01*
X183038095Y-92580952D01*
X182466666Y-93152380D01*
X183085714Y-93152380D01*
%TO.C,C40*%
X155792142Y-61177142D02*
X155744523Y-61224761D01*
X155601666Y-61272380D01*
X155506428Y-61272380D01*
X155363571Y-61224761D01*
X155268333Y-61129523D01*
X155220714Y-61034285D01*
X155173095Y-60843809D01*
X155173095Y-60700952D01*
X155220714Y-60510476D01*
X155268333Y-60415238D01*
X155363571Y-60320000D01*
X155506428Y-60272380D01*
X155601666Y-60272380D01*
X155744523Y-60320000D01*
X155792142Y-60367619D01*
X156649285Y-60605714D02*
X156649285Y-61272380D01*
X156411190Y-60224761D02*
X156173095Y-60939047D01*
X156792142Y-60939047D01*
X157363571Y-60272380D02*
X157458809Y-60272380D01*
X157554047Y-60320000D01*
X157601666Y-60367619D01*
X157649285Y-60462857D01*
X157696904Y-60653333D01*
X157696904Y-60891428D01*
X157649285Y-61081904D01*
X157601666Y-61177142D01*
X157554047Y-61224761D01*
X157458809Y-61272380D01*
X157363571Y-61272380D01*
X157268333Y-61224761D01*
X157220714Y-61177142D01*
X157173095Y-61081904D01*
X157125476Y-60891428D01*
X157125476Y-60653333D01*
X157173095Y-60462857D01*
X157220714Y-60367619D01*
X157268333Y-60320000D01*
X157363571Y-60272380D01*
%TO.C,R9*%
X177133333Y-121852380D02*
X176800000Y-121376190D01*
X176561904Y-121852380D02*
X176561904Y-120852380D01*
X176942857Y-120852380D01*
X177038095Y-120900000D01*
X177085714Y-120947619D01*
X177133333Y-121042857D01*
X177133333Y-121185714D01*
X177085714Y-121280952D01*
X177038095Y-121328571D01*
X176942857Y-121376190D01*
X176561904Y-121376190D01*
X177609523Y-121852380D02*
X177800000Y-121852380D01*
X177895238Y-121804761D01*
X177942857Y-121757142D01*
X178038095Y-121614285D01*
X178085714Y-121423809D01*
X178085714Y-121042857D01*
X178038095Y-120947619D01*
X177990476Y-120900000D01*
X177895238Y-120852380D01*
X177704761Y-120852380D01*
X177609523Y-120900000D01*
X177561904Y-120947619D01*
X177514285Y-121042857D01*
X177514285Y-121280952D01*
X177561904Y-121376190D01*
X177609523Y-121423809D01*
X177704761Y-121471428D01*
X177895238Y-121471428D01*
X177990476Y-121423809D01*
X178038095Y-121376190D01*
X178085714Y-121280952D01*
%TO.C,D4*%
X165461904Y-69752380D02*
X165461904Y-68752380D01*
X165700000Y-68752380D01*
X165842857Y-68800000D01*
X165938095Y-68895238D01*
X165985714Y-68990476D01*
X166033333Y-69180952D01*
X166033333Y-69323809D01*
X165985714Y-69514285D01*
X165938095Y-69609523D01*
X165842857Y-69704761D01*
X165700000Y-69752380D01*
X165461904Y-69752380D01*
X166890476Y-69085714D02*
X166890476Y-69752380D01*
X166652380Y-68704761D02*
X166414285Y-69419047D01*
X167033333Y-69419047D01*
%TO.C,C18*%
X177057142Y-119157142D02*
X177009523Y-119204761D01*
X176866666Y-119252380D01*
X176771428Y-119252380D01*
X176628571Y-119204761D01*
X176533333Y-119109523D01*
X176485714Y-119014285D01*
X176438095Y-118823809D01*
X176438095Y-118680952D01*
X176485714Y-118490476D01*
X176533333Y-118395238D01*
X176628571Y-118300000D01*
X176771428Y-118252380D01*
X176866666Y-118252380D01*
X177009523Y-118300000D01*
X177057142Y-118347619D01*
X178009523Y-119252380D02*
X177438095Y-119252380D01*
X177723809Y-119252380D02*
X177723809Y-118252380D01*
X177628571Y-118395238D01*
X177533333Y-118490476D01*
X177438095Y-118538095D01*
X178580952Y-118680952D02*
X178485714Y-118633333D01*
X178438095Y-118585714D01*
X178390476Y-118490476D01*
X178390476Y-118442857D01*
X178438095Y-118347619D01*
X178485714Y-118300000D01*
X178580952Y-118252380D01*
X178771428Y-118252380D01*
X178866666Y-118300000D01*
X178914285Y-118347619D01*
X178961904Y-118442857D01*
X178961904Y-118490476D01*
X178914285Y-118585714D01*
X178866666Y-118633333D01*
X178771428Y-118680952D01*
X178580952Y-118680952D01*
X178485714Y-118728571D01*
X178438095Y-118776190D01*
X178390476Y-118871428D01*
X178390476Y-119061904D01*
X178438095Y-119157142D01*
X178485714Y-119204761D01*
X178580952Y-119252380D01*
X178771428Y-119252380D01*
X178866666Y-119204761D01*
X178914285Y-119157142D01*
X178961904Y-119061904D01*
X178961904Y-118871428D01*
X178914285Y-118776190D01*
X178866666Y-118728571D01*
X178771428Y-118680952D01*
%TO.C,U7*%
X173238095Y-70452380D02*
X173238095Y-71261904D01*
X173285714Y-71357142D01*
X173333333Y-71404761D01*
X173428571Y-71452380D01*
X173619047Y-71452380D01*
X173714285Y-71404761D01*
X173761904Y-71357142D01*
X173809523Y-71261904D01*
X173809523Y-70452380D01*
X174190476Y-70452380D02*
X174857142Y-70452380D01*
X174428571Y-71452380D01*
%TO.C,C15*%
X178657142Y-129757142D02*
X178609523Y-129804761D01*
X178466666Y-129852380D01*
X178371428Y-129852380D01*
X178228571Y-129804761D01*
X178133333Y-129709523D01*
X178085714Y-129614285D01*
X178038095Y-129423809D01*
X178038095Y-129280952D01*
X178085714Y-129090476D01*
X178133333Y-128995238D01*
X178228571Y-128900000D01*
X178371428Y-128852380D01*
X178466666Y-128852380D01*
X178609523Y-128900000D01*
X178657142Y-128947619D01*
X179609523Y-129852380D02*
X179038095Y-129852380D01*
X179323809Y-129852380D02*
X179323809Y-128852380D01*
X179228571Y-128995238D01*
X179133333Y-129090476D01*
X179038095Y-129138095D01*
X180514285Y-128852380D02*
X180038095Y-128852380D01*
X179990476Y-129328571D01*
X180038095Y-129280952D01*
X180133333Y-129233333D01*
X180371428Y-129233333D01*
X180466666Y-129280952D01*
X180514285Y-129328571D01*
X180561904Y-129423809D01*
X180561904Y-129661904D01*
X180514285Y-129757142D01*
X180466666Y-129804761D01*
X180371428Y-129852380D01*
X180133333Y-129852380D01*
X180038095Y-129804761D01*
X179990476Y-129757142D01*
%TO.C,C26*%
X154282142Y-116427142D02*
X154234523Y-116474761D01*
X154091666Y-116522380D01*
X153996428Y-116522380D01*
X153853571Y-116474761D01*
X153758333Y-116379523D01*
X153710714Y-116284285D01*
X153663095Y-116093809D01*
X153663095Y-115950952D01*
X153710714Y-115760476D01*
X153758333Y-115665238D01*
X153853571Y-115570000D01*
X153996428Y-115522380D01*
X154091666Y-115522380D01*
X154234523Y-115570000D01*
X154282142Y-115617619D01*
X154663095Y-115617619D02*
X154710714Y-115570000D01*
X154805952Y-115522380D01*
X155044047Y-115522380D01*
X155139285Y-115570000D01*
X155186904Y-115617619D01*
X155234523Y-115712857D01*
X155234523Y-115808095D01*
X155186904Y-115950952D01*
X154615476Y-116522380D01*
X155234523Y-116522380D01*
X156091666Y-115522380D02*
X155901190Y-115522380D01*
X155805952Y-115570000D01*
X155758333Y-115617619D01*
X155663095Y-115760476D01*
X155615476Y-115950952D01*
X155615476Y-116331904D01*
X155663095Y-116427142D01*
X155710714Y-116474761D01*
X155805952Y-116522380D01*
X155996428Y-116522380D01*
X156091666Y-116474761D01*
X156139285Y-116427142D01*
X156186904Y-116331904D01*
X156186904Y-116093809D01*
X156139285Y-115998571D01*
X156091666Y-115950952D01*
X155996428Y-115903333D01*
X155805952Y-115903333D01*
X155710714Y-115950952D01*
X155663095Y-115998571D01*
X155615476Y-116093809D01*
%TO.C,C22*%
X163332142Y-131432142D02*
X163284523Y-131479761D01*
X163141666Y-131527380D01*
X163046428Y-131527380D01*
X162903571Y-131479761D01*
X162808333Y-131384523D01*
X162760714Y-131289285D01*
X162713095Y-131098809D01*
X162713095Y-130955952D01*
X162760714Y-130765476D01*
X162808333Y-130670238D01*
X162903571Y-130575000D01*
X163046428Y-130527380D01*
X163141666Y-130527380D01*
X163284523Y-130575000D01*
X163332142Y-130622619D01*
X163713095Y-130622619D02*
X163760714Y-130575000D01*
X163855952Y-130527380D01*
X164094047Y-130527380D01*
X164189285Y-130575000D01*
X164236904Y-130622619D01*
X164284523Y-130717857D01*
X164284523Y-130813095D01*
X164236904Y-130955952D01*
X163665476Y-131527380D01*
X164284523Y-131527380D01*
X164665476Y-130622619D02*
X164713095Y-130575000D01*
X164808333Y-130527380D01*
X165046428Y-130527380D01*
X165141666Y-130575000D01*
X165189285Y-130622619D01*
X165236904Y-130717857D01*
X165236904Y-130813095D01*
X165189285Y-130955952D01*
X164617857Y-131527380D01*
X165236904Y-131527380D01*
%TO.C,C31*%
X137857142Y-127257142D02*
X137809523Y-127304761D01*
X137666666Y-127352380D01*
X137571428Y-127352380D01*
X137428571Y-127304761D01*
X137333333Y-127209523D01*
X137285714Y-127114285D01*
X137238095Y-126923809D01*
X137238095Y-126780952D01*
X137285714Y-126590476D01*
X137333333Y-126495238D01*
X137428571Y-126400000D01*
X137571428Y-126352380D01*
X137666666Y-126352380D01*
X137809523Y-126400000D01*
X137857142Y-126447619D01*
X138190476Y-126352380D02*
X138809523Y-126352380D01*
X138476190Y-126733333D01*
X138619047Y-126733333D01*
X138714285Y-126780952D01*
X138761904Y-126828571D01*
X138809523Y-126923809D01*
X138809523Y-127161904D01*
X138761904Y-127257142D01*
X138714285Y-127304761D01*
X138619047Y-127352380D01*
X138333333Y-127352380D01*
X138238095Y-127304761D01*
X138190476Y-127257142D01*
X139761904Y-127352380D02*
X139190476Y-127352380D01*
X139476190Y-127352380D02*
X139476190Y-126352380D01*
X139380952Y-126495238D01*
X139285714Y-126590476D01*
X139190476Y-126638095D01*
%TO.C,C35*%
X195107142Y-99357142D02*
X195059523Y-99404761D01*
X194916666Y-99452380D01*
X194821428Y-99452380D01*
X194678571Y-99404761D01*
X194583333Y-99309523D01*
X194535714Y-99214285D01*
X194488095Y-99023809D01*
X194488095Y-98880952D01*
X194535714Y-98690476D01*
X194583333Y-98595238D01*
X194678571Y-98500000D01*
X194821428Y-98452380D01*
X194916666Y-98452380D01*
X195059523Y-98500000D01*
X195107142Y-98547619D01*
X195440476Y-98452380D02*
X196059523Y-98452380D01*
X195726190Y-98833333D01*
X195869047Y-98833333D01*
X195964285Y-98880952D01*
X196011904Y-98928571D01*
X196059523Y-99023809D01*
X196059523Y-99261904D01*
X196011904Y-99357142D01*
X195964285Y-99404761D01*
X195869047Y-99452380D01*
X195583333Y-99452380D01*
X195488095Y-99404761D01*
X195440476Y-99357142D01*
X196964285Y-98452380D02*
X196488095Y-98452380D01*
X196440476Y-98928571D01*
X196488095Y-98880952D01*
X196583333Y-98833333D01*
X196821428Y-98833333D01*
X196916666Y-98880952D01*
X196964285Y-98928571D01*
X197011904Y-99023809D01*
X197011904Y-99261904D01*
X196964285Y-99357142D01*
X196916666Y-99404761D01*
X196821428Y-99452380D01*
X196583333Y-99452380D01*
X196488095Y-99404761D01*
X196440476Y-99357142D01*
%TO.C,R19*%
X193732380Y-138367857D02*
X193256190Y-138701190D01*
X193732380Y-138939285D02*
X192732380Y-138939285D01*
X192732380Y-138558333D01*
X192780000Y-138463095D01*
X192827619Y-138415476D01*
X192922857Y-138367857D01*
X193065714Y-138367857D01*
X193160952Y-138415476D01*
X193208571Y-138463095D01*
X193256190Y-138558333D01*
X193256190Y-138939285D01*
X193732380Y-137415476D02*
X193732380Y-137986904D01*
X193732380Y-137701190D02*
X192732380Y-137701190D01*
X192875238Y-137796428D01*
X192970476Y-137891666D01*
X193018095Y-137986904D01*
X193732380Y-136939285D02*
X193732380Y-136748809D01*
X193684761Y-136653571D01*
X193637142Y-136605952D01*
X193494285Y-136510714D01*
X193303809Y-136463095D01*
X192922857Y-136463095D01*
X192827619Y-136510714D01*
X192780000Y-136558333D01*
X192732380Y-136653571D01*
X192732380Y-136844047D01*
X192780000Y-136939285D01*
X192827619Y-136986904D01*
X192922857Y-137034523D01*
X193160952Y-137034523D01*
X193256190Y-136986904D01*
X193303809Y-136939285D01*
X193351428Y-136844047D01*
X193351428Y-136653571D01*
X193303809Y-136558333D01*
X193256190Y-136510714D01*
X193160952Y-136463095D01*
%TO.C,R1*%
X193533333Y-103952380D02*
X193200000Y-103476190D01*
X192961904Y-103952380D02*
X192961904Y-102952380D01*
X193342857Y-102952380D01*
X193438095Y-103000000D01*
X193485714Y-103047619D01*
X193533333Y-103142857D01*
X193533333Y-103285714D01*
X193485714Y-103380952D01*
X193438095Y-103428571D01*
X193342857Y-103476190D01*
X192961904Y-103476190D01*
X194485714Y-103952380D02*
X193914285Y-103952380D01*
X194200000Y-103952380D02*
X194200000Y-102952380D01*
X194104761Y-103095238D01*
X194009523Y-103190476D01*
X193914285Y-103238095D01*
%TO.C,C36*%
X182507142Y-78842857D02*
X182554761Y-78890476D01*
X182602380Y-79033333D01*
X182602380Y-79128571D01*
X182554761Y-79271428D01*
X182459523Y-79366666D01*
X182364285Y-79414285D01*
X182173809Y-79461904D01*
X182030952Y-79461904D01*
X181840476Y-79414285D01*
X181745238Y-79366666D01*
X181650000Y-79271428D01*
X181602380Y-79128571D01*
X181602380Y-79033333D01*
X181650000Y-78890476D01*
X181697619Y-78842857D01*
X181602380Y-78509523D02*
X181602380Y-77890476D01*
X181983333Y-78223809D01*
X181983333Y-78080952D01*
X182030952Y-77985714D01*
X182078571Y-77938095D01*
X182173809Y-77890476D01*
X182411904Y-77890476D01*
X182507142Y-77938095D01*
X182554761Y-77985714D01*
X182602380Y-78080952D01*
X182602380Y-78366666D01*
X182554761Y-78461904D01*
X182507142Y-78509523D01*
X181602380Y-77033333D02*
X181602380Y-77223809D01*
X181650000Y-77319047D01*
X181697619Y-77366666D01*
X181840476Y-77461904D01*
X182030952Y-77509523D01*
X182411904Y-77509523D01*
X182507142Y-77461904D01*
X182554761Y-77414285D01*
X182602380Y-77319047D01*
X182602380Y-77128571D01*
X182554761Y-77033333D01*
X182507142Y-76985714D01*
X182411904Y-76938095D01*
X182173809Y-76938095D01*
X182078571Y-76985714D01*
X182030952Y-77033333D01*
X181983333Y-77128571D01*
X181983333Y-77319047D01*
X182030952Y-77414285D01*
X182078571Y-77461904D01*
X182173809Y-77509523D01*
%TO.C,C21*%
X169357142Y-132962142D02*
X169309523Y-133009761D01*
X169166666Y-133057380D01*
X169071428Y-133057380D01*
X168928571Y-133009761D01*
X168833333Y-132914523D01*
X168785714Y-132819285D01*
X168738095Y-132628809D01*
X168738095Y-132485952D01*
X168785714Y-132295476D01*
X168833333Y-132200238D01*
X168928571Y-132105000D01*
X169071428Y-132057380D01*
X169166666Y-132057380D01*
X169309523Y-132105000D01*
X169357142Y-132152619D01*
X169738095Y-132152619D02*
X169785714Y-132105000D01*
X169880952Y-132057380D01*
X170119047Y-132057380D01*
X170214285Y-132105000D01*
X170261904Y-132152619D01*
X170309523Y-132247857D01*
X170309523Y-132343095D01*
X170261904Y-132485952D01*
X169690476Y-133057380D01*
X170309523Y-133057380D01*
X171261904Y-133057380D02*
X170690476Y-133057380D01*
X170976190Y-133057380D02*
X170976190Y-132057380D01*
X170880952Y-132200238D01*
X170785714Y-132295476D01*
X170690476Y-132343095D01*
%TO.C,C28*%
X137757142Y-106257142D02*
X137709523Y-106304761D01*
X137566666Y-106352380D01*
X137471428Y-106352380D01*
X137328571Y-106304761D01*
X137233333Y-106209523D01*
X137185714Y-106114285D01*
X137138095Y-105923809D01*
X137138095Y-105780952D01*
X137185714Y-105590476D01*
X137233333Y-105495238D01*
X137328571Y-105400000D01*
X137471428Y-105352380D01*
X137566666Y-105352380D01*
X137709523Y-105400000D01*
X137757142Y-105447619D01*
X138138095Y-105447619D02*
X138185714Y-105400000D01*
X138280952Y-105352380D01*
X138519047Y-105352380D01*
X138614285Y-105400000D01*
X138661904Y-105447619D01*
X138709523Y-105542857D01*
X138709523Y-105638095D01*
X138661904Y-105780952D01*
X138090476Y-106352380D01*
X138709523Y-106352380D01*
X139280952Y-105780952D02*
X139185714Y-105733333D01*
X139138095Y-105685714D01*
X139090476Y-105590476D01*
X139090476Y-105542857D01*
X139138095Y-105447619D01*
X139185714Y-105400000D01*
X139280952Y-105352380D01*
X139471428Y-105352380D01*
X139566666Y-105400000D01*
X139614285Y-105447619D01*
X139661904Y-105542857D01*
X139661904Y-105590476D01*
X139614285Y-105685714D01*
X139566666Y-105733333D01*
X139471428Y-105780952D01*
X139280952Y-105780952D01*
X139185714Y-105828571D01*
X139138095Y-105876190D01*
X139090476Y-105971428D01*
X139090476Y-106161904D01*
X139138095Y-106257142D01*
X139185714Y-106304761D01*
X139280952Y-106352380D01*
X139471428Y-106352380D01*
X139566666Y-106304761D01*
X139614285Y-106257142D01*
X139661904Y-106161904D01*
X139661904Y-105971428D01*
X139614285Y-105876190D01*
X139566666Y-105828571D01*
X139471428Y-105780952D01*
%TO.C,L2*%
X173020833Y-133057380D02*
X172544642Y-133057380D01*
X172544642Y-132057380D01*
X173306547Y-132152619D02*
X173354166Y-132105000D01*
X173449404Y-132057380D01*
X173687500Y-132057380D01*
X173782738Y-132105000D01*
X173830357Y-132152619D01*
X173877976Y-132247857D01*
X173877976Y-132343095D01*
X173830357Y-132485952D01*
X173258928Y-133057380D01*
X173877976Y-133057380D01*
%TO.C,C30*%
X146527142Y-92357142D02*
X146479523Y-92404761D01*
X146336666Y-92452380D01*
X146241428Y-92452380D01*
X146098571Y-92404761D01*
X146003333Y-92309523D01*
X145955714Y-92214285D01*
X145908095Y-92023809D01*
X145908095Y-91880952D01*
X145955714Y-91690476D01*
X146003333Y-91595238D01*
X146098571Y-91500000D01*
X146241428Y-91452380D01*
X146336666Y-91452380D01*
X146479523Y-91500000D01*
X146527142Y-91547619D01*
X146860476Y-91452380D02*
X147479523Y-91452380D01*
X147146190Y-91833333D01*
X147289047Y-91833333D01*
X147384285Y-91880952D01*
X147431904Y-91928571D01*
X147479523Y-92023809D01*
X147479523Y-92261904D01*
X147431904Y-92357142D01*
X147384285Y-92404761D01*
X147289047Y-92452380D01*
X147003333Y-92452380D01*
X146908095Y-92404761D01*
X146860476Y-92357142D01*
X148098571Y-91452380D02*
X148193809Y-91452380D01*
X148289047Y-91500000D01*
X148336666Y-91547619D01*
X148384285Y-91642857D01*
X148431904Y-91833333D01*
X148431904Y-92071428D01*
X148384285Y-92261904D01*
X148336666Y-92357142D01*
X148289047Y-92404761D01*
X148193809Y-92452380D01*
X148098571Y-92452380D01*
X148003333Y-92404761D01*
X147955714Y-92357142D01*
X147908095Y-92261904D01*
X147860476Y-92071428D01*
X147860476Y-91833333D01*
X147908095Y-91642857D01*
X147955714Y-91547619D01*
X148003333Y-91500000D01*
X148098571Y-91452380D01*
%TO.C,R16*%
X139857142Y-115052380D02*
X139523809Y-114576190D01*
X139285714Y-115052380D02*
X139285714Y-114052380D01*
X139666666Y-114052380D01*
X139761904Y-114100000D01*
X139809523Y-114147619D01*
X139857142Y-114242857D01*
X139857142Y-114385714D01*
X139809523Y-114480952D01*
X139761904Y-114528571D01*
X139666666Y-114576190D01*
X139285714Y-114576190D01*
X140809523Y-115052380D02*
X140238095Y-115052380D01*
X140523809Y-115052380D02*
X140523809Y-114052380D01*
X140428571Y-114195238D01*
X140333333Y-114290476D01*
X140238095Y-114338095D01*
X141666666Y-114052380D02*
X141476190Y-114052380D01*
X141380952Y-114100000D01*
X141333333Y-114147619D01*
X141238095Y-114290476D01*
X141190476Y-114480952D01*
X141190476Y-114861904D01*
X141238095Y-114957142D01*
X141285714Y-115004761D01*
X141380952Y-115052380D01*
X141571428Y-115052380D01*
X141666666Y-115004761D01*
X141714285Y-114957142D01*
X141761904Y-114861904D01*
X141761904Y-114623809D01*
X141714285Y-114528571D01*
X141666666Y-114480952D01*
X141571428Y-114433333D01*
X141380952Y-114433333D01*
X141285714Y-114480952D01*
X141238095Y-114528571D01*
X141190476Y-114623809D01*
%TO.C,R22*%
X165872142Y-63742380D02*
X165538809Y-63266190D01*
X165300714Y-63742380D02*
X165300714Y-62742380D01*
X165681666Y-62742380D01*
X165776904Y-62790000D01*
X165824523Y-62837619D01*
X165872142Y-62932857D01*
X165872142Y-63075714D01*
X165824523Y-63170952D01*
X165776904Y-63218571D01*
X165681666Y-63266190D01*
X165300714Y-63266190D01*
X166253095Y-62837619D02*
X166300714Y-62790000D01*
X166395952Y-62742380D01*
X166634047Y-62742380D01*
X166729285Y-62790000D01*
X166776904Y-62837619D01*
X166824523Y-62932857D01*
X166824523Y-63028095D01*
X166776904Y-63170952D01*
X166205476Y-63742380D01*
X166824523Y-63742380D01*
X167205476Y-62837619D02*
X167253095Y-62790000D01*
X167348333Y-62742380D01*
X167586428Y-62742380D01*
X167681666Y-62790000D01*
X167729285Y-62837619D01*
X167776904Y-62932857D01*
X167776904Y-63028095D01*
X167729285Y-63170952D01*
X167157857Y-63742380D01*
X167776904Y-63742380D01*
%TO.C,C33*%
X154857142Y-112742857D02*
X154904761Y-112790476D01*
X154952380Y-112933333D01*
X154952380Y-113028571D01*
X154904761Y-113171428D01*
X154809523Y-113266666D01*
X154714285Y-113314285D01*
X154523809Y-113361904D01*
X154380952Y-113361904D01*
X154190476Y-113314285D01*
X154095238Y-113266666D01*
X154000000Y-113171428D01*
X153952380Y-113028571D01*
X153952380Y-112933333D01*
X154000000Y-112790476D01*
X154047619Y-112742857D01*
X153952380Y-112409523D02*
X153952380Y-111790476D01*
X154333333Y-112123809D01*
X154333333Y-111980952D01*
X154380952Y-111885714D01*
X154428571Y-111838095D01*
X154523809Y-111790476D01*
X154761904Y-111790476D01*
X154857142Y-111838095D01*
X154904761Y-111885714D01*
X154952380Y-111980952D01*
X154952380Y-112266666D01*
X154904761Y-112361904D01*
X154857142Y-112409523D01*
X153952380Y-111457142D02*
X153952380Y-110838095D01*
X154333333Y-111171428D01*
X154333333Y-111028571D01*
X154380952Y-110933333D01*
X154428571Y-110885714D01*
X154523809Y-110838095D01*
X154761904Y-110838095D01*
X154857142Y-110885714D01*
X154904761Y-110933333D01*
X154952380Y-111028571D01*
X154952380Y-111314285D01*
X154904761Y-111409523D01*
X154857142Y-111457142D01*
%TO.C,Q2*%
X191904761Y-77047619D02*
X191809523Y-77000000D01*
X191714285Y-76904761D01*
X191571428Y-76761904D01*
X191476190Y-76714285D01*
X191380952Y-76714285D01*
X191428571Y-76952380D02*
X191333333Y-76904761D01*
X191238095Y-76809523D01*
X191190476Y-76619047D01*
X191190476Y-76285714D01*
X191238095Y-76095238D01*
X191333333Y-76000000D01*
X191428571Y-75952380D01*
X191619047Y-75952380D01*
X191714285Y-76000000D01*
X191809523Y-76095238D01*
X191857142Y-76285714D01*
X191857142Y-76619047D01*
X191809523Y-76809523D01*
X191714285Y-76904761D01*
X191619047Y-76952380D01*
X191428571Y-76952380D01*
X192238095Y-76047619D02*
X192285714Y-76000000D01*
X192380952Y-75952380D01*
X192619047Y-75952380D01*
X192714285Y-76000000D01*
X192761904Y-76047619D01*
X192809523Y-76142857D01*
X192809523Y-76238095D01*
X192761904Y-76380952D01*
X192190476Y-76952380D01*
X192809523Y-76952380D01*
%TO.C,C24*%
X154102142Y-96227142D02*
X154054523Y-96274761D01*
X153911666Y-96322380D01*
X153816428Y-96322380D01*
X153673571Y-96274761D01*
X153578333Y-96179523D01*
X153530714Y-96084285D01*
X153483095Y-95893809D01*
X153483095Y-95750952D01*
X153530714Y-95560476D01*
X153578333Y-95465238D01*
X153673571Y-95370000D01*
X153816428Y-95322380D01*
X153911666Y-95322380D01*
X154054523Y-95370000D01*
X154102142Y-95417619D01*
X154483095Y-95417619D02*
X154530714Y-95370000D01*
X154625952Y-95322380D01*
X154864047Y-95322380D01*
X154959285Y-95370000D01*
X155006904Y-95417619D01*
X155054523Y-95512857D01*
X155054523Y-95608095D01*
X155006904Y-95750952D01*
X154435476Y-96322380D01*
X155054523Y-96322380D01*
X155911666Y-95655714D02*
X155911666Y-96322380D01*
X155673571Y-95274761D02*
X155435476Y-95989047D01*
X156054523Y-95989047D01*
%TO.C,RV5*%
X208552380Y-97395238D02*
X208076190Y-97728571D01*
X208552380Y-97966666D02*
X207552380Y-97966666D01*
X207552380Y-97585714D01*
X207600000Y-97490476D01*
X207647619Y-97442857D01*
X207742857Y-97395238D01*
X207885714Y-97395238D01*
X207980952Y-97442857D01*
X208028571Y-97490476D01*
X208076190Y-97585714D01*
X208076190Y-97966666D01*
X207552380Y-97109523D02*
X208552380Y-96776190D01*
X207552380Y-96442857D01*
X207552380Y-95633333D02*
X207552380Y-96109523D01*
X208028571Y-96157142D01*
X207980952Y-96109523D01*
X207933333Y-96014285D01*
X207933333Y-95776190D01*
X207980952Y-95680952D01*
X208028571Y-95633333D01*
X208123809Y-95585714D01*
X208361904Y-95585714D01*
X208457142Y-95633333D01*
X208504761Y-95680952D01*
X208552380Y-95776190D01*
X208552380Y-96014285D01*
X208504761Y-96109523D01*
X208457142Y-96157142D01*
%TO.C,C3*%
X188533333Y-107657142D02*
X188485714Y-107704761D01*
X188342857Y-107752380D01*
X188247619Y-107752380D01*
X188104761Y-107704761D01*
X188009523Y-107609523D01*
X187961904Y-107514285D01*
X187914285Y-107323809D01*
X187914285Y-107180952D01*
X187961904Y-106990476D01*
X188009523Y-106895238D01*
X188104761Y-106800000D01*
X188247619Y-106752380D01*
X188342857Y-106752380D01*
X188485714Y-106800000D01*
X188533333Y-106847619D01*
X188866666Y-106752380D02*
X189485714Y-106752380D01*
X189152380Y-107133333D01*
X189295238Y-107133333D01*
X189390476Y-107180952D01*
X189438095Y-107228571D01*
X189485714Y-107323809D01*
X189485714Y-107561904D01*
X189438095Y-107657142D01*
X189390476Y-107704761D01*
X189295238Y-107752380D01*
X189009523Y-107752380D01*
X188914285Y-107704761D01*
X188866666Y-107657142D01*
%TO.C,RV2*%
X155579761Y-127852380D02*
X155246428Y-127376190D01*
X155008333Y-127852380D02*
X155008333Y-126852380D01*
X155389285Y-126852380D01*
X155484523Y-126900000D01*
X155532142Y-126947619D01*
X155579761Y-127042857D01*
X155579761Y-127185714D01*
X155532142Y-127280952D01*
X155484523Y-127328571D01*
X155389285Y-127376190D01*
X155008333Y-127376190D01*
X155865476Y-126852380D02*
X156198809Y-127852380D01*
X156532142Y-126852380D01*
X156817857Y-126947619D02*
X156865476Y-126900000D01*
X156960714Y-126852380D01*
X157198809Y-126852380D01*
X157294047Y-126900000D01*
X157341666Y-126947619D01*
X157389285Y-127042857D01*
X157389285Y-127138095D01*
X157341666Y-127280952D01*
X156770238Y-127852380D01*
X157389285Y-127852380D01*
%TO.C,C4*%
X192858333Y-107457142D02*
X192810714Y-107504761D01*
X192667857Y-107552380D01*
X192572619Y-107552380D01*
X192429761Y-107504761D01*
X192334523Y-107409523D01*
X192286904Y-107314285D01*
X192239285Y-107123809D01*
X192239285Y-106980952D01*
X192286904Y-106790476D01*
X192334523Y-106695238D01*
X192429761Y-106600000D01*
X192572619Y-106552380D01*
X192667857Y-106552380D01*
X192810714Y-106600000D01*
X192858333Y-106647619D01*
X193715476Y-106885714D02*
X193715476Y-107552380D01*
X193477380Y-106504761D02*
X193239285Y-107219047D01*
X193858333Y-107219047D01*
%TO.C,BZ1*%
X159819047Y-92228571D02*
X159961904Y-92276190D01*
X160009523Y-92323809D01*
X160057142Y-92419047D01*
X160057142Y-92561904D01*
X160009523Y-92657142D01*
X159961904Y-92704761D01*
X159866666Y-92752380D01*
X159485714Y-92752380D01*
X159485714Y-91752380D01*
X159819047Y-91752380D01*
X159914285Y-91800000D01*
X159961904Y-91847619D01*
X160009523Y-91942857D01*
X160009523Y-92038095D01*
X159961904Y-92133333D01*
X159914285Y-92180952D01*
X159819047Y-92228571D01*
X159485714Y-92228571D01*
X160390476Y-91752380D02*
X161057142Y-91752380D01*
X160390476Y-92752380D01*
X161057142Y-92752380D01*
X161961904Y-92752380D02*
X161390476Y-92752380D01*
X161676190Y-92752380D02*
X161676190Y-91752380D01*
X161580952Y-91895238D01*
X161485714Y-91990476D01*
X161390476Y-92038095D01*
X158231428Y-89290952D02*
X158231428Y-88529047D01*
X158612380Y-88910000D02*
X157850476Y-88910000D01*
%TO.C,R8*%
X162233333Y-124352380D02*
X161900000Y-123876190D01*
X161661904Y-124352380D02*
X161661904Y-123352380D01*
X162042857Y-123352380D01*
X162138095Y-123400000D01*
X162185714Y-123447619D01*
X162233333Y-123542857D01*
X162233333Y-123685714D01*
X162185714Y-123780952D01*
X162138095Y-123828571D01*
X162042857Y-123876190D01*
X161661904Y-123876190D01*
X162804761Y-123780952D02*
X162709523Y-123733333D01*
X162661904Y-123685714D01*
X162614285Y-123590476D01*
X162614285Y-123542857D01*
X162661904Y-123447619D01*
X162709523Y-123400000D01*
X162804761Y-123352380D01*
X162995238Y-123352380D01*
X163090476Y-123400000D01*
X163138095Y-123447619D01*
X163185714Y-123542857D01*
X163185714Y-123590476D01*
X163138095Y-123685714D01*
X163090476Y-123733333D01*
X162995238Y-123780952D01*
X162804761Y-123780952D01*
X162709523Y-123828571D01*
X162661904Y-123876190D01*
X162614285Y-123971428D01*
X162614285Y-124161904D01*
X162661904Y-124257142D01*
X162709523Y-124304761D01*
X162804761Y-124352380D01*
X162995238Y-124352380D01*
X163090476Y-124304761D01*
X163138095Y-124257142D01*
X163185714Y-124161904D01*
X163185714Y-123971428D01*
X163138095Y-123876190D01*
X163090476Y-123828571D01*
X162995238Y-123780952D01*
%TO.C,J1*%
X190536666Y-65102380D02*
X190536666Y-65816666D01*
X190489047Y-65959523D01*
X190393809Y-66054761D01*
X190250952Y-66102380D01*
X190155714Y-66102380D01*
X191536666Y-66102380D02*
X190965238Y-66102380D01*
X191250952Y-66102380D02*
X191250952Y-65102380D01*
X191155714Y-65245238D01*
X191060476Y-65340476D01*
X190965238Y-65388095D01*
%TO.C,R18*%
X190757380Y-138367857D02*
X190281190Y-138701190D01*
X190757380Y-138939285D02*
X189757380Y-138939285D01*
X189757380Y-138558333D01*
X189805000Y-138463095D01*
X189852619Y-138415476D01*
X189947857Y-138367857D01*
X190090714Y-138367857D01*
X190185952Y-138415476D01*
X190233571Y-138463095D01*
X190281190Y-138558333D01*
X190281190Y-138939285D01*
X190757380Y-137415476D02*
X190757380Y-137986904D01*
X190757380Y-137701190D02*
X189757380Y-137701190D01*
X189900238Y-137796428D01*
X189995476Y-137891666D01*
X190043095Y-137986904D01*
X190185952Y-136844047D02*
X190138333Y-136939285D01*
X190090714Y-136986904D01*
X189995476Y-137034523D01*
X189947857Y-137034523D01*
X189852619Y-136986904D01*
X189805000Y-136939285D01*
X189757380Y-136844047D01*
X189757380Y-136653571D01*
X189805000Y-136558333D01*
X189852619Y-136510714D01*
X189947857Y-136463095D01*
X189995476Y-136463095D01*
X190090714Y-136510714D01*
X190138333Y-136558333D01*
X190185952Y-136653571D01*
X190185952Y-136844047D01*
X190233571Y-136939285D01*
X190281190Y-136986904D01*
X190376428Y-137034523D01*
X190566904Y-137034523D01*
X190662142Y-136986904D01*
X190709761Y-136939285D01*
X190757380Y-136844047D01*
X190757380Y-136653571D01*
X190709761Y-136558333D01*
X190662142Y-136510714D01*
X190566904Y-136463095D01*
X190376428Y-136463095D01*
X190281190Y-136510714D01*
X190233571Y-136558333D01*
X190185952Y-136653571D01*
%TO.C,C42*%
X165827142Y-61237142D02*
X165779523Y-61284761D01*
X165636666Y-61332380D01*
X165541428Y-61332380D01*
X165398571Y-61284761D01*
X165303333Y-61189523D01*
X165255714Y-61094285D01*
X165208095Y-60903809D01*
X165208095Y-60760952D01*
X165255714Y-60570476D01*
X165303333Y-60475238D01*
X165398571Y-60380000D01*
X165541428Y-60332380D01*
X165636666Y-60332380D01*
X165779523Y-60380000D01*
X165827142Y-60427619D01*
X166684285Y-60665714D02*
X166684285Y-61332380D01*
X166446190Y-60284761D02*
X166208095Y-60999047D01*
X166827142Y-60999047D01*
X167160476Y-60427619D02*
X167208095Y-60380000D01*
X167303333Y-60332380D01*
X167541428Y-60332380D01*
X167636666Y-60380000D01*
X167684285Y-60427619D01*
X167731904Y-60522857D01*
X167731904Y-60618095D01*
X167684285Y-60760952D01*
X167112857Y-61332380D01*
X167731904Y-61332380D01*
%TO.C,C25*%
X138157142Y-97942857D02*
X138204761Y-97990476D01*
X138252380Y-98133333D01*
X138252380Y-98228571D01*
X138204761Y-98371428D01*
X138109523Y-98466666D01*
X138014285Y-98514285D01*
X137823809Y-98561904D01*
X137680952Y-98561904D01*
X137490476Y-98514285D01*
X137395238Y-98466666D01*
X137300000Y-98371428D01*
X137252380Y-98228571D01*
X137252380Y-98133333D01*
X137300000Y-97990476D01*
X137347619Y-97942857D01*
X137347619Y-97561904D02*
X137300000Y-97514285D01*
X137252380Y-97419047D01*
X137252380Y-97180952D01*
X137300000Y-97085714D01*
X137347619Y-97038095D01*
X137442857Y-96990476D01*
X137538095Y-96990476D01*
X137680952Y-97038095D01*
X138252380Y-97609523D01*
X138252380Y-96990476D01*
X137252380Y-96085714D02*
X137252380Y-96561904D01*
X137728571Y-96609523D01*
X137680952Y-96561904D01*
X137633333Y-96466666D01*
X137633333Y-96228571D01*
X137680952Y-96133333D01*
X137728571Y-96085714D01*
X137823809Y-96038095D01*
X138061904Y-96038095D01*
X138157142Y-96085714D01*
X138204761Y-96133333D01*
X138252380Y-96228571D01*
X138252380Y-96466666D01*
X138204761Y-96561904D01*
X138157142Y-96609523D01*
%TO.C,C19*%
X163332142Y-128432142D02*
X163284523Y-128479761D01*
X163141666Y-128527380D01*
X163046428Y-128527380D01*
X162903571Y-128479761D01*
X162808333Y-128384523D01*
X162760714Y-128289285D01*
X162713095Y-128098809D01*
X162713095Y-127955952D01*
X162760714Y-127765476D01*
X162808333Y-127670238D01*
X162903571Y-127575000D01*
X163046428Y-127527380D01*
X163141666Y-127527380D01*
X163284523Y-127575000D01*
X163332142Y-127622619D01*
X164284523Y-128527380D02*
X163713095Y-128527380D01*
X163998809Y-128527380D02*
X163998809Y-127527380D01*
X163903571Y-127670238D01*
X163808333Y-127765476D01*
X163713095Y-127813095D01*
X164760714Y-128527380D02*
X164951190Y-128527380D01*
X165046428Y-128479761D01*
X165094047Y-128432142D01*
X165189285Y-128289285D01*
X165236904Y-128098809D01*
X165236904Y-127717857D01*
X165189285Y-127622619D01*
X165141666Y-127575000D01*
X165046428Y-127527380D01*
X164855952Y-127527380D01*
X164760714Y-127575000D01*
X164713095Y-127622619D01*
X164665476Y-127717857D01*
X164665476Y-127955952D01*
X164713095Y-128051190D01*
X164760714Y-128098809D01*
X164855952Y-128146428D01*
X165046428Y-128146428D01*
X165141666Y-128098809D01*
X165189285Y-128051190D01*
X165236904Y-127955952D01*
%TO.C,R3*%
X169508333Y-88632380D02*
X169175000Y-88156190D01*
X168936904Y-88632380D02*
X168936904Y-87632380D01*
X169317857Y-87632380D01*
X169413095Y-87680000D01*
X169460714Y-87727619D01*
X169508333Y-87822857D01*
X169508333Y-87965714D01*
X169460714Y-88060952D01*
X169413095Y-88108571D01*
X169317857Y-88156190D01*
X168936904Y-88156190D01*
X169841666Y-87632380D02*
X170460714Y-87632380D01*
X170127380Y-88013333D01*
X170270238Y-88013333D01*
X170365476Y-88060952D01*
X170413095Y-88108571D01*
X170460714Y-88203809D01*
X170460714Y-88441904D01*
X170413095Y-88537142D01*
X170365476Y-88584761D01*
X170270238Y-88632380D01*
X169984523Y-88632380D01*
X169889285Y-88584761D01*
X169841666Y-88537142D01*
%TO.C,C23*%
X184382142Y-115227142D02*
X184334523Y-115274761D01*
X184191666Y-115322380D01*
X184096428Y-115322380D01*
X183953571Y-115274761D01*
X183858333Y-115179523D01*
X183810714Y-115084285D01*
X183763095Y-114893809D01*
X183763095Y-114750952D01*
X183810714Y-114560476D01*
X183858333Y-114465238D01*
X183953571Y-114370000D01*
X184096428Y-114322380D01*
X184191666Y-114322380D01*
X184334523Y-114370000D01*
X184382142Y-114417619D01*
X184763095Y-114417619D02*
X184810714Y-114370000D01*
X184905952Y-114322380D01*
X185144047Y-114322380D01*
X185239285Y-114370000D01*
X185286904Y-114417619D01*
X185334523Y-114512857D01*
X185334523Y-114608095D01*
X185286904Y-114750952D01*
X184715476Y-115322380D01*
X185334523Y-115322380D01*
X185667857Y-114322380D02*
X186286904Y-114322380D01*
X185953571Y-114703333D01*
X186096428Y-114703333D01*
X186191666Y-114750952D01*
X186239285Y-114798571D01*
X186286904Y-114893809D01*
X186286904Y-115131904D01*
X186239285Y-115227142D01*
X186191666Y-115274761D01*
X186096428Y-115322380D01*
X185810714Y-115322380D01*
X185715476Y-115274761D01*
X185667857Y-115227142D01*
%TO.C,R17*%
X135557142Y-131352380D02*
X135223809Y-130876190D01*
X134985714Y-131352380D02*
X134985714Y-130352380D01*
X135366666Y-130352380D01*
X135461904Y-130400000D01*
X135509523Y-130447619D01*
X135557142Y-130542857D01*
X135557142Y-130685714D01*
X135509523Y-130780952D01*
X135461904Y-130828571D01*
X135366666Y-130876190D01*
X134985714Y-130876190D01*
X136509523Y-131352380D02*
X135938095Y-131352380D01*
X136223809Y-131352380D02*
X136223809Y-130352380D01*
X136128571Y-130495238D01*
X136033333Y-130590476D01*
X135938095Y-130638095D01*
X136842857Y-130352380D02*
X137509523Y-130352380D01*
X137080952Y-131352380D01*
%TO.C,R6*%
X177133333Y-97852380D02*
X176800000Y-97376190D01*
X176561904Y-97852380D02*
X176561904Y-96852380D01*
X176942857Y-96852380D01*
X177038095Y-96900000D01*
X177085714Y-96947619D01*
X177133333Y-97042857D01*
X177133333Y-97185714D01*
X177085714Y-97280952D01*
X177038095Y-97328571D01*
X176942857Y-97376190D01*
X176561904Y-97376190D01*
X177990476Y-96852380D02*
X177800000Y-96852380D01*
X177704761Y-96900000D01*
X177657142Y-96947619D01*
X177561904Y-97090476D01*
X177514285Y-97280952D01*
X177514285Y-97661904D01*
X177561904Y-97757142D01*
X177609523Y-97804761D01*
X177704761Y-97852380D01*
X177895238Y-97852380D01*
X177990476Y-97804761D01*
X178038095Y-97757142D01*
X178085714Y-97661904D01*
X178085714Y-97423809D01*
X178038095Y-97328571D01*
X177990476Y-97280952D01*
X177895238Y-97233333D01*
X177704761Y-97233333D01*
X177609523Y-97280952D01*
X177561904Y-97328571D01*
X177514285Y-97423809D01*
%TO.C,L5*%
X157833333Y-78542380D02*
X157357142Y-78542380D01*
X157357142Y-77542380D01*
X158642857Y-77542380D02*
X158166666Y-77542380D01*
X158119047Y-78018571D01*
X158166666Y-77970952D01*
X158261904Y-77923333D01*
X158500000Y-77923333D01*
X158595238Y-77970952D01*
X158642857Y-78018571D01*
X158690476Y-78113809D01*
X158690476Y-78351904D01*
X158642857Y-78447142D01*
X158595238Y-78494761D01*
X158500000Y-78542380D01*
X158261904Y-78542380D01*
X158166666Y-78494761D01*
X158119047Y-78447142D01*
%TO.C,C37*%
X180857142Y-78832857D02*
X180904761Y-78880476D01*
X180952380Y-79023333D01*
X180952380Y-79118571D01*
X180904761Y-79261428D01*
X180809523Y-79356666D01*
X180714285Y-79404285D01*
X180523809Y-79451904D01*
X180380952Y-79451904D01*
X180190476Y-79404285D01*
X180095238Y-79356666D01*
X180000000Y-79261428D01*
X179952380Y-79118571D01*
X179952380Y-79023333D01*
X180000000Y-78880476D01*
X180047619Y-78832857D01*
X179952380Y-78499523D02*
X179952380Y-77880476D01*
X180333333Y-78213809D01*
X180333333Y-78070952D01*
X180380952Y-77975714D01*
X180428571Y-77928095D01*
X180523809Y-77880476D01*
X180761904Y-77880476D01*
X180857142Y-77928095D01*
X180904761Y-77975714D01*
X180952380Y-78070952D01*
X180952380Y-78356666D01*
X180904761Y-78451904D01*
X180857142Y-78499523D01*
X179952380Y-77547142D02*
X179952380Y-76880476D01*
X180952380Y-77309047D01*
%TO.C,RV4*%
X208652380Y-104795238D02*
X208176190Y-105128571D01*
X208652380Y-105366666D02*
X207652380Y-105366666D01*
X207652380Y-104985714D01*
X207700000Y-104890476D01*
X207747619Y-104842857D01*
X207842857Y-104795238D01*
X207985714Y-104795238D01*
X208080952Y-104842857D01*
X208128571Y-104890476D01*
X208176190Y-104985714D01*
X208176190Y-105366666D01*
X207652380Y-104509523D02*
X208652380Y-104176190D01*
X207652380Y-103842857D01*
X207985714Y-103080952D02*
X208652380Y-103080952D01*
X207604761Y-103319047D02*
X208319047Y-103557142D01*
X208319047Y-102938095D01*
%TO.C,Y1*%
X200023809Y-101876190D02*
X200023809Y-102352380D01*
X199690476Y-101352380D02*
X200023809Y-101876190D01*
X200357142Y-101352380D01*
X201214285Y-102352380D02*
X200642857Y-102352380D01*
X200928571Y-102352380D02*
X200928571Y-101352380D01*
X200833333Y-101495238D01*
X200738095Y-101590476D01*
X200642857Y-101638095D01*
%TO.C,Y2*%
X169023809Y-122976190D02*
X169023809Y-123452380D01*
X168690476Y-122452380D02*
X169023809Y-122976190D01*
X169357142Y-122452380D01*
X169642857Y-122547619D02*
X169690476Y-122500000D01*
X169785714Y-122452380D01*
X170023809Y-122452380D01*
X170119047Y-122500000D01*
X170166666Y-122547619D01*
X170214285Y-122642857D01*
X170214285Y-122738095D01*
X170166666Y-122880952D01*
X169595238Y-123452380D01*
X170214285Y-123452380D01*
%TO.C,Q1*%
X169954761Y-82197619D02*
X169859523Y-82150000D01*
X169764285Y-82054761D01*
X169621428Y-81911904D01*
X169526190Y-81864285D01*
X169430952Y-81864285D01*
X169478571Y-82102380D02*
X169383333Y-82054761D01*
X169288095Y-81959523D01*
X169240476Y-81769047D01*
X169240476Y-81435714D01*
X169288095Y-81245238D01*
X169383333Y-81150000D01*
X169478571Y-81102380D01*
X169669047Y-81102380D01*
X169764285Y-81150000D01*
X169859523Y-81245238D01*
X169907142Y-81435714D01*
X169907142Y-81769047D01*
X169859523Y-81959523D01*
X169764285Y-82054761D01*
X169669047Y-82102380D01*
X169478571Y-82102380D01*
X170859523Y-82102380D02*
X170288095Y-82102380D01*
X170573809Y-82102380D02*
X170573809Y-81102380D01*
X170478571Y-81245238D01*
X170383333Y-81340476D01*
X170288095Y-81388095D01*
%TO.C,C8*%
X194933333Y-111257142D02*
X194885714Y-111304761D01*
X194742857Y-111352380D01*
X194647619Y-111352380D01*
X194504761Y-111304761D01*
X194409523Y-111209523D01*
X194361904Y-111114285D01*
X194314285Y-110923809D01*
X194314285Y-110780952D01*
X194361904Y-110590476D01*
X194409523Y-110495238D01*
X194504761Y-110400000D01*
X194647619Y-110352380D01*
X194742857Y-110352380D01*
X194885714Y-110400000D01*
X194933333Y-110447619D01*
X195504761Y-110780952D02*
X195409523Y-110733333D01*
X195361904Y-110685714D01*
X195314285Y-110590476D01*
X195314285Y-110542857D01*
X195361904Y-110447619D01*
X195409523Y-110400000D01*
X195504761Y-110352380D01*
X195695238Y-110352380D01*
X195790476Y-110400000D01*
X195838095Y-110447619D01*
X195885714Y-110542857D01*
X195885714Y-110590476D01*
X195838095Y-110685714D01*
X195790476Y-110733333D01*
X195695238Y-110780952D01*
X195504761Y-110780952D01*
X195409523Y-110828571D01*
X195361904Y-110876190D01*
X195314285Y-110971428D01*
X195314285Y-111161904D01*
X195361904Y-111257142D01*
X195409523Y-111304761D01*
X195504761Y-111352380D01*
X195695238Y-111352380D01*
X195790476Y-111304761D01*
X195838095Y-111257142D01*
X195885714Y-111161904D01*
X195885714Y-110971428D01*
X195838095Y-110876190D01*
X195790476Y-110828571D01*
X195695238Y-110780952D01*
%TO.C,U5*%
X146565595Y-95117380D02*
X146565595Y-95926904D01*
X146613214Y-96022142D01*
X146660833Y-96069761D01*
X146756071Y-96117380D01*
X146946547Y-96117380D01*
X147041785Y-96069761D01*
X147089404Y-96022142D01*
X147137023Y-95926904D01*
X147137023Y-95117380D01*
X148089404Y-95117380D02*
X147613214Y-95117380D01*
X147565595Y-95593571D01*
X147613214Y-95545952D01*
X147708452Y-95498333D01*
X147946547Y-95498333D01*
X148041785Y-95545952D01*
X148089404Y-95593571D01*
X148137023Y-95688809D01*
X148137023Y-95926904D01*
X148089404Y-96022142D01*
X148041785Y-96069761D01*
X147946547Y-96117380D01*
X147708452Y-96117380D01*
X147613214Y-96069761D01*
X147565595Y-96022142D01*
%TO.C,U3*%
X174338095Y-120652380D02*
X174338095Y-121461904D01*
X174385714Y-121557142D01*
X174433333Y-121604761D01*
X174528571Y-121652380D01*
X174719047Y-121652380D01*
X174814285Y-121604761D01*
X174861904Y-121557142D01*
X174909523Y-121461904D01*
X174909523Y-120652380D01*
X175290476Y-120652380D02*
X175909523Y-120652380D01*
X175576190Y-121033333D01*
X175719047Y-121033333D01*
X175814285Y-121080952D01*
X175861904Y-121128571D01*
X175909523Y-121223809D01*
X175909523Y-121461904D01*
X175861904Y-121557142D01*
X175814285Y-121604761D01*
X175719047Y-121652380D01*
X175433333Y-121652380D01*
X175338095Y-121604761D01*
X175290476Y-121557142D01*
%TO.C,RV1*%
X155574761Y-108352380D02*
X155241428Y-107876190D01*
X155003333Y-108352380D02*
X155003333Y-107352380D01*
X155384285Y-107352380D01*
X155479523Y-107400000D01*
X155527142Y-107447619D01*
X155574761Y-107542857D01*
X155574761Y-107685714D01*
X155527142Y-107780952D01*
X155479523Y-107828571D01*
X155384285Y-107876190D01*
X155003333Y-107876190D01*
X155860476Y-107352380D02*
X156193809Y-108352380D01*
X156527142Y-107352380D01*
X157384285Y-108352380D02*
X156812857Y-108352380D01*
X157098571Y-108352380D02*
X157098571Y-107352380D01*
X157003333Y-107495238D01*
X156908095Y-107590476D01*
X156812857Y-107638095D01*
%TO.C,C11*%
X165127142Y-101717857D02*
X165174761Y-101765476D01*
X165222380Y-101908333D01*
X165222380Y-102003571D01*
X165174761Y-102146428D01*
X165079523Y-102241666D01*
X164984285Y-102289285D01*
X164793809Y-102336904D01*
X164650952Y-102336904D01*
X164460476Y-102289285D01*
X164365238Y-102241666D01*
X164270000Y-102146428D01*
X164222380Y-102003571D01*
X164222380Y-101908333D01*
X164270000Y-101765476D01*
X164317619Y-101717857D01*
X165222380Y-100765476D02*
X165222380Y-101336904D01*
X165222380Y-101051190D02*
X164222380Y-101051190D01*
X164365238Y-101146428D01*
X164460476Y-101241666D01*
X164508095Y-101336904D01*
X165222380Y-99813095D02*
X165222380Y-100384523D01*
X165222380Y-100098809D02*
X164222380Y-100098809D01*
X164365238Y-100194047D01*
X164460476Y-100289285D01*
X164508095Y-100384523D01*
%TO.C,R12*%
X136952380Y-109842857D02*
X136476190Y-110176190D01*
X136952380Y-110414285D02*
X135952380Y-110414285D01*
X135952380Y-110033333D01*
X136000000Y-109938095D01*
X136047619Y-109890476D01*
X136142857Y-109842857D01*
X136285714Y-109842857D01*
X136380952Y-109890476D01*
X136428571Y-109938095D01*
X136476190Y-110033333D01*
X136476190Y-110414285D01*
X136952380Y-108890476D02*
X136952380Y-109461904D01*
X136952380Y-109176190D02*
X135952380Y-109176190D01*
X136095238Y-109271428D01*
X136190476Y-109366666D01*
X136238095Y-109461904D01*
X136047619Y-108509523D02*
X136000000Y-108461904D01*
X135952380Y-108366666D01*
X135952380Y-108128571D01*
X136000000Y-108033333D01*
X136047619Y-107985714D01*
X136142857Y-107938095D01*
X136238095Y-107938095D01*
X136380952Y-107985714D01*
X136952380Y-108557142D01*
X136952380Y-107938095D01*
%TO.C,C7*%
X195133333Y-100857142D02*
X195085714Y-100904761D01*
X194942857Y-100952380D01*
X194847619Y-100952380D01*
X194704761Y-100904761D01*
X194609523Y-100809523D01*
X194561904Y-100714285D01*
X194514285Y-100523809D01*
X194514285Y-100380952D01*
X194561904Y-100190476D01*
X194609523Y-100095238D01*
X194704761Y-100000000D01*
X194847619Y-99952380D01*
X194942857Y-99952380D01*
X195085714Y-100000000D01*
X195133333Y-100047619D01*
X195466666Y-99952380D02*
X196133333Y-99952380D01*
X195704761Y-100952380D01*
%TO.C,C17*%
X163357142Y-126257142D02*
X163309523Y-126304761D01*
X163166666Y-126352380D01*
X163071428Y-126352380D01*
X162928571Y-126304761D01*
X162833333Y-126209523D01*
X162785714Y-126114285D01*
X162738095Y-125923809D01*
X162738095Y-125780952D01*
X162785714Y-125590476D01*
X162833333Y-125495238D01*
X162928571Y-125400000D01*
X163071428Y-125352380D01*
X163166666Y-125352380D01*
X163309523Y-125400000D01*
X163357142Y-125447619D01*
X164309523Y-126352380D02*
X163738095Y-126352380D01*
X164023809Y-126352380D02*
X164023809Y-125352380D01*
X163928571Y-125495238D01*
X163833333Y-125590476D01*
X163738095Y-125638095D01*
X164642857Y-125352380D02*
X165309523Y-125352380D01*
X164880952Y-126352380D01*
%TO.C,C29*%
X139757142Y-100587142D02*
X139709523Y-100634761D01*
X139566666Y-100682380D01*
X139471428Y-100682380D01*
X139328571Y-100634761D01*
X139233333Y-100539523D01*
X139185714Y-100444285D01*
X139138095Y-100253809D01*
X139138095Y-100110952D01*
X139185714Y-99920476D01*
X139233333Y-99825238D01*
X139328571Y-99730000D01*
X139471428Y-99682380D01*
X139566666Y-99682380D01*
X139709523Y-99730000D01*
X139757142Y-99777619D01*
X140138095Y-99777619D02*
X140185714Y-99730000D01*
X140280952Y-99682380D01*
X140519047Y-99682380D01*
X140614285Y-99730000D01*
X140661904Y-99777619D01*
X140709523Y-99872857D01*
X140709523Y-99968095D01*
X140661904Y-100110952D01*
X140090476Y-100682380D01*
X140709523Y-100682380D01*
X141185714Y-100682380D02*
X141376190Y-100682380D01*
X141471428Y-100634761D01*
X141519047Y-100587142D01*
X141614285Y-100444285D01*
X141661904Y-100253809D01*
X141661904Y-99872857D01*
X141614285Y-99777619D01*
X141566666Y-99730000D01*
X141471428Y-99682380D01*
X141280952Y-99682380D01*
X141185714Y-99730000D01*
X141138095Y-99777619D01*
X141090476Y-99872857D01*
X141090476Y-100110952D01*
X141138095Y-100206190D01*
X141185714Y-100253809D01*
X141280952Y-100301428D01*
X141471428Y-100301428D01*
X141566666Y-100253809D01*
X141614285Y-100206190D01*
X141661904Y-100110952D01*
%TO.C,RV3*%
X208752380Y-112295238D02*
X208276190Y-112628571D01*
X208752380Y-112866666D02*
X207752380Y-112866666D01*
X207752380Y-112485714D01*
X207800000Y-112390476D01*
X207847619Y-112342857D01*
X207942857Y-112295238D01*
X208085714Y-112295238D01*
X208180952Y-112342857D01*
X208228571Y-112390476D01*
X208276190Y-112485714D01*
X208276190Y-112866666D01*
X207752380Y-112009523D02*
X208752380Y-111676190D01*
X207752380Y-111342857D01*
X207752380Y-111104761D02*
X207752380Y-110485714D01*
X208133333Y-110819047D01*
X208133333Y-110676190D01*
X208180952Y-110580952D01*
X208228571Y-110533333D01*
X208323809Y-110485714D01*
X208561904Y-110485714D01*
X208657142Y-110533333D01*
X208704761Y-110580952D01*
X208752380Y-110676190D01*
X208752380Y-110961904D01*
X208704761Y-111057142D01*
X208657142Y-111104761D01*
%TO.C,C32*%
X139757142Y-120957142D02*
X139709523Y-121004761D01*
X139566666Y-121052380D01*
X139471428Y-121052380D01*
X139328571Y-121004761D01*
X139233333Y-120909523D01*
X139185714Y-120814285D01*
X139138095Y-120623809D01*
X139138095Y-120480952D01*
X139185714Y-120290476D01*
X139233333Y-120195238D01*
X139328571Y-120100000D01*
X139471428Y-120052380D01*
X139566666Y-120052380D01*
X139709523Y-120100000D01*
X139757142Y-120147619D01*
X140090476Y-120052380D02*
X140709523Y-120052380D01*
X140376190Y-120433333D01*
X140519047Y-120433333D01*
X140614285Y-120480952D01*
X140661904Y-120528571D01*
X140709523Y-120623809D01*
X140709523Y-120861904D01*
X140661904Y-120957142D01*
X140614285Y-121004761D01*
X140519047Y-121052380D01*
X140233333Y-121052380D01*
X140138095Y-121004761D01*
X140090476Y-120957142D01*
X141090476Y-120147619D02*
X141138095Y-120100000D01*
X141233333Y-120052380D01*
X141471428Y-120052380D01*
X141566666Y-120100000D01*
X141614285Y-120147619D01*
X141661904Y-120242857D01*
X141661904Y-120338095D01*
X141614285Y-120480952D01*
X141042857Y-121052380D01*
X141661904Y-121052380D01*
%TO.C,U1*%
X185538095Y-106202380D02*
X185538095Y-107011904D01*
X185585714Y-107107142D01*
X185633333Y-107154761D01*
X185728571Y-107202380D01*
X185919047Y-107202380D01*
X186014285Y-107154761D01*
X186061904Y-107107142D01*
X186109523Y-107011904D01*
X186109523Y-106202380D01*
X187109523Y-107202380D02*
X186538095Y-107202380D01*
X186823809Y-107202380D02*
X186823809Y-106202380D01*
X186728571Y-106345238D01*
X186633333Y-106440476D01*
X186538095Y-106488095D01*
%TO.C,R2*%
X200033333Y-111352380D02*
X199700000Y-110876190D01*
X199461904Y-111352380D02*
X199461904Y-110352380D01*
X199842857Y-110352380D01*
X199938095Y-110400000D01*
X199985714Y-110447619D01*
X200033333Y-110542857D01*
X200033333Y-110685714D01*
X199985714Y-110780952D01*
X199938095Y-110828571D01*
X199842857Y-110876190D01*
X199461904Y-110876190D01*
X200414285Y-110447619D02*
X200461904Y-110400000D01*
X200557142Y-110352380D01*
X200795238Y-110352380D01*
X200890476Y-110400000D01*
X200938095Y-110447619D01*
X200985714Y-110542857D01*
X200985714Y-110638095D01*
X200938095Y-110780952D01*
X200366666Y-111352380D01*
X200985714Y-111352380D01*
%TO.C,C9*%
X166033333Y-95882142D02*
X165985714Y-95929761D01*
X165842857Y-95977380D01*
X165747619Y-95977380D01*
X165604761Y-95929761D01*
X165509523Y-95834523D01*
X165461904Y-95739285D01*
X165414285Y-95548809D01*
X165414285Y-95405952D01*
X165461904Y-95215476D01*
X165509523Y-95120238D01*
X165604761Y-95025000D01*
X165747619Y-94977380D01*
X165842857Y-94977380D01*
X165985714Y-95025000D01*
X166033333Y-95072619D01*
X166509523Y-95977380D02*
X166700000Y-95977380D01*
X166795238Y-95929761D01*
X166842857Y-95882142D01*
X166938095Y-95739285D01*
X166985714Y-95548809D01*
X166985714Y-95167857D01*
X166938095Y-95072619D01*
X166890476Y-95025000D01*
X166795238Y-94977380D01*
X166604761Y-94977380D01*
X166509523Y-95025000D01*
X166461904Y-95072619D01*
X166414285Y-95167857D01*
X166414285Y-95405952D01*
X166461904Y-95501190D01*
X166509523Y-95548809D01*
X166604761Y-95596428D01*
X166795238Y-95596428D01*
X166890476Y-95548809D01*
X166938095Y-95501190D01*
X166985714Y-95405952D01*
%TO.C,R24*%
X187782380Y-138367857D02*
X187306190Y-138701190D01*
X187782380Y-138939285D02*
X186782380Y-138939285D01*
X186782380Y-138558333D01*
X186830000Y-138463095D01*
X186877619Y-138415476D01*
X186972857Y-138367857D01*
X187115714Y-138367857D01*
X187210952Y-138415476D01*
X187258571Y-138463095D01*
X187306190Y-138558333D01*
X187306190Y-138939285D01*
X186877619Y-137986904D02*
X186830000Y-137939285D01*
X186782380Y-137844047D01*
X186782380Y-137605952D01*
X186830000Y-137510714D01*
X186877619Y-137463095D01*
X186972857Y-137415476D01*
X187068095Y-137415476D01*
X187210952Y-137463095D01*
X187782380Y-138034523D01*
X187782380Y-137415476D01*
X187115714Y-136558333D02*
X187782380Y-136558333D01*
X186734761Y-136796428D02*
X187449047Y-137034523D01*
X187449047Y-136415476D01*
%TO.C,R11*%
X199752380Y-138367857D02*
X199276190Y-138701190D01*
X199752380Y-138939285D02*
X198752380Y-138939285D01*
X198752380Y-138558333D01*
X198800000Y-138463095D01*
X198847619Y-138415476D01*
X198942857Y-138367857D01*
X199085714Y-138367857D01*
X199180952Y-138415476D01*
X199228571Y-138463095D01*
X199276190Y-138558333D01*
X199276190Y-138939285D01*
X199752380Y-137415476D02*
X199752380Y-137986904D01*
X199752380Y-137701190D02*
X198752380Y-137701190D01*
X198895238Y-137796428D01*
X198990476Y-137891666D01*
X199038095Y-137986904D01*
X199752380Y-136463095D02*
X199752380Y-137034523D01*
X199752380Y-136748809D02*
X198752380Y-136748809D01*
X198895238Y-136844047D01*
X198990476Y-136939285D01*
X199038095Y-137034523D01*
%TO.C,C38*%
X147357142Y-76747142D02*
X147309523Y-76794761D01*
X147166666Y-76842380D01*
X147071428Y-76842380D01*
X146928571Y-76794761D01*
X146833333Y-76699523D01*
X146785714Y-76604285D01*
X146738095Y-76413809D01*
X146738095Y-76270952D01*
X146785714Y-76080476D01*
X146833333Y-75985238D01*
X146928571Y-75890000D01*
X147071428Y-75842380D01*
X147166666Y-75842380D01*
X147309523Y-75890000D01*
X147357142Y-75937619D01*
X147690476Y-75842380D02*
X148309523Y-75842380D01*
X147976190Y-76223333D01*
X148119047Y-76223333D01*
X148214285Y-76270952D01*
X148261904Y-76318571D01*
X148309523Y-76413809D01*
X148309523Y-76651904D01*
X148261904Y-76747142D01*
X148214285Y-76794761D01*
X148119047Y-76842380D01*
X147833333Y-76842380D01*
X147738095Y-76794761D01*
X147690476Y-76747142D01*
X148880952Y-76270952D02*
X148785714Y-76223333D01*
X148738095Y-76175714D01*
X148690476Y-76080476D01*
X148690476Y-76032857D01*
X148738095Y-75937619D01*
X148785714Y-75890000D01*
X148880952Y-75842380D01*
X149071428Y-75842380D01*
X149166666Y-75890000D01*
X149214285Y-75937619D01*
X149261904Y-76032857D01*
X149261904Y-76080476D01*
X149214285Y-76175714D01*
X149166666Y-76223333D01*
X149071428Y-76270952D01*
X148880952Y-76270952D01*
X148785714Y-76318571D01*
X148738095Y-76366190D01*
X148690476Y-76461428D01*
X148690476Y-76651904D01*
X148738095Y-76747142D01*
X148785714Y-76794761D01*
X148880952Y-76842380D01*
X149071428Y-76842380D01*
X149166666Y-76794761D01*
X149214285Y-76747142D01*
X149261904Y-76651904D01*
X149261904Y-76461428D01*
X149214285Y-76366190D01*
X149166666Y-76318571D01*
X149071428Y-76270952D01*
%TO.C,R10*%
X200757142Y-134652380D02*
X200423809Y-134176190D01*
X200185714Y-134652380D02*
X200185714Y-133652380D01*
X200566666Y-133652380D01*
X200661904Y-133700000D01*
X200709523Y-133747619D01*
X200757142Y-133842857D01*
X200757142Y-133985714D01*
X200709523Y-134080952D01*
X200661904Y-134128571D01*
X200566666Y-134176190D01*
X200185714Y-134176190D01*
X201709523Y-134652380D02*
X201138095Y-134652380D01*
X201423809Y-134652380D02*
X201423809Y-133652380D01*
X201328571Y-133795238D01*
X201233333Y-133890476D01*
X201138095Y-133938095D01*
X202328571Y-133652380D02*
X202423809Y-133652380D01*
X202519047Y-133700000D01*
X202566666Y-133747619D01*
X202614285Y-133842857D01*
X202661904Y-134033333D01*
X202661904Y-134271428D01*
X202614285Y-134461904D01*
X202566666Y-134557142D01*
X202519047Y-134604761D01*
X202423809Y-134652380D01*
X202328571Y-134652380D01*
X202233333Y-134604761D01*
X202185714Y-134557142D01*
X202138095Y-134461904D01*
X202090476Y-134271428D01*
X202090476Y-134033333D01*
X202138095Y-133842857D01*
X202185714Y-133747619D01*
X202233333Y-133700000D01*
X202328571Y-133652380D01*
%TO.C,C6*%
X197408333Y-108087142D02*
X197360714Y-108134761D01*
X197217857Y-108182380D01*
X197122619Y-108182380D01*
X196979761Y-108134761D01*
X196884523Y-108039523D01*
X196836904Y-107944285D01*
X196789285Y-107753809D01*
X196789285Y-107610952D01*
X196836904Y-107420476D01*
X196884523Y-107325238D01*
X196979761Y-107230000D01*
X197122619Y-107182380D01*
X197217857Y-107182380D01*
X197360714Y-107230000D01*
X197408333Y-107277619D01*
X198265476Y-107182380D02*
X198075000Y-107182380D01*
X197979761Y-107230000D01*
X197932142Y-107277619D01*
X197836904Y-107420476D01*
X197789285Y-107610952D01*
X197789285Y-107991904D01*
X197836904Y-108087142D01*
X197884523Y-108134761D01*
X197979761Y-108182380D01*
X198170238Y-108182380D01*
X198265476Y-108134761D01*
X198313095Y-108087142D01*
X198360714Y-107991904D01*
X198360714Y-107753809D01*
X198313095Y-107658571D01*
X198265476Y-107610952D01*
X198170238Y-107563333D01*
X197979761Y-107563333D01*
X197884523Y-107610952D01*
X197836904Y-107658571D01*
X197789285Y-107753809D01*
%TO.C,C16*%
X163057142Y-120457142D02*
X163009523Y-120504761D01*
X162866666Y-120552380D01*
X162771428Y-120552380D01*
X162628571Y-120504761D01*
X162533333Y-120409523D01*
X162485714Y-120314285D01*
X162438095Y-120123809D01*
X162438095Y-119980952D01*
X162485714Y-119790476D01*
X162533333Y-119695238D01*
X162628571Y-119600000D01*
X162771428Y-119552380D01*
X162866666Y-119552380D01*
X163009523Y-119600000D01*
X163057142Y-119647619D01*
X164009523Y-120552380D02*
X163438095Y-120552380D01*
X163723809Y-120552380D02*
X163723809Y-119552380D01*
X163628571Y-119695238D01*
X163533333Y-119790476D01*
X163438095Y-119838095D01*
X164866666Y-119552380D02*
X164676190Y-119552380D01*
X164580952Y-119600000D01*
X164533333Y-119647619D01*
X164438095Y-119790476D01*
X164390476Y-119980952D01*
X164390476Y-120361904D01*
X164438095Y-120457142D01*
X164485714Y-120504761D01*
X164580952Y-120552380D01*
X164771428Y-120552380D01*
X164866666Y-120504761D01*
X164914285Y-120457142D01*
X164961904Y-120361904D01*
X164961904Y-120123809D01*
X164914285Y-120028571D01*
X164866666Y-119980952D01*
X164771428Y-119933333D01*
X164580952Y-119933333D01*
X164485714Y-119980952D01*
X164438095Y-120028571D01*
X164390476Y-120123809D01*
%TO.C,L4*%
X196833333Y-96252380D02*
X196357142Y-96252380D01*
X196357142Y-95252380D01*
X197595238Y-95585714D02*
X197595238Y-96252380D01*
X197357142Y-95204761D02*
X197119047Y-95919047D01*
X197738095Y-95919047D01*
%TO.C,C34*%
X196857142Y-97857142D02*
X196809523Y-97904761D01*
X196666666Y-97952380D01*
X196571428Y-97952380D01*
X196428571Y-97904761D01*
X196333333Y-97809523D01*
X196285714Y-97714285D01*
X196238095Y-97523809D01*
X196238095Y-97380952D01*
X196285714Y-97190476D01*
X196333333Y-97095238D01*
X196428571Y-97000000D01*
X196571428Y-96952380D01*
X196666666Y-96952380D01*
X196809523Y-97000000D01*
X196857142Y-97047619D01*
X197190476Y-96952380D02*
X197809523Y-96952380D01*
X197476190Y-97333333D01*
X197619047Y-97333333D01*
X197714285Y-97380952D01*
X197761904Y-97428571D01*
X197809523Y-97523809D01*
X197809523Y-97761904D01*
X197761904Y-97857142D01*
X197714285Y-97904761D01*
X197619047Y-97952380D01*
X197333333Y-97952380D01*
X197238095Y-97904761D01*
X197190476Y-97857142D01*
X198666666Y-97285714D02*
X198666666Y-97952380D01*
X198428571Y-96904761D02*
X198190476Y-97619047D01*
X198809523Y-97619047D01*
%TO.C,R15*%
X142457142Y-131152380D02*
X142123809Y-130676190D01*
X141885714Y-131152380D02*
X141885714Y-130152380D01*
X142266666Y-130152380D01*
X142361904Y-130200000D01*
X142409523Y-130247619D01*
X142457142Y-130342857D01*
X142457142Y-130485714D01*
X142409523Y-130580952D01*
X142361904Y-130628571D01*
X142266666Y-130676190D01*
X141885714Y-130676190D01*
X143409523Y-131152380D02*
X142838095Y-131152380D01*
X143123809Y-131152380D02*
X143123809Y-130152380D01*
X143028571Y-130295238D01*
X142933333Y-130390476D01*
X142838095Y-130438095D01*
X144314285Y-130152380D02*
X143838095Y-130152380D01*
X143790476Y-130628571D01*
X143838095Y-130580952D01*
X143933333Y-130533333D01*
X144171428Y-130533333D01*
X144266666Y-130580952D01*
X144314285Y-130628571D01*
X144361904Y-130723809D01*
X144361904Y-130961904D01*
X144314285Y-131057142D01*
X144266666Y-131104761D01*
X144171428Y-131152380D01*
X143933333Y-131152380D01*
X143838095Y-131104761D01*
X143790476Y-131057142D01*
%TO.C,R5*%
X177133333Y-99452380D02*
X176800000Y-98976190D01*
X176561904Y-99452380D02*
X176561904Y-98452380D01*
X176942857Y-98452380D01*
X177038095Y-98500000D01*
X177085714Y-98547619D01*
X177133333Y-98642857D01*
X177133333Y-98785714D01*
X177085714Y-98880952D01*
X177038095Y-98928571D01*
X176942857Y-98976190D01*
X176561904Y-98976190D01*
X178038095Y-98452380D02*
X177561904Y-98452380D01*
X177514285Y-98928571D01*
X177561904Y-98880952D01*
X177657142Y-98833333D01*
X177895238Y-98833333D01*
X177990476Y-98880952D01*
X178038095Y-98928571D01*
X178085714Y-99023809D01*
X178085714Y-99261904D01*
X178038095Y-99357142D01*
X177990476Y-99404761D01*
X177895238Y-99452380D01*
X177657142Y-99452380D01*
X177561904Y-99404761D01*
X177514285Y-99357142D01*
%TO.C,L1*%
X173008333Y-128727380D02*
X172532142Y-128727380D01*
X172532142Y-127727380D01*
X173865476Y-128727380D02*
X173294047Y-128727380D01*
X173579761Y-128727380D02*
X173579761Y-127727380D01*
X173484523Y-127870238D01*
X173389285Y-127965476D01*
X173294047Y-128013095D01*
%TO.C,R13*%
X135552380Y-109842857D02*
X135076190Y-110176190D01*
X135552380Y-110414285D02*
X134552380Y-110414285D01*
X134552380Y-110033333D01*
X134600000Y-109938095D01*
X134647619Y-109890476D01*
X134742857Y-109842857D01*
X134885714Y-109842857D01*
X134980952Y-109890476D01*
X135028571Y-109938095D01*
X135076190Y-110033333D01*
X135076190Y-110414285D01*
X135552380Y-108890476D02*
X135552380Y-109461904D01*
X135552380Y-109176190D02*
X134552380Y-109176190D01*
X134695238Y-109271428D01*
X134790476Y-109366666D01*
X134838095Y-109461904D01*
X134552380Y-108557142D02*
X134552380Y-107938095D01*
X134933333Y-108271428D01*
X134933333Y-108128571D01*
X134980952Y-108033333D01*
X135028571Y-107985714D01*
X135123809Y-107938095D01*
X135361904Y-107938095D01*
X135457142Y-107985714D01*
X135504761Y-108033333D01*
X135552380Y-108128571D01*
X135552380Y-108414285D01*
X135504761Y-108509523D01*
X135457142Y-108557142D01*
%TO.C,R21*%
X165887142Y-62552380D02*
X165553809Y-62076190D01*
X165315714Y-62552380D02*
X165315714Y-61552380D01*
X165696666Y-61552380D01*
X165791904Y-61600000D01*
X165839523Y-61647619D01*
X165887142Y-61742857D01*
X165887142Y-61885714D01*
X165839523Y-61980952D01*
X165791904Y-62028571D01*
X165696666Y-62076190D01*
X165315714Y-62076190D01*
X166268095Y-61647619D02*
X166315714Y-61600000D01*
X166410952Y-61552380D01*
X166649047Y-61552380D01*
X166744285Y-61600000D01*
X166791904Y-61647619D01*
X166839523Y-61742857D01*
X166839523Y-61838095D01*
X166791904Y-61980952D01*
X166220476Y-62552380D01*
X166839523Y-62552380D01*
X167791904Y-62552380D02*
X167220476Y-62552380D01*
X167506190Y-62552380D02*
X167506190Y-61552380D01*
X167410952Y-61695238D01*
X167315714Y-61790476D01*
X167220476Y-61838095D01*
%TO.C,R20*%
X190557142Y-111252380D02*
X190223809Y-110776190D01*
X189985714Y-111252380D02*
X189985714Y-110252380D01*
X190366666Y-110252380D01*
X190461904Y-110300000D01*
X190509523Y-110347619D01*
X190557142Y-110442857D01*
X190557142Y-110585714D01*
X190509523Y-110680952D01*
X190461904Y-110728571D01*
X190366666Y-110776190D01*
X189985714Y-110776190D01*
X190938095Y-110347619D02*
X190985714Y-110300000D01*
X191080952Y-110252380D01*
X191319047Y-110252380D01*
X191414285Y-110300000D01*
X191461904Y-110347619D01*
X191509523Y-110442857D01*
X191509523Y-110538095D01*
X191461904Y-110680952D01*
X190890476Y-111252380D01*
X191509523Y-111252380D01*
X192128571Y-110252380D02*
X192223809Y-110252380D01*
X192319047Y-110300000D01*
X192366666Y-110347619D01*
X192414285Y-110442857D01*
X192461904Y-110633333D01*
X192461904Y-110871428D01*
X192414285Y-111061904D01*
X192366666Y-111157142D01*
X192319047Y-111204761D01*
X192223809Y-111252380D01*
X192128571Y-111252380D01*
X192033333Y-111204761D01*
X191985714Y-111157142D01*
X191938095Y-111061904D01*
X191890476Y-110871428D01*
X191890476Y-110633333D01*
X191938095Y-110442857D01*
X191985714Y-110347619D01*
X192033333Y-110300000D01*
X192128571Y-110252380D01*
%TO.C,C41*%
X142107142Y-68412857D02*
X142154761Y-68460476D01*
X142202380Y-68603333D01*
X142202380Y-68698571D01*
X142154761Y-68841428D01*
X142059523Y-68936666D01*
X141964285Y-68984285D01*
X141773809Y-69031904D01*
X141630952Y-69031904D01*
X141440476Y-68984285D01*
X141345238Y-68936666D01*
X141250000Y-68841428D01*
X141202380Y-68698571D01*
X141202380Y-68603333D01*
X141250000Y-68460476D01*
X141297619Y-68412857D01*
X141535714Y-67555714D02*
X142202380Y-67555714D01*
X141154761Y-67793809D02*
X141869047Y-68031904D01*
X141869047Y-67412857D01*
X142202380Y-66508095D02*
X142202380Y-67079523D01*
X142202380Y-66793809D02*
X141202380Y-66793809D01*
X141345238Y-66889047D01*
X141440476Y-66984285D01*
X141488095Y-67079523D01*
%TO.C,R23*%
X196707380Y-138367857D02*
X196231190Y-138701190D01*
X196707380Y-138939285D02*
X195707380Y-138939285D01*
X195707380Y-138558333D01*
X195755000Y-138463095D01*
X195802619Y-138415476D01*
X195897857Y-138367857D01*
X196040714Y-138367857D01*
X196135952Y-138415476D01*
X196183571Y-138463095D01*
X196231190Y-138558333D01*
X196231190Y-138939285D01*
X195802619Y-137986904D02*
X195755000Y-137939285D01*
X195707380Y-137844047D01*
X195707380Y-137605952D01*
X195755000Y-137510714D01*
X195802619Y-137463095D01*
X195897857Y-137415476D01*
X195993095Y-137415476D01*
X196135952Y-137463095D01*
X196707380Y-138034523D01*
X196707380Y-137415476D01*
X195707380Y-137082142D02*
X195707380Y-136463095D01*
X196088333Y-136796428D01*
X196088333Y-136653571D01*
X196135952Y-136558333D01*
X196183571Y-136510714D01*
X196278809Y-136463095D01*
X196516904Y-136463095D01*
X196612142Y-136510714D01*
X196659761Y-136558333D01*
X196707380Y-136653571D01*
X196707380Y-136939285D01*
X196659761Y-137034523D01*
X196612142Y-137082142D01*
%TO.C,C20*%
X163332142Y-129932142D02*
X163284523Y-129979761D01*
X163141666Y-130027380D01*
X163046428Y-130027380D01*
X162903571Y-129979761D01*
X162808333Y-129884523D01*
X162760714Y-129789285D01*
X162713095Y-129598809D01*
X162713095Y-129455952D01*
X162760714Y-129265476D01*
X162808333Y-129170238D01*
X162903571Y-129075000D01*
X163046428Y-129027380D01*
X163141666Y-129027380D01*
X163284523Y-129075000D01*
X163332142Y-129122619D01*
X163713095Y-129122619D02*
X163760714Y-129075000D01*
X163855952Y-129027380D01*
X164094047Y-129027380D01*
X164189285Y-129075000D01*
X164236904Y-129122619D01*
X164284523Y-129217857D01*
X164284523Y-129313095D01*
X164236904Y-129455952D01*
X163665476Y-130027380D01*
X164284523Y-130027380D01*
X164903571Y-129027380D02*
X164998809Y-129027380D01*
X165094047Y-129075000D01*
X165141666Y-129122619D01*
X165189285Y-129217857D01*
X165236904Y-129408333D01*
X165236904Y-129646428D01*
X165189285Y-129836904D01*
X165141666Y-129932142D01*
X165094047Y-129979761D01*
X164998809Y-130027380D01*
X164903571Y-130027380D01*
X164808333Y-129979761D01*
X164760714Y-129932142D01*
X164713095Y-129836904D01*
X164665476Y-129646428D01*
X164665476Y-129408333D01*
X164713095Y-129217857D01*
X164760714Y-129122619D01*
X164808333Y-129075000D01*
X164903571Y-129027380D01*
D12*
%TO.C,J5*%
X204370000Y-82880000D02*
X204370000Y-81550000D01*
X204370000Y-84150000D02*
X204370000Y-91830000D01*
X204370000Y-84150000D02*
X206970000Y-84150000D01*
X209570000Y-81550000D02*
X209570000Y-91830000D01*
X206970000Y-81550000D02*
X209570000Y-81550000D01*
X204370000Y-91830000D02*
X209570000Y-91830000D01*
X204370000Y-81550000D02*
X205700000Y-81550000D01*
X206970000Y-84150000D02*
X206970000Y-81550000D01*
%TO.C,R7*%
X164077500Y-100837742D02*
X164077500Y-101312258D01*
X165122500Y-100837742D02*
X165122500Y-101312258D01*
%TO.C,R14*%
X140162742Y-95277500D02*
X140637258Y-95277500D01*
X140162742Y-96322500D02*
X140637258Y-96322500D01*
%TO.C,C14*%
X170390000Y-119790580D02*
X170390000Y-119509420D01*
X171410000Y-119790580D02*
X171410000Y-119509420D01*
%TO.C,SW1*%
X157400000Y-134150000D02*
X159900000Y-134150000D01*
X160350000Y-139200000D02*
X159900000Y-139650000D01*
X156950000Y-139200000D02*
X157400000Y-139650000D01*
X157400000Y-139650000D02*
X159900000Y-139650000D01*
X156950000Y-134600000D02*
X157400000Y-134150000D01*
X160350000Y-134600000D02*
X159900000Y-134150000D01*
X155900000Y-135900000D02*
X155900000Y-137900000D01*
X161400000Y-135900000D02*
X161400000Y-137900000D01*
%TO.C,C5*%
X181594437Y-72090000D02*
X180530000Y-71025563D01*
X180530000Y-63370000D02*
X183380000Y-63370000D01*
X181594437Y-72090000D02*
X183380000Y-72090000D01*
X180530000Y-71025563D02*
X180530000Y-63370000D01*
X189250000Y-63370000D02*
X186400000Y-63370000D01*
X182380000Y-73330000D02*
X182380000Y-72330000D01*
X181880000Y-72830000D02*
X182880000Y-72830000D01*
X189250000Y-71025563D02*
X189250000Y-63370000D01*
X188185563Y-72090000D02*
X189250000Y-71025563D01*
X188185563Y-72090000D02*
X186400000Y-72090000D01*
%TO.C,U8*%
X144990000Y-84610000D02*
X144990000Y-83350000D01*
X148750000Y-77790000D02*
X144990000Y-77790000D01*
X151000000Y-84610000D02*
X144990000Y-84610000D01*
X144990000Y-77790000D02*
X144990000Y-79050000D01*
%TO.C,C27*%
X140259420Y-116990000D02*
X140540580Y-116990000D01*
X140259420Y-118010000D02*
X140540580Y-118010000D01*
%TO.C,D3*%
X191115000Y-136097500D02*
X192585000Y-136097500D01*
X191115000Y-133812500D02*
X191115000Y-136097500D01*
X192585000Y-136097500D02*
X192585000Y-133812500D01*
%TO.C,J6*%
X204430000Y-89210000D02*
X201770000Y-89210000D01*
X204430000Y-89210000D02*
X204430000Y-81530000D01*
X204430000Y-91810000D02*
X203100000Y-91810000D01*
X204430000Y-81530000D02*
X201770000Y-81530000D01*
X201770000Y-89210000D02*
X201770000Y-81530000D01*
X204430000Y-90480000D02*
X204430000Y-91810000D01*
%TO.C,SW4*%
X139950000Y-139200000D02*
X140400000Y-139650000D01*
X144400000Y-137900000D02*
X144400000Y-135900000D01*
X142900000Y-139650000D02*
X140400000Y-139650000D01*
X138900000Y-137900000D02*
X138900000Y-135900000D01*
X143350000Y-139200000D02*
X142900000Y-139650000D01*
X142900000Y-134150000D02*
X140400000Y-134150000D01*
X143350000Y-134600000D02*
X142900000Y-134150000D01*
X139950000Y-134600000D02*
X140400000Y-134150000D01*
%TO.C,G\u002A\u002A\u002A*%
G36*
X178469817Y-83030691D02*
G01*
X178517571Y-83078713D01*
X178563214Y-83124724D01*
X178606238Y-83168205D01*
X178646132Y-83208639D01*
X178682391Y-83245504D01*
X178714503Y-83278283D01*
X178741963Y-83306457D01*
X178764260Y-83329506D01*
X178780886Y-83346911D01*
X178791334Y-83358153D01*
X178795094Y-83362714D01*
X178795098Y-83362745D01*
X178791577Y-83367067D01*
X178781350Y-83378091D01*
X178764927Y-83395298D01*
X178742814Y-83418170D01*
X178715519Y-83446189D01*
X178683548Y-83478837D01*
X178647411Y-83515596D01*
X178607614Y-83555947D01*
X178564664Y-83599372D01*
X178519070Y-83645354D01*
X178471339Y-83693373D01*
X178468734Y-83695990D01*
X178142370Y-84023885D01*
X178141984Y-83694777D01*
X174799879Y-83694777D01*
X174799879Y-87036741D01*
X174963175Y-87038088D01*
X175126471Y-87039434D01*
X174796055Y-87369818D01*
X174465639Y-87700201D01*
X173802379Y-87036883D01*
X174131458Y-87036883D01*
X174131458Y-83031472D01*
X176135446Y-83030190D01*
X178139433Y-83028908D01*
X178141984Y-82866447D01*
X178144536Y-82703986D01*
X178469817Y-83030691D01*
G37*
%TO.C,C13*%
X177809420Y-124165000D02*
X178090580Y-124165000D01*
X177809420Y-125185000D02*
X178090580Y-125185000D01*
D10*
%TO.C,U2*%
X167850000Y-102150000D02*
X167850000Y-101625000D01*
X167850000Y-97850000D02*
X168375000Y-97850000D01*
X172150000Y-97850000D02*
X172150000Y-98375000D01*
X167850000Y-97850000D02*
X167850000Y-98375000D01*
X167850000Y-102150000D02*
X168375000Y-102150000D01*
X172150000Y-102150000D02*
X171625000Y-102150000D01*
X172150000Y-102150000D02*
X172150000Y-101625000D01*
D12*
%TO.C,C1*%
X181035000Y-95411252D02*
X181035000Y-94888748D01*
X179565000Y-95411252D02*
X179565000Y-94888748D01*
%TO.C,D5*%
X194090000Y-133812500D02*
X194090000Y-136097500D01*
X194090000Y-136097500D02*
X195560000Y-136097500D01*
X195560000Y-136097500D02*
X195560000Y-133812500D01*
%TO.C,C39*%
X145850000Y-85065000D02*
X141940000Y-85065000D01*
X141940000Y-86935000D02*
X145850000Y-86935000D01*
X141940000Y-85065000D02*
X141940000Y-86935000D01*
%TO.C,R4*%
X186877500Y-109762742D02*
X186877500Y-110237258D01*
X187922500Y-109762742D02*
X187922500Y-110237258D01*
%TO.C,C10*%
X167440580Y-104310000D02*
X167159420Y-104310000D01*
X167440580Y-103290000D02*
X167159420Y-103290000D01*
D13*
%TO.C,U4*%
X209825000Y-130812500D02*
X203145000Y-130812500D01*
X182825000Y-130682500D02*
X182825000Y-130812500D01*
X183505000Y-118112500D02*
X182825000Y-118112500D01*
X182825000Y-118112500D02*
X182825000Y-118242500D01*
X209825000Y-118112500D02*
X209825000Y-130812500D01*
X182825000Y-130812500D02*
X183505000Y-130812500D01*
X203145000Y-118112500D02*
X209825000Y-118112500D01*
D14*
X202600000Y-116462500D02*
G75*
G03*
X202600000Y-116462500I-100000J0D01*
G01*
D12*
%TO.C,D2*%
X188140000Y-133812500D02*
X188140000Y-136097500D01*
X189610000Y-136097500D02*
X189610000Y-133812500D01*
X188140000Y-136097500D02*
X189610000Y-136097500D01*
%TO.C,L3*%
X169837221Y-130185000D02*
X170162779Y-130185000D01*
X169837221Y-129165000D02*
X170162779Y-129165000D01*
%TO.C,C12*%
X174610000Y-101615580D02*
X174610000Y-101334420D01*
X173590000Y-101615580D02*
X173590000Y-101334420D01*
%TO.C,J7*%
X203470000Y-78180000D02*
X209490000Y-78180000D01*
X203470000Y-77600000D02*
X204070000Y-77600000D01*
X204070000Y-75060000D02*
X204070000Y-73460000D01*
X203470000Y-67800000D02*
X203470000Y-78180000D01*
X209490000Y-76550000D02*
X208490000Y-76550000D01*
X207960000Y-76550000D02*
X207960000Y-69430000D01*
X204070000Y-72520000D02*
X204070000Y-70920000D01*
X203470000Y-75060000D02*
X204070000Y-75060000D01*
X203470000Y-72520000D02*
X204070000Y-72520000D01*
X204070000Y-69980000D02*
X204070000Y-68380000D01*
X204070000Y-68380000D02*
X203470000Y-68380000D01*
X208490000Y-76800000D02*
X207960000Y-76550000D01*
X204070000Y-76000000D02*
X203470000Y-76000000D01*
X204070000Y-77600000D02*
X204070000Y-76000000D01*
X207960000Y-69430000D02*
X208490000Y-69180000D01*
X208490000Y-76800000D02*
X208490000Y-69180000D01*
X209490000Y-67800000D02*
X203470000Y-67800000D01*
X209490000Y-69430000D02*
X208490000Y-69430000D01*
X209490000Y-78180000D02*
X209490000Y-67800000D01*
X204070000Y-70920000D02*
X203470000Y-70920000D01*
X204500000Y-78470000D02*
X208500000Y-78470000D01*
X204070000Y-73460000D02*
X203470000Y-73460000D01*
X203470000Y-69980000D02*
X204070000Y-69980000D01*
X208490000Y-69180000D02*
X209490000Y-69180000D01*
X209490000Y-76800000D02*
X208490000Y-76800000D01*
D13*
%TO.C,U6*%
X145525000Y-127170000D02*
X149925000Y-127170000D01*
X145525000Y-116830000D02*
X149925000Y-116830000D01*
D14*
X143585000Y-117465000D02*
G75*
G03*
X143585000Y-117465000I-100000J0D01*
G01*
D12*
%TO.C,C2*%
X182610000Y-95515580D02*
X182610000Y-95234420D01*
X181590000Y-95515580D02*
X181590000Y-95234420D01*
%TO.C,C40*%
X156294420Y-61740000D02*
X156575580Y-61740000D01*
X156294420Y-62760000D02*
X156575580Y-62760000D01*
%TO.C,R9*%
X178187258Y-125752500D02*
X177712742Y-125752500D01*
X178187258Y-126797500D02*
X177712742Y-126797500D01*
%TO.C,D4*%
X164550000Y-76800000D02*
X164550000Y-71400000D01*
X167850000Y-76800000D02*
X167850000Y-71400000D01*
X164550000Y-76800000D02*
X167850000Y-76800000D01*
%TO.C,G\u002A\u002A\u002A*%
G36*
X169375685Y-114714459D02*
G01*
X169540803Y-114768552D01*
X169570520Y-114786148D01*
X169640700Y-114849600D01*
X169681074Y-114938100D01*
X169699535Y-115083174D01*
X169703975Y-115316348D01*
X169703975Y-115319221D01*
X169696153Y-115581404D01*
X169662087Y-115747720D01*
X169585878Y-115841950D01*
X169451627Y-115887876D01*
X169312907Y-115904155D01*
X169158886Y-115924931D01*
X169090602Y-115972436D01*
X169073712Y-116075305D01*
X169073479Y-116103783D01*
X169080334Y-116208946D01*
X169121022Y-116264735D01*
X169225725Y-116290134D01*
X169388727Y-116302075D01*
X169572904Y-116317732D01*
X169666846Y-116347578D01*
X169700403Y-116407249D01*
X169703975Y-116467205D01*
X169698927Y-116538387D01*
X169667937Y-116581830D01*
X169587233Y-116604381D01*
X169433047Y-116612884D01*
X169193574Y-116614185D01*
X168683172Y-116614185D01*
X168684057Y-116268913D01*
X168703060Y-115972614D01*
X168766249Y-115771279D01*
X168885591Y-115644183D01*
X169073050Y-115570599D01*
X169089390Y-115566837D01*
X169247831Y-115525247D01*
X169321333Y-115467736D01*
X169342519Y-115353861D01*
X169343692Y-115251589D01*
X169335499Y-115087824D01*
X169300711Y-115012114D01*
X169224016Y-114992948D01*
X169217976Y-114992909D01*
X169098098Y-115044391D01*
X169060854Y-115113003D01*
X168990765Y-115208001D01*
X168856310Y-115233098D01*
X168730825Y-115215348D01*
X168686410Y-115141062D01*
X168683172Y-115082980D01*
X168736193Y-114892006D01*
X168883909Y-114758470D01*
X169109300Y-114695738D01*
X169180213Y-114692672D01*
X169375685Y-114714459D01*
G37*
G36*
X167362131Y-116614185D02*
G01*
X166941800Y-116614185D01*
X166941800Y-114752719D01*
X167362131Y-114752719D01*
X167362131Y-116614185D01*
G37*
G36*
X168260945Y-114754425D02*
G01*
X168403637Y-114764503D01*
X168475217Y-114790393D01*
X168500174Y-114839534D01*
X168503030Y-114898661D01*
X168467834Y-115020574D01*
X168367923Y-115063791D01*
X168312252Y-115076856D01*
X168273853Y-115110681D01*
X168248873Y-115185161D01*
X168233463Y-115320191D01*
X168223772Y-115535666D01*
X168216011Y-115848582D01*
X168199205Y-116614185D01*
X167842510Y-116614185D01*
X167842510Y-115052956D01*
X167692392Y-115052956D01*
X167578121Y-115028155D01*
X167542907Y-114930502D01*
X167542273Y-114902838D01*
X167547392Y-114828385D01*
X167579085Y-114783805D01*
X167661854Y-114761439D01*
X167820202Y-114753630D01*
X168022652Y-114752719D01*
X168260945Y-114754425D01*
G37*
G36*
X165405596Y-112129980D02*
G01*
X165478740Y-112054950D01*
X165610379Y-111968867D01*
X165712791Y-111930615D01*
X165716398Y-111930497D01*
X165790393Y-111882426D01*
X165889589Y-111760104D01*
X165943044Y-111675296D01*
X166003070Y-111571281D01*
X166116364Y-111375011D01*
X166276145Y-111098231D01*
X166475631Y-110752691D01*
X166708039Y-110350136D01*
X166966587Y-109902315D01*
X167244494Y-109420974D01*
X167476780Y-109018657D01*
X167816177Y-108429101D01*
X168098666Y-107934176D01*
X168328777Y-107525329D01*
X168511044Y-107194001D01*
X168649997Y-106931639D01*
X168750169Y-106729685D01*
X168816091Y-106579583D01*
X168852295Y-106472779D01*
X168863313Y-106400895D01*
X168870836Y-106364076D01*
X169128653Y-106364076D01*
X169156239Y-106485435D01*
X169169866Y-106503829D01*
X169257075Y-106577792D01*
X169352925Y-106557857D01*
X169394635Y-106533139D01*
X169455731Y-106438957D01*
X169433468Y-106326886D01*
X169343104Y-106247577D01*
X169305686Y-106237843D01*
X169186093Y-106266613D01*
X169128653Y-106364076D01*
X168870836Y-106364076D01*
X168908262Y-106180893D01*
X169041368Y-106042015D01*
X169260027Y-105986743D01*
X169299095Y-105985816D01*
X169527511Y-106032266D01*
X169679938Y-106171703D01*
X169740528Y-106320713D01*
X169730824Y-106501272D01*
X169635633Y-106671814D01*
X169483897Y-106785875D01*
X169442174Y-106799709D01*
X169397263Y-106829054D01*
X169330328Y-106904061D01*
X169236952Y-107031827D01*
X169112720Y-107219445D01*
X168953215Y-107474009D01*
X168754020Y-107802616D01*
X168510720Y-108212358D01*
X168218897Y-108710332D01*
X167874135Y-109303630D01*
X167750160Y-109517802D01*
X167357798Y-110198952D01*
X167026199Y-110780799D01*
X166753609Y-111266578D01*
X166538272Y-111659524D01*
X166378434Y-111962872D01*
X166272341Y-112179858D01*
X166218236Y-112313717D01*
X166210091Y-112357352D01*
X166181694Y-112514714D01*
X166097087Y-112672600D01*
X165929458Y-112798603D01*
X165723936Y-112833583D01*
X165523830Y-112775000D01*
X165440618Y-112711112D01*
X165335186Y-112529700D01*
X165327429Y-112380652D01*
X165595271Y-112380652D01*
X165626074Y-112480851D01*
X165721623Y-112569743D01*
X165828269Y-112560485D01*
X165902132Y-112461701D01*
X165910196Y-112425005D01*
X165884324Y-112298722D01*
X165789414Y-112243160D01*
X165665713Y-112279248D01*
X165651281Y-112290368D01*
X165595271Y-112380652D01*
X165327429Y-112380652D01*
X165324352Y-112321529D01*
X165405596Y-112129980D01*
G37*
G36*
X171398491Y-114764133D02*
G01*
X171510858Y-114786292D01*
X171581748Y-114845229D01*
X171636524Y-114971720D01*
X171673633Y-115097991D01*
X171729131Y-115271970D01*
X171779653Y-115386464D01*
X171804634Y-115413240D01*
X171842863Y-115360415D01*
X171895043Y-115224399D01*
X171932483Y-115097991D01*
X172016662Y-114782743D01*
X172721784Y-114765826D01*
X173426907Y-114748908D01*
X173426907Y-114900932D01*
X173402817Y-115016168D01*
X173307414Y-115052171D01*
X173276789Y-115052956D01*
X173126670Y-115052956D01*
X173126670Y-116614185D01*
X172769975Y-116614185D01*
X172753169Y-115848582D01*
X172736363Y-115082980D01*
X172574937Y-115064337D01*
X172443730Y-115015412D01*
X172391927Y-114944242D01*
X172365213Y-114931495D01*
X172318288Y-115013315D01*
X172257888Y-115167237D01*
X172190747Y-115370795D01*
X172123601Y-115601523D01*
X172063183Y-115836955D01*
X172016228Y-116054627D01*
X171989472Y-116232072D01*
X171985772Y-116299085D01*
X171982324Y-116482358D01*
X171960451Y-116575796D01*
X171902855Y-116609652D01*
X171805630Y-116614185D01*
X171701260Y-116608267D01*
X171647796Y-116570447D01*
X171628214Y-116470630D01*
X171625488Y-116295723D01*
X171596576Y-116023515D01*
X171512895Y-115667547D01*
X171418084Y-115361392D01*
X171210680Y-114745522D01*
X171398491Y-114764133D01*
G37*
G36*
X174246980Y-114754927D02*
G01*
X174372661Y-114767780D01*
X174430593Y-114800625D01*
X174446945Y-114862808D01*
X174447711Y-114902838D01*
X174434862Y-114999029D01*
X174373937Y-115042149D01*
X174231371Y-115052865D01*
X174203897Y-115052956D01*
X173960083Y-115052956D01*
X173978719Y-115278133D01*
X174001710Y-115427758D01*
X174059648Y-115495991D01*
X174186444Y-115521534D01*
X174192510Y-115522127D01*
X174329748Y-115551428D01*
X174382275Y-115622089D01*
X174387663Y-115687257D01*
X174371634Y-115785728D01*
X174300260Y-115826470D01*
X174173873Y-115833571D01*
X174034776Y-115840493D01*
X173978521Y-115884946D01*
X173974314Y-116002462D01*
X173978719Y-116058748D01*
X174000612Y-116207412D01*
X174058709Y-116274851D01*
X174191851Y-116299906D01*
X174222533Y-116302562D01*
X174372243Y-116326245D01*
X174435906Y-116380107D01*
X174447711Y-116467692D01*
X174441081Y-116544247D01*
X174403760Y-116588064D01*
X174309600Y-116608255D01*
X174132451Y-116613935D01*
X174027380Y-116614185D01*
X173607049Y-116614185D01*
X173607049Y-114752719D01*
X174027380Y-114752719D01*
X174246980Y-114754927D01*
G37*
G36*
X166067710Y-114752719D02*
G01*
X166303920Y-114756891D01*
X166451344Y-114774538D01*
X166541149Y-114813356D01*
X166604505Y-114881042D01*
X166608136Y-114886175D01*
X166688773Y-115093276D01*
X166688027Y-115330076D01*
X166636001Y-115483681D01*
X166601282Y-115606942D01*
X166636001Y-115671885D01*
X166671969Y-115764531D01*
X166695800Y-115934539D01*
X166701611Y-116081480D01*
X166689453Y-116319387D01*
X166639335Y-116474439D01*
X166530798Y-116563807D01*
X166343378Y-116604663D01*
X166066826Y-116614185D01*
X165620760Y-116614185D01*
X165620760Y-116039560D01*
X166041091Y-116039560D01*
X166046960Y-116207817D01*
X166076522Y-116288159D01*
X166147710Y-116312627D01*
X166194662Y-116313949D01*
X166290263Y-116303963D01*
X166330921Y-116251993D01*
X166334119Y-116125019D01*
X166329768Y-116058748D01*
X166306803Y-115892139D01*
X166257187Y-115811396D01*
X166176198Y-115784359D01*
X166093418Y-115784220D01*
X166053744Y-115834435D01*
X166041669Y-115964296D01*
X166041091Y-116039560D01*
X165620760Y-116039560D01*
X165620760Y-115263121D01*
X166041091Y-115263121D01*
X166048949Y-115431983D01*
X166081577Y-115511833D01*
X166152558Y-115533231D01*
X166161186Y-115533334D01*
X166236235Y-115515654D01*
X166271724Y-115442241D01*
X166281235Y-115282533D01*
X166281280Y-115263121D01*
X166273423Y-115094260D01*
X166240794Y-115014410D01*
X166169813Y-114993012D01*
X166161186Y-114992909D01*
X166086136Y-115010589D01*
X166050647Y-115084002D01*
X166041137Y-115243710D01*
X166041091Y-115263121D01*
X165620760Y-115263121D01*
X165620760Y-114752719D01*
X166067710Y-114752719D01*
G37*
G36*
X170447214Y-114752719D02*
G01*
X170700912Y-114760017D01*
X170861311Y-114785198D01*
X170954502Y-114833194D01*
X170972628Y-114852019D01*
X171023928Y-114968690D01*
X171050291Y-115136759D01*
X171051237Y-115313250D01*
X171026286Y-115455185D01*
X170980061Y-115518295D01*
X170939953Y-115561234D01*
X170983577Y-115655024D01*
X170995073Y-115671766D01*
X171051174Y-115814939D01*
X171082196Y-116022764D01*
X171085063Y-116107838D01*
X171068798Y-116333268D01*
X171007143Y-116481550D01*
X170880806Y-116567707D01*
X170670497Y-116606760D01*
X170434826Y-116614185D01*
X170004212Y-116614185D01*
X170004212Y-116004417D01*
X170375276Y-116004417D01*
X170379728Y-116214707D01*
X170432669Y-116345456D01*
X170522881Y-116383461D01*
X170639143Y-116315519D01*
X170639421Y-116315241D01*
X170671294Y-116222478D01*
X170678392Y-116063709D01*
X170674831Y-116011696D01*
X170650886Y-115855480D01*
X170606199Y-115789903D01*
X170523003Y-115785227D01*
X170426031Y-115832522D01*
X170380843Y-115958225D01*
X170375276Y-116004417D01*
X170004212Y-116004417D01*
X170004212Y-115263121D01*
X170364496Y-115263121D01*
X170370718Y-115429864D01*
X170401301Y-115508865D01*
X170474124Y-115532302D01*
X170514614Y-115533334D01*
X170607249Y-115522134D01*
X170651138Y-115467083D01*
X170664159Y-115336004D01*
X170664732Y-115263121D01*
X170658510Y-115096379D01*
X170627926Y-115017378D01*
X170555104Y-114993941D01*
X170514614Y-114992909D01*
X170421979Y-115004108D01*
X170378089Y-115059159D01*
X170365069Y-115190239D01*
X170364496Y-115263121D01*
X170004212Y-115263121D01*
X170004212Y-114752719D01*
X170447214Y-114752719D01*
G37*
G36*
X166894728Y-112453027D02*
G01*
X166950146Y-112348465D01*
X167057747Y-112155139D01*
X167211045Y-111884211D01*
X167403557Y-111546841D01*
X167628799Y-111154191D01*
X167880288Y-110717421D01*
X168151540Y-110247693D01*
X168436071Y-109756166D01*
X168727397Y-109254003D01*
X169019035Y-108752365D01*
X169304501Y-108262411D01*
X169577311Y-107795304D01*
X169830982Y-107362204D01*
X170059029Y-106974272D01*
X170254970Y-106642669D01*
X170412319Y-106378556D01*
X170524594Y-106193094D01*
X170585312Y-106097444D01*
X170592208Y-106088256D01*
X170691104Y-106007191D01*
X170791444Y-105998340D01*
X170904221Y-106070107D01*
X171040428Y-106230895D01*
X171211058Y-106489109D01*
X171292765Y-106623826D01*
X171482850Y-106928084D01*
X171633290Y-107134680D01*
X171753493Y-107255569D01*
X171820061Y-107293923D01*
X171980885Y-107409090D01*
X172062929Y-107580158D01*
X172065805Y-107772047D01*
X171989123Y-107949675D01*
X171832494Y-108077964D01*
X171828770Y-108079682D01*
X171651178Y-108139498D01*
X171509626Y-108118450D01*
X171363374Y-108023066D01*
X171248039Y-107895542D01*
X171206848Y-107728074D01*
X171205598Y-107682981D01*
X171462129Y-107682981D01*
X171492326Y-107791952D01*
X171604086Y-107846314D01*
X171625488Y-107847282D01*
X171742608Y-107806652D01*
X171785702Y-107752555D01*
X171776271Y-107639649D01*
X171723770Y-107559546D01*
X171639794Y-107493482D01*
X171569671Y-107519366D01*
X171527206Y-107559546D01*
X171462129Y-107682981D01*
X171205598Y-107682981D01*
X171205157Y-107667086D01*
X171164535Y-107438330D01*
X171038208Y-107158575D01*
X170986858Y-107069097D01*
X170878219Y-106892087D01*
X170795432Y-106767241D01*
X170754889Y-106719142D01*
X170753769Y-106719522D01*
X170721800Y-106773497D01*
X170636326Y-106921069D01*
X170503470Y-107151585D01*
X170329351Y-107454394D01*
X170120092Y-107818845D01*
X169881814Y-108234286D01*
X169620637Y-108690066D01*
X169432737Y-109018204D01*
X169146596Y-109517745D01*
X168868327Y-110002973D01*
X168605891Y-110460047D01*
X168367248Y-110875127D01*
X168160359Y-111234372D01*
X167993184Y-111523942D01*
X167873683Y-111729995D01*
X167834384Y-111797233D01*
X167708941Y-112013511D01*
X167610470Y-112188515D01*
X167552298Y-112298275D01*
X167542273Y-112322647D01*
X167599599Y-112330388D01*
X167760692Y-112337160D01*
X168009229Y-112342669D01*
X168328884Y-112346621D01*
X168703333Y-112348720D01*
X168998420Y-112348919D01*
X169473126Y-112347064D01*
X169841751Y-112342362D01*
X170118292Y-112334011D01*
X170316745Y-112321210D01*
X170451106Y-112303157D01*
X170535372Y-112279051D01*
X170571126Y-112258848D01*
X170764888Y-112176149D01*
X170961455Y-112193040D01*
X171130030Y-112293811D01*
X171239820Y-112462753D01*
X171265205Y-112612913D01*
X171215533Y-112828722D01*
X171085383Y-112980637D01*
X170903048Y-113055668D01*
X170696824Y-113040822D01*
X170528252Y-112951301D01*
X170477913Y-112916239D01*
X170416976Y-112888743D01*
X170331243Y-112867898D01*
X170206520Y-112852788D01*
X170028610Y-112842498D01*
X169783319Y-112836112D01*
X169456449Y-112832714D01*
X169033806Y-112831390D01*
X168666041Y-112831206D01*
X168131432Y-112830634D01*
X167705921Y-112827353D01*
X167378511Y-112819015D01*
X167138205Y-112803271D01*
X166974008Y-112777776D01*
X166874922Y-112740179D01*
X166829951Y-112688135D01*
X166828099Y-112619294D01*
X166831785Y-112608581D01*
X170679147Y-112608581D01*
X170684660Y-112676432D01*
X170767044Y-112754674D01*
X170888096Y-112763719D01*
X170988854Y-112704304D01*
X171006633Y-112672405D01*
X170993248Y-112556637D01*
X170932421Y-112491676D01*
X170832442Y-112440480D01*
X170752155Y-112478571D01*
X170734312Y-112495703D01*
X170679147Y-112608581D01*
X166831785Y-112608581D01*
X166858369Y-112531310D01*
X166894728Y-112453027D01*
G37*
G36*
X171737302Y-108959278D02*
G01*
X172033170Y-108963673D01*
X172244359Y-108972891D01*
X172388572Y-108988482D01*
X172483511Y-109011993D01*
X172546877Y-109044974D01*
X172572935Y-109066116D01*
X172643683Y-109148940D01*
X172756632Y-109308744D01*
X172914542Y-109549933D01*
X173120172Y-109876908D01*
X173376284Y-110294072D01*
X173685635Y-110805829D01*
X174050986Y-111416580D01*
X174141090Y-111567924D01*
X174371129Y-111963763D01*
X174534925Y-112267210D01*
X174635355Y-112484084D01*
X174675296Y-112620201D01*
X174675649Y-112648775D01*
X174657876Y-112801183D01*
X173540416Y-112817489D01*
X173141809Y-112822175D01*
X172846297Y-112822150D01*
X172636930Y-112816235D01*
X172496761Y-112803255D01*
X172408841Y-112782034D01*
X172356221Y-112751394D01*
X172339470Y-112734133D01*
X172279728Y-112647204D01*
X172174043Y-112478240D01*
X172035999Y-112249509D01*
X171879181Y-111983280D01*
X171834997Y-111907189D01*
X171414008Y-111179906D01*
X170172293Y-111149883D01*
X168930578Y-111119859D01*
X169577474Y-110039008D01*
X170224369Y-108958157D01*
X171339055Y-108958157D01*
X171737302Y-108959278D01*
G37*
%TO.C,C18*%
X177809420Y-122565000D02*
X178090580Y-122565000D01*
X177809420Y-123585000D02*
X178090580Y-123585000D01*
%TO.C,U7*%
X179200000Y-69950000D02*
X179200000Y-71450000D01*
X178250000Y-71450000D02*
X178250000Y-72550000D01*
X168800000Y-71450000D02*
X169750000Y-71450000D01*
X179200000Y-71450000D02*
X178250000Y-71450000D01*
X169750000Y-71450000D02*
X169750000Y-76575000D01*
X168800000Y-69950000D02*
X168800000Y-71450000D01*
%TO.C,C15*%
X177685000Y-128509420D02*
X177685000Y-128790580D01*
X176665000Y-128509420D02*
X176665000Y-128790580D01*
%TO.C,C26*%
X154784420Y-118010000D02*
X155065580Y-118010000D01*
X154784420Y-116990000D02*
X155065580Y-116990000D01*
%TO.C,C22*%
X166759420Y-130665000D02*
X167040580Y-130665000D01*
X166759420Y-131685000D02*
X167040580Y-131685000D01*
%TO.C,TP6*%
X174700000Y-93700000D02*
G75*
G03*
X174700000Y-93700000I-700000J0D01*
G01*
%TO.C,TP8*%
X151600000Y-130500000D02*
G75*
G03*
X151600000Y-130500000I-700000J0D01*
G01*
%TO.C,C31*%
X140190000Y-125834420D02*
X140190000Y-126115580D01*
X141210000Y-125834420D02*
X141210000Y-126115580D01*
%TO.C,C35*%
X194210000Y-99659420D02*
X194210000Y-99940580D01*
X193190000Y-99659420D02*
X193190000Y-99940580D01*
%TO.C,R19*%
X192372500Y-137487742D02*
X192372500Y-137962258D01*
X191327500Y-137487742D02*
X191327500Y-137962258D01*
%TO.C,TP7*%
X149500000Y-130500000D02*
G75*
G03*
X149500000Y-130500000I-700000J0D01*
G01*
%TO.C,R1*%
X194662258Y-102622500D02*
X194187742Y-102622500D01*
X194662258Y-101577500D02*
X194187742Y-101577500D01*
%TO.C,C36*%
X181580000Y-75435580D02*
X181580000Y-75154420D01*
X182600000Y-75435580D02*
X182600000Y-75154420D01*
%TO.C,C21*%
X170140580Y-130665000D02*
X169859420Y-130665000D01*
X170140580Y-131685000D02*
X169859420Y-131685000D01*
%TO.C,C28*%
X141210000Y-105084420D02*
X141210000Y-105365580D01*
X140190000Y-105084420D02*
X140190000Y-105365580D01*
%TO.C,L2*%
X173350279Y-130665000D02*
X173024721Y-130665000D01*
X173350279Y-131685000D02*
X173024721Y-131685000D01*
%TO.C,C30*%
X141570000Y-89390000D02*
X142570000Y-89390000D01*
X143874437Y-87540000D02*
X151530000Y-87540000D01*
X151530000Y-96260000D02*
X151530000Y-93410000D01*
X142070000Y-88890000D02*
X142070000Y-89890000D01*
X142810000Y-95195563D02*
X142810000Y-93410000D01*
X142810000Y-88604437D02*
X143874437Y-87540000D01*
X151530000Y-87540000D02*
X151530000Y-90390000D01*
X142810000Y-88604437D02*
X142810000Y-90390000D01*
X143874437Y-96260000D02*
X151530000Y-96260000D01*
X142810000Y-95195563D02*
X143874437Y-96260000D01*
%TO.C,R16*%
X140162742Y-115477500D02*
X140637258Y-115477500D01*
X140162742Y-116522500D02*
X140637258Y-116522500D01*
%TO.C,R22*%
X166582258Y-68212500D02*
X166107742Y-68212500D01*
X166582258Y-67167500D02*
X166107742Y-67167500D01*
%TO.C,C33*%
X142840000Y-115395563D02*
X143904437Y-116460000D01*
X141600000Y-109590000D02*
X142600000Y-109590000D01*
X142840000Y-108804437D02*
X143904437Y-107740000D01*
X142840000Y-115395563D02*
X142840000Y-113610000D01*
X142840000Y-108804437D02*
X142840000Y-110590000D01*
X143904437Y-107740000D02*
X151560000Y-107740000D01*
X143904437Y-116460000D02*
X151560000Y-116460000D01*
X151560000Y-107740000D02*
X151560000Y-110590000D01*
X151560000Y-116460000D02*
X151560000Y-113610000D01*
X142100000Y-109090000D02*
X142100000Y-110090000D01*
%TO.C,Q2*%
X192000000Y-80460000D02*
X192650000Y-80460000D01*
X192000000Y-77340000D02*
X192650000Y-77340000D01*
X192000000Y-80460000D02*
X191350000Y-80460000D01*
X192000000Y-77340000D02*
X190325000Y-77340000D01*
%TO.C,C24*%
X154604420Y-97810000D02*
X154885580Y-97810000D01*
X154604420Y-96790000D02*
X154885580Y-96790000D01*
%TO.C,D6*%
X185165000Y-133812500D02*
X185165000Y-136097500D01*
X186635000Y-136097500D02*
X186635000Y-133812500D01*
X185165000Y-136097500D02*
X186635000Y-136097500D01*
%TO.C,RV5*%
X209705000Y-100335000D02*
X209705000Y-93495000D01*
X209705000Y-93495000D02*
X206675000Y-93495000D01*
X202465000Y-100335000D02*
X202465000Y-93495000D01*
X205375000Y-100335000D02*
X202465000Y-100335000D01*
X209705000Y-100335000D02*
X206675000Y-100335000D01*
X205375000Y-93495000D02*
X202465000Y-93495000D01*
%TO.C,C3*%
X189990000Y-106284420D02*
X189990000Y-106565580D01*
X191010000Y-106284420D02*
X191010000Y-106565580D01*
%TO.C,RV2*%
X154275000Y-126500000D02*
X154275000Y-125900000D01*
X157175000Y-123300000D02*
X154275000Y-123300000D01*
X157175000Y-126500000D02*
X154275000Y-126500000D01*
X158775000Y-126700000D02*
X158775000Y-126000000D01*
X158275000Y-125100000D02*
X158275000Y-124700000D01*
X154275000Y-123300000D02*
X154275000Y-123900000D01*
X158075000Y-126700000D02*
X158775000Y-126700000D01*
%TO.C,C4*%
X192884420Y-106210000D02*
X193165580Y-106210000D01*
X192884420Y-105190000D02*
X193165580Y-105190000D01*
%TO.C,BZ1*%
X166800000Y-85100000D02*
G75*
G03*
X166800000Y-85100000I-6100000J0D01*
G01*
%TO.C,J2*%
X136720000Y-94350000D02*
X135470000Y-94350000D01*
X136430000Y-107260000D02*
X136430000Y-94640000D01*
X131220000Y-95400000D02*
X131220000Y-100950000D01*
X130460000Y-107260000D02*
X136430000Y-107260000D01*
X136420000Y-103950000D02*
X136420000Y-97950000D01*
X136420000Y-96450000D02*
X136420000Y-94650000D01*
X136420000Y-105450000D02*
X135670000Y-105450000D01*
X135670000Y-97950000D02*
X135670000Y-103950000D01*
X136430000Y-94640000D02*
X130460000Y-94640000D01*
X134170000Y-94650000D02*
X134170000Y-95400000D01*
X135670000Y-103950000D02*
X136420000Y-103950000D01*
X136420000Y-94650000D02*
X135670000Y-94650000D01*
X135670000Y-105450000D02*
X135670000Y-107250000D01*
X136720000Y-95600000D02*
X136720000Y-94350000D01*
X134170000Y-95400000D02*
X131220000Y-95400000D01*
X135670000Y-96450000D02*
X136420000Y-96450000D01*
X136420000Y-97950000D02*
X135670000Y-97950000D01*
X131220000Y-106500000D02*
X131220000Y-100950000D01*
X136420000Y-107250000D02*
X136420000Y-105450000D01*
X134170000Y-106500000D02*
X131220000Y-106500000D01*
X134170000Y-107250000D02*
X134170000Y-106500000D01*
X135670000Y-94650000D02*
X135670000Y-96450000D01*
X130460000Y-94640000D02*
X130460000Y-107260000D01*
X135670000Y-107250000D02*
X136420000Y-107250000D01*
%TO.C,R8*%
X163502500Y-123137258D02*
X163502500Y-122662742D01*
X164547500Y-123137258D02*
X164547500Y-122662742D01*
%TO.C,J1*%
X201427500Y-74160000D02*
X201427500Y-75210000D01*
X192027500Y-60310000D02*
X201227500Y-60310000D01*
X192027500Y-75010000D02*
X192027500Y-73110000D01*
X194727500Y-75010000D02*
X192027500Y-75010000D01*
X201227500Y-60310000D02*
X201227500Y-75010000D01*
X200377500Y-75210000D02*
X201427500Y-75210000D01*
X201227500Y-75010000D02*
X198627500Y-75010000D01*
X192027500Y-69110000D02*
X192027500Y-60310000D01*
%TO.C,R18*%
X189397500Y-137487742D02*
X189397500Y-137962258D01*
X188352500Y-137487742D02*
X188352500Y-137962258D01*
%TO.C,C42*%
X166234420Y-65060000D02*
X166515580Y-65060000D01*
X166234420Y-64040000D02*
X166515580Y-64040000D01*
%TO.C,J3*%
X135600000Y-124350000D02*
X136350000Y-124350000D01*
X136350000Y-118350000D02*
X135600000Y-118350000D01*
X136650000Y-116000000D02*
X136650000Y-114750000D01*
X136360000Y-115040000D02*
X130390000Y-115040000D01*
X130390000Y-127660000D02*
X136360000Y-127660000D01*
X136350000Y-125850000D02*
X135600000Y-125850000D01*
X131150000Y-115800000D02*
X131150000Y-121350000D01*
X136650000Y-114750000D02*
X135400000Y-114750000D01*
X136350000Y-124350000D02*
X136350000Y-118350000D01*
X134100000Y-115050000D02*
X134100000Y-115800000D01*
X136350000Y-127650000D02*
X136350000Y-125850000D01*
X136350000Y-116850000D02*
X136350000Y-115050000D01*
X131150000Y-126900000D02*
X131150000Y-121350000D01*
X135600000Y-125850000D02*
X135600000Y-127650000D01*
X135600000Y-127650000D02*
X136350000Y-127650000D01*
X136350000Y-115050000D02*
X135600000Y-115050000D01*
X130390000Y-115040000D02*
X130390000Y-127660000D01*
X134100000Y-126900000D02*
X131150000Y-126900000D01*
X134100000Y-115800000D02*
X131150000Y-115800000D01*
X135600000Y-116850000D02*
X136350000Y-116850000D01*
X134100000Y-127650000D02*
X134100000Y-126900000D01*
X135600000Y-118350000D02*
X135600000Y-124350000D01*
X136360000Y-127660000D02*
X136360000Y-115040000D01*
X135600000Y-115050000D02*
X135600000Y-116850000D01*
%TO.C,C25*%
X140259420Y-97810000D02*
X140540580Y-97810000D01*
X140259420Y-96790000D02*
X140540580Y-96790000D01*
%TO.C,C19*%
X166759420Y-127565000D02*
X167040580Y-127565000D01*
X166759420Y-128585000D02*
X167040580Y-128585000D01*
%TO.C,R3*%
X169912258Y-87272500D02*
X169437742Y-87272500D01*
X169912258Y-86227500D02*
X169437742Y-86227500D01*
%TO.C,C23*%
X184884420Y-116810000D02*
X185165580Y-116810000D01*
X184884420Y-115790000D02*
X185165580Y-115790000D01*
%TO.C,TP1*%
X194800000Y-112900000D02*
G75*
G03*
X194800000Y-112900000I-700000J0D01*
G01*
%TO.C,R17*%
X137965000Y-129939564D02*
X137965000Y-129485436D01*
X139435000Y-129939564D02*
X139435000Y-129485436D01*
%TO.C,R6*%
X175112258Y-97922500D02*
X174637742Y-97922500D01*
X175112258Y-96877500D02*
X174637742Y-96877500D01*
%TO.C,L5*%
X161000000Y-76900000D02*
X163750000Y-76900000D01*
X161000000Y-64100000D02*
X163750000Y-64100000D01*
X152250000Y-64100000D02*
X155000000Y-64100000D01*
X151600000Y-76250000D02*
X151600000Y-64750000D01*
X164400000Y-64750000D02*
X164400000Y-76250000D01*
X152250000Y-76900000D02*
X155000000Y-76900000D01*
X151600000Y-76250000D02*
G75*
G03*
X152250000Y-76900000I650001J1D01*
G01*
X164400000Y-64750000D02*
G75*
G03*
X163750000Y-64100000I-650001J-1D01*
G01*
X163750000Y-76900000D02*
G75*
G03*
X164400000Y-76250000I-1J650001D01*
G01*
X152250000Y-64100000D02*
G75*
G03*
X151600000Y-64750000I1J-650001D01*
G01*
%TO.C,C37*%
X180990000Y-75425580D02*
X180990000Y-75144420D01*
X179970000Y-75425580D02*
X179970000Y-75144420D01*
%TO.C,RV4*%
X209705000Y-100995000D02*
X206675000Y-100995000D01*
X205375000Y-107835000D02*
X202465000Y-107835000D01*
X209705000Y-107835000D02*
X209705000Y-100995000D01*
X202465000Y-107835000D02*
X202465000Y-100995000D01*
X209705000Y-107835000D02*
X206675000Y-107835000D01*
X205375000Y-100995000D02*
X202465000Y-100995000D01*
%TO.C,TP4*%
X162300000Y-97000000D02*
G75*
G03*
X162300000Y-97000000I-700000J0D01*
G01*
%TO.C,TP3*%
X194800000Y-115000000D02*
G75*
G03*
X194800000Y-115000000I-700000J0D01*
G01*
%TO.C,Y1*%
X196100000Y-105400000D02*
X199400000Y-105400000D01*
X199400000Y-105400000D02*
X199400000Y-101400000D01*
%TO.C,Y2*%
X168525000Y-124975000D02*
X168525000Y-120975000D01*
X165225000Y-124975000D02*
X168525000Y-124975000D01*
%TO.C,Q1*%
X170050000Y-85710000D02*
X171725000Y-85710000D01*
X170050000Y-82590000D02*
X170700000Y-82590000D01*
X170050000Y-82590000D02*
X169400000Y-82590000D01*
X170050000Y-85710000D02*
X169400000Y-85710000D01*
%TO.C,C8*%
X197310000Y-109784420D02*
X197310000Y-110065580D01*
X196290000Y-109784420D02*
X196290000Y-110065580D01*
D13*
%TO.C,U5*%
X145452500Y-96630000D02*
X149852500Y-96630000D01*
X145452500Y-106970000D02*
X149852500Y-106970000D01*
D14*
X143512500Y-97265000D02*
G75*
G03*
X143512500Y-97265000I-100000J0D01*
G01*
D12*
%TO.C,U3*%
X174985000Y-126685000D02*
X174260000Y-126685000D01*
X170765000Y-126685000D02*
X171490000Y-126685000D01*
X174985000Y-123190000D02*
X174985000Y-122465000D01*
X170765000Y-122465000D02*
X171490000Y-122465000D01*
X174985000Y-125960000D02*
X174985000Y-126685000D01*
X170765000Y-123190000D02*
X170765000Y-122465000D01*
X170765000Y-125960000D02*
X170765000Y-126685000D01*
%TO.C,RV1*%
X154270000Y-107000000D02*
X154270000Y-106400000D01*
X157170000Y-107000000D02*
X154270000Y-107000000D01*
X157170000Y-103800000D02*
X154270000Y-103800000D01*
X154270000Y-103800000D02*
X154270000Y-104400000D01*
X158770000Y-107200000D02*
X158770000Y-106500000D01*
X158270000Y-105600000D02*
X158270000Y-105200000D01*
X158070000Y-107200000D02*
X158770000Y-107200000D01*
%TO.C,C11*%
X165690000Y-101215580D02*
X165690000Y-100934420D01*
X166710000Y-101215580D02*
X166710000Y-100934420D01*
%TO.C,R12*%
X139965000Y-108627064D02*
X139965000Y-108172936D01*
X141435000Y-108627064D02*
X141435000Y-108172936D01*
%TO.C,C7*%
X197584420Y-99990000D02*
X197865580Y-99990000D01*
X197584420Y-101010000D02*
X197865580Y-101010000D01*
%TO.C,C17*%
X167040580Y-126385000D02*
X166759420Y-126385000D01*
X167040580Y-125365000D02*
X166759420Y-125365000D01*
%TO.C,C29*%
X140540580Y-98290000D02*
X140259420Y-98290000D01*
X140540580Y-99310000D02*
X140259420Y-99310000D01*
%TO.C,RV3*%
X209705000Y-115335000D02*
X206675000Y-115335000D01*
X205375000Y-115335000D02*
X202465000Y-115335000D01*
X209705000Y-108495000D02*
X206675000Y-108495000D01*
X209705000Y-115335000D02*
X209705000Y-108495000D01*
X202465000Y-115335000D02*
X202465000Y-108495000D01*
X205375000Y-108495000D02*
X202465000Y-108495000D01*
%TO.C,C32*%
X140540580Y-118490000D02*
X140259420Y-118490000D01*
X140540580Y-119510000D02*
X140259420Y-119510000D01*
%TO.C,U1*%
X189910000Y-97290000D02*
X189910000Y-97740000D01*
X189910000Y-104060000D02*
X191200000Y-104060000D01*
X183140000Y-104510000D02*
X182690000Y-104510000D01*
X189460000Y-97290000D02*
X189910000Y-97290000D01*
X189910000Y-104510000D02*
X189910000Y-104060000D01*
X183140000Y-97290000D02*
X182690000Y-97290000D01*
X189460000Y-104510000D02*
X189910000Y-104510000D01*
X182690000Y-104510000D02*
X182690000Y-104060000D01*
X182690000Y-97290000D02*
X182690000Y-97740000D01*
%TO.C,R2*%
X197877500Y-110162258D02*
X197877500Y-109687742D01*
X198922500Y-110162258D02*
X198922500Y-109687742D01*
%TO.C,C9*%
X165690000Y-97684420D02*
X165690000Y-97965580D01*
X166710000Y-97684420D02*
X166710000Y-97965580D01*
%TO.C,TP5*%
X176900000Y-93700000D02*
G75*
G03*
X176900000Y-93700000I-700000J0D01*
G01*
%TO.C,R24*%
X186422500Y-137487742D02*
X186422500Y-137962258D01*
X185377500Y-137487742D02*
X185377500Y-137962258D01*
%TO.C,R11*%
X197277500Y-137487742D02*
X197277500Y-137962258D01*
X198322500Y-137487742D02*
X198322500Y-137962258D01*
%TO.C,C38*%
X142550000Y-77335000D02*
X146460000Y-77335000D01*
X146460000Y-77335000D02*
X146460000Y-75465000D01*
X146460000Y-75465000D02*
X142550000Y-75465000D01*
%TO.C,R10*%
X201162742Y-133322500D02*
X201637258Y-133322500D01*
X201162742Y-132277500D02*
X201637258Y-132277500D01*
%TO.C,C6*%
X197715580Y-106810000D02*
X197434420Y-106810000D01*
X197715580Y-105790000D02*
X197434420Y-105790000D01*
%TO.C,C16*%
X166809420Y-119565000D02*
X167090580Y-119565000D01*
X166809420Y-120585000D02*
X167090580Y-120585000D01*
%TO.C,L4*%
X194662779Y-95390000D02*
X194337221Y-95390000D01*
X194662779Y-96410000D02*
X194337221Y-96410000D01*
%TO.C,C34*%
X194346920Y-98010000D02*
X194628080Y-98010000D01*
X194346920Y-96990000D02*
X194628080Y-96990000D01*
%TO.C,D1*%
X197065000Y-133812500D02*
X197065000Y-136097500D01*
X197065000Y-136097500D02*
X198535000Y-136097500D01*
X198535000Y-136097500D02*
X198535000Y-133812500D01*
%TO.C,R15*%
X139965000Y-129939564D02*
X139965000Y-129485436D01*
X141435000Y-129939564D02*
X141435000Y-129485436D01*
%TO.C,R5*%
X174637742Y-98477500D02*
X175112258Y-98477500D01*
X174637742Y-99522500D02*
X175112258Y-99522500D01*
%TO.C,SW2*%
X138875000Y-79796667D02*
X137605000Y-79796667D01*
X133195000Y-78590000D02*
X133195000Y-79796667D01*
X138275000Y-78590000D02*
X138275000Y-79796667D01*
X131050000Y-76990000D02*
X131050000Y-83810000D01*
X136095000Y-78590000D02*
X136095000Y-79796667D01*
X138155000Y-78590000D02*
X138155000Y-79796667D01*
X133795000Y-82210000D02*
X133795000Y-78590000D01*
X137915000Y-78590000D02*
X137915000Y-79796667D01*
X137605000Y-78590000D02*
X137605000Y-82210000D01*
X133075000Y-78590000D02*
X133075000Y-79796667D01*
X133315000Y-78590000D02*
X133315000Y-79796667D01*
X136215000Y-78590000D02*
X136215000Y-79796667D01*
X137795000Y-78590000D02*
X137795000Y-79796667D01*
X138515000Y-78590000D02*
X138515000Y-79796667D01*
X140350000Y-76990000D02*
X139040000Y-76990000D01*
X138395000Y-78590000D02*
X138395000Y-79796667D01*
X136335000Y-82210000D02*
X136335000Y-78590000D01*
X138755000Y-78590000D02*
X138755000Y-79796667D01*
X140350000Y-83810000D02*
X139040000Y-83810000D01*
X135375000Y-78590000D02*
X135375000Y-79796667D01*
X135495000Y-78590000D02*
X135495000Y-79796667D01*
X138875000Y-78590000D02*
X137605000Y-78590000D01*
X138875000Y-82210000D02*
X138875000Y-78590000D01*
X133435000Y-78590000D02*
X133435000Y-79796667D01*
X132955000Y-78590000D02*
X132955000Y-79796667D01*
X135975000Y-78590000D02*
X135975000Y-79796667D01*
X133555000Y-78590000D02*
X133555000Y-79796667D01*
X138035000Y-78590000D02*
X138035000Y-79796667D01*
X137440000Y-83810000D02*
X136500000Y-83810000D01*
X136335000Y-79796667D02*
X135065000Y-79796667D01*
X140590000Y-76750000D02*
X140590000Y-78133000D01*
X135735000Y-78590000D02*
X135735000Y-79796667D01*
X133795000Y-79796667D02*
X132525000Y-79796667D01*
X133675000Y-78590000D02*
X133675000Y-79796667D01*
X132360000Y-76990000D02*
X131050000Y-76990000D01*
X137605000Y-82210000D02*
X138875000Y-82210000D01*
X135855000Y-78590000D02*
X135855000Y-79796667D01*
X135065000Y-82210000D02*
X136335000Y-82210000D01*
X135255000Y-78590000D02*
X135255000Y-79796667D01*
X135615000Y-78590000D02*
X135615000Y-79796667D01*
X132595000Y-78590000D02*
X132595000Y-79796667D01*
X137675000Y-78590000D02*
X137675000Y-79796667D01*
X135065000Y-78590000D02*
X135065000Y-82210000D01*
X132715000Y-78590000D02*
X132715000Y-79796667D01*
X132360000Y-83810000D02*
X131050000Y-83810000D01*
X138635000Y-78590000D02*
X138635000Y-79796667D01*
X134900000Y-83810000D02*
X133960000Y-83810000D01*
X140350000Y-76990000D02*
X140350000Y-83810000D01*
X133795000Y-78590000D02*
X132525000Y-78590000D01*
X132525000Y-82210000D02*
X133795000Y-82210000D01*
X135135000Y-78590000D02*
X135135000Y-79796667D01*
X134900000Y-76990000D02*
X133960000Y-76990000D01*
X136335000Y-78590000D02*
X135065000Y-78590000D01*
X132835000Y-78590000D02*
X132835000Y-79796667D01*
X132525000Y-78590000D02*
X132525000Y-82210000D01*
X140590000Y-76750000D02*
X139207000Y-76750000D01*
X137440000Y-76990000D02*
X136500000Y-76990000D01*
%TO.C,L1*%
X173350279Y-130185000D02*
X173024721Y-130185000D01*
X173350279Y-129165000D02*
X173024721Y-129165000D01*
%TO.C,TP2*%
X162300000Y-99200000D02*
G75*
G03*
X162300000Y-99200000I-700000J0D01*
G01*
%TO.C,R13*%
X137965000Y-108627064D02*
X137965000Y-108172936D01*
X139435000Y-108627064D02*
X139435000Y-108172936D01*
%TO.C,R21*%
X166127742Y-66642500D02*
X166602258Y-66642500D01*
X166127742Y-65597500D02*
X166602258Y-65597500D01*
%TO.C,R20*%
X188477500Y-109762742D02*
X188477500Y-110237258D01*
X189522500Y-109762742D02*
X189522500Y-110237258D01*
%TO.C,C41*%
X142690000Y-71065563D02*
X142690000Y-63410000D01*
X143754437Y-72130000D02*
X145540000Y-72130000D01*
X144040000Y-72870000D02*
X145040000Y-72870000D01*
X151410000Y-71065563D02*
X151410000Y-63410000D01*
X144540000Y-73370000D02*
X144540000Y-72370000D01*
X143754437Y-72130000D02*
X142690000Y-71065563D01*
X151410000Y-63410000D02*
X148560000Y-63410000D01*
X150345563Y-72130000D02*
X148560000Y-72130000D01*
X150345563Y-72130000D02*
X151410000Y-71065563D01*
X142690000Y-63410000D02*
X145540000Y-63410000D01*
%TO.C,R23*%
X194302500Y-137487742D02*
X194302500Y-137962258D01*
X195347500Y-137487742D02*
X195347500Y-137962258D01*
%TO.C,C20*%
X166759420Y-129165000D02*
X167040580Y-129165000D01*
X166759420Y-130185000D02*
X167040580Y-130185000D01*
%TO.C,SW5*%
X151850000Y-134600000D02*
X151400000Y-134150000D01*
X151850000Y-139200000D02*
X151400000Y-139650000D01*
X152900000Y-135900000D02*
X152900000Y-137900000D01*
X148900000Y-139650000D02*
X151400000Y-139650000D01*
X148450000Y-134600000D02*
X148900000Y-134150000D01*
X148900000Y-134150000D02*
X151400000Y-134150000D01*
X148450000Y-139200000D02*
X148900000Y-139650000D01*
X147400000Y-135900000D02*
X147400000Y-137900000D01*
%TD*%
M02*
