M48
; DRILL file {KiCad (6.0.0)} date Wed Mar  2 14:40:57 2022
; FORMAT={-:-/ absolute / metric / decimal}
; #@! TF.CreationDate,2022-03-02T14:40:57+07:00
; #@! TF.GenerationSoftware,Kicad,Pcbnew,(6.0.0)
; #@! TF.FileFunction,Plated,1,4,PTH
FMAT,2
METRIC
; #@! TA.AperFunction,Plated,PTH,ViaDrill
T1C0.300
; #@! TA.AperFunction,Plated,PTH,ComponentDrill
T2C0.300
; #@! TA.AperFunction,Plated,PTH,ViaDrill
T3C0.400
; #@! TA.AperFunction,Plated,PTH,ComponentDrill
T4C0.500
; #@! TA.AperFunction,Plated,PTH,ComponentDrill
T5C0.800
; #@! TA.AperFunction,Plated,PTH,ComponentDrill
T6C0.950
; #@! TA.AperFunction,Plated,PTH,ComponentDrill
T7C1.000
; #@! TA.AperFunction,Plated,PTH,ComponentDrill
T8C1.190
; #@! TA.AperFunction,Plated,PTH,ComponentDrill
T9C3.000
%
G90
G05
T1
X173.9Y-116.9
X173.9Y-121.3
X174.7Y-116.3
X174.8Y-121.1
X175.9Y-122.8
X176.0Y-125.3
X184.425Y-106.8
X184.5Y-109.6
T2
X146.352Y-97.9
X146.352Y-99.2
X146.352Y-100.5
X146.352Y-101.8
X146.352Y-103.1
X146.352Y-104.4
X146.352Y-105.7
X146.425Y-118.1
X146.425Y-119.4
X146.425Y-120.7
X146.425Y-122.0
X146.425Y-123.3
X146.425Y-124.6
X146.425Y-125.9
X147.653Y-97.9
X147.653Y-99.2
X147.653Y-100.5
X147.653Y-101.8
X147.653Y-103.1
X147.653Y-104.4
X147.653Y-105.7
X147.725Y-118.1
X147.725Y-119.4
X147.725Y-120.7
X147.725Y-122.0
X147.725Y-123.3
X147.725Y-124.6
X147.725Y-125.9
X148.952Y-97.9
X148.952Y-99.2
X148.952Y-100.5
X148.952Y-101.8
X148.952Y-103.1
X148.952Y-104.4
X148.952Y-105.7
X149.025Y-118.1
X149.025Y-119.4
X149.025Y-120.7
X149.025Y-122.0
X149.025Y-123.3
X149.025Y-124.6
X149.025Y-125.9
X165.525Y-134.3
T3
X131.0Y-67.0
X131.0Y-69.0
X131.0Y-71.0
X131.0Y-73.0
X131.0Y-89.0
X131.0Y-91.0
X131.0Y-93.0
X131.0Y-109.0
X131.0Y-111.0
X131.0Y-113.0
X131.0Y-129.0
X131.0Y-132.0
X133.0Y-69.0
X133.0Y-129.0
X133.0Y-132.0
X134.0Y-109.0
X134.0Y-111.0
X134.0Y-113.0
X135.0Y-89.0
X135.0Y-91.0
X135.0Y-93.0
X135.75Y-68.5
X135.75Y-98.55
X136.0Y-118.9
X136.0Y-128.8
X136.0Y-132.0
X136.1Y-107.4
X136.7Y-123.7
X136.7Y-125.9
X136.9Y-103.3
X136.9Y-106.2
X137.0Y-111.0
X137.0Y-113.0
X137.6Y-109.35
X138.0Y-61.0
X138.0Y-64.0
X138.0Y-67.0
X138.0Y-133.0
X138.5Y-137.9
X138.7Y-131.45
X138.8Y-97.0
X138.8Y-117.05
X138.9Y-91.0
X138.95Y-118.5
X138.95Y-119.25
X139.0Y-89.0
X139.0Y-93.0
X139.0Y-98.35
X139.05Y-99.1
X139.1Y-105.2
X139.15Y-104.4
X139.65Y-124.45
X139.65Y-125.2
X139.95Y-104.4
X140.7Y-124.45
X140.7Y-131.45
X141.0Y-61.0
X141.0Y-64.0
X141.0Y-67.0
X141.0Y-127.55
X141.0Y-133.0
X141.5Y-105.5
X141.5Y-106.3
X141.55Y-126.85
X141.85Y-87.1
X141.85Y-88.0
X141.85Y-109.3
X142.1Y-74.2
X142.4Y-76.45
X142.526Y-117.5
X142.576Y-97.4
X142.8Y-87.1
X142.8Y-88.0
X142.9Y-72.7
X143.0Y-130.0
X143.0Y-133.0
X143.2Y-75.2
X143.2Y-77.45
X143.325Y-106.0
X143.5Y-126.7
X143.8Y-70.2
X144.4Y-89.1
X144.4Y-93.75
X144.4Y-109.45
X144.45Y-114.0
X144.75Y-89.8
X144.75Y-110.15
X144.8Y-138.0
X145.1Y-64.0
X145.15Y-89.1
X145.15Y-93.75
X145.15Y-109.45
X145.15Y-114.0
X146.6Y-85.0
X146.6Y-85.95
X146.6Y-86.9
X146.9Y-66.9
X147.0Y-134.1
X147.75Y-89.0
X147.8Y-130.5
X148.65Y-83.5
X148.8Y-64.0
X150.0Y-86.0
X150.0Y-87.5
X150.0Y-89.0
X150.05Y-84.7
X150.4Y-96.9
X150.91Y-114.09
X151.05Y-110.35
X151.55Y-83.4
X151.8Y-97.5
X152.25Y-86.0
X152.25Y-87.5
X152.25Y-89.0
X152.3Y-117.5
X152.3Y-125.8
X152.4Y-105.4
X152.4Y-124.6
X153.0Y-83.5
X153.2Y-104.7
X153.3Y-134.1
X153.4Y-72.7
X153.65Y-93.05
X153.7Y-90.8
X153.89Y-111.93
X154.1Y-91.95
X154.149Y-75.3
X154.2Y-70.2
X154.25Y-84.5
X154.25Y-86.0
X154.25Y-87.5
X154.25Y-89.0
X155.5Y-138.0
X155.63Y-80.77
X156.1Y-81.9
X156.6Y-84.4
X156.6Y-98.7
X156.9Y-106.4
X157.04Y-104.41
X157.1Y-123.9
X157.1Y-125.8
X157.6Y-83.9
X157.8Y-99.3
X158.1Y-70.5
X158.11Y-81.29
X158.7Y-84.1
X158.9Y-62.2
X159.8Y-100.1
X159.8Y-107.1
X160.8Y-83.9
X160.9Y-70.6
X160.9Y-106.6
X161.0Y-62.2
X161.6Y-96.15
X161.6Y-100.35
X161.8Y-129.2
X161.8Y-138.05
X162.0Y-123.5
X162.0Y-124.5
X162.0Y-125.5
X162.0Y-126.5
X162.0Y-127.5
X162.1Y-107.6
X163.0Y-127.5
X163.1Y-62.2
X163.1Y-63.9
X163.1Y-65.5
X163.6Y-67.7
X163.8Y-71.4
X163.8Y-101.9
X164.0Y-127.5
X164.0Y-130.5
X164.0Y-131.5
X164.0Y-132.5
X164.0Y-133.5
X164.0Y-134.5
X164.0Y-135.5
X164.0Y-136.5
X164.0Y-137.5
X164.0Y-138.5
X164.73Y-67.7
X164.8Y-125.8
X164.9Y-71.4
X165.2Y-131.1
X165.29Y-128.05
X165.4Y-98.5
X165.5Y-97.2
X165.75Y-103.75
X166.2Y-102.7
X166.25Y-96.25
X166.6Y-104.7
X167.7Y-118.3
X167.8Y-97.1
X167.8Y-102.3
X167.8Y-104.6
X168.5Y-117.5
X169.16Y-114.18
X169.36Y-75.55
X169.39Y-72.94
X169.48Y-74.21
X169.5Y-117.5
X169.63Y-124.25
X170.2Y-119.0
X170.2Y-120.2
X170.5Y-117.5
X170.95Y-83.85
X171.3Y-97.0
X171.3Y-103.1
X171.5Y-117.5
X172.3Y-83.25
X172.5Y-117.5
X172.9Y-112.1
X173.6Y-103.1
X175.7Y-99.9
X176.3Y-92.624
X176.5Y-97.4
X176.6Y-124.3
X176.8Y-90.0
X177.93Y-128.05
X177.99Y-129.31
X178.5Y-117.5
X178.72Y-122.15
X178.97Y-127.07
X179.2Y-96.05
X179.3Y-94.2
X179.5Y-117.5
X180.25Y-93.4
X180.3Y-97.0
X180.5Y-117.5
X180.5Y-118.5
X180.5Y-119.5
X180.5Y-120.5
X180.5Y-121.5
X180.5Y-122.5
X180.5Y-123.5
X180.5Y-124.5
X180.5Y-125.5
X180.5Y-126.5
X180.5Y-127.5
X180.5Y-128.5
X180.5Y-129.5
X180.5Y-132.0
X180.5Y-133.0
X180.5Y-134.0
X180.5Y-135.0
X180.5Y-136.0
X180.5Y-137.0
X180.5Y-138.0
X180.5Y-139.0
X180.6Y-85.3
X181.0Y-61.0
X181.0Y-64.0
X181.0Y-67.0
X181.8Y-73.68
X181.8Y-129.7
X181.9Y-85.2
X182.1Y-93.9
X182.57Y-73.69
X182.79Y-63.98
X183.0Y-107.8
X183.5Y-85.6
X183.5Y-91.9
X183.5Y-93.8
X183.8Y-103.1
X184.2Y-115.4
X184.3Y-131.8
X184.45Y-86.75
X184.45Y-98.7
X184.5Y-77.8
X185.0Y-61.0
X185.0Y-67.0
X185.1Y-138.55
X185.5Y-77.8
X185.6Y-115.5
X185.9Y-101.6
X185.9Y-133.0
X186.5Y-77.8
X186.7Y-102.5
X187.4Y-63.99
X187.4Y-111.7
X187.5Y-77.8
X187.5Y-103.3
X188.1Y-138.6
X188.7Y-103.2
X188.79Y-111.91
X188.8Y-100.7
X188.97Y-108.43
X189.0Y-61.0
X189.0Y-64.0
X189.0Y-67.0
X189.0Y-132.7
X189.85Y-105.75
X191.0Y-138.6
X191.07Y-77.2
X191.08Y-78.6
X191.5Y-107.5
X191.8Y-132.7
X192.0Y-61.0
X192.0Y-64.0
X192.0Y-67.0
X192.8Y-104.8
X194.1Y-106.4
X194.1Y-138.5
X194.6Y-100.5
X194.8Y-132.5
X195.0Y-61.0
X195.0Y-64.0
X195.6Y-106.5
X196.0Y-95.4
X196.0Y-96.2
X196.0Y-97.5
X196.8Y-108.4
X196.8Y-111.6
X196.9Y-138.55
X198.0Y-61.0
X198.0Y-64.0
X198.5Y-98.85
X199.3Y-110.8
X199.8Y-132.8
X201.0Y-61.0
X201.0Y-64.0
X201.0Y-67.0
X201.0Y-70.0
X202.2Y-134.5
T4
X131.75Y-64.0
X131.75Y-136.0
X132.409Y-62.409
X132.409Y-65.591
X132.409Y-134.409
X132.409Y-137.591
X134.0Y-61.75
X134.0Y-66.25
X134.0Y-133.75
X134.0Y-138.25
X135.591Y-62.409
X135.591Y-65.591
X135.591Y-134.409
X135.591Y-137.591
X136.25Y-64.0
X136.25Y-136.0
X203.75Y-64.0
X203.75Y-136.0
X204.409Y-62.409
X204.409Y-65.591
X204.409Y-134.409
X204.409Y-137.591
X206.0Y-61.75
X206.0Y-66.25
X206.0Y-133.75
X206.0Y-138.25
X207.591Y-62.409
X207.591Y-65.591
X207.591Y-134.409
X207.591Y-137.591
X208.25Y-64.0
X208.25Y-136.0
T5
X203.485Y-96.915
X203.485Y-104.415
X203.485Y-111.915
X206.025Y-94.375
X206.025Y-99.455
X206.025Y-101.875
X206.025Y-106.955
X206.025Y-109.375
X206.025Y-114.455
T6
X133.9Y-117.6
X133.9Y-120.1
X133.9Y-122.6
X133.9Y-125.1
X133.97Y-97.2
X133.97Y-99.7
X133.97Y-102.2
X133.97Y-104.7
T7
X160.7Y-81.3
X160.7Y-88.9
X203.1Y-82.86
X203.1Y-85.4
X203.1Y-87.94
X203.1Y-90.48
X205.7Y-82.88
X205.7Y-85.42
X205.7Y-87.96
X205.7Y-90.5
X208.24Y-82.88
X208.24Y-85.42
X208.24Y-87.96
X208.24Y-90.5
T8
X206.5Y-69.18
X206.5Y-71.72
X206.5Y-74.26
X206.5Y-76.8
T9
X134.0Y-64.0
X134.0Y-136.0
X206.0Y-64.0
X206.0Y-136.0
T7
G00X191.927Y-70.11
M15
G01X191.927Y-72.11
M16
G05
G00X197.627Y-68.11
M15
G01X195.627Y-68.11
M16
G05
G00X197.627Y-74.11
M15
G01X195.627Y-74.11
M16
G05
T0
M30
