%TF.GenerationSoftware,KiCad,Pcbnew,(6.0.0)*%
%TF.CreationDate,2022-03-02T14:41:02+07:00*%
%TF.ProjectId,balancingRobot_sabaiCode,62616c61-6e63-4696-9e67-526f626f745f,rev?*%
%TF.SameCoordinates,Original*%
%TF.FileFunction,Paste,Top*%
%TF.FilePolarity,Positive*%
%FSLAX46Y46*%
G04 Gerber Fmt 4.6, Leading zero omitted, Abs format (unit mm)*
G04 Created by KiCad (PCBNEW (6.0.0)) date 2022-03-02 14:41:02*
%MOMM*%
%LPD*%
G01*
G04 APERTURE LIST*
G04 Aperture macros list*
%AMRoundRect*
0 Rectangle with rounded corners*
0 $1 Rounding radius*
0 $2 $3 $4 $5 $6 $7 $8 $9 X,Y pos of 4 corners*
0 Add a 4 corners polygon primitive as box body*
4,1,4,$2,$3,$4,$5,$6,$7,$8,$9,$2,$3,0*
0 Add four circle primitives for the rounded corners*
1,1,$1+$1,$2,$3*
1,1,$1+$1,$4,$5*
1,1,$1+$1,$6,$7*
1,1,$1+$1,$8,$9*
0 Add four rect primitives between the rounded corners*
20,1,$1+$1,$2,$3,$4,$5,0*
20,1,$1+$1,$4,$5,$6,$7,0*
20,1,$1+$1,$6,$7,$8,$9,0*
20,1,$1+$1,$8,$9,$2,$3,0*%
G04 Aperture macros list end*
%ADD10C,0.010000*%
%ADD11RoundRect,0.200000X-0.275000X0.200000X-0.275000X-0.200000X0.275000X-0.200000X0.275000X0.200000X0*%
%ADD12RoundRect,0.200000X-0.200000X-0.275000X0.200000X-0.275000X0.200000X0.275000X-0.200000X0.275000X0*%
%ADD13RoundRect,0.225000X0.250000X-0.225000X0.250000X0.225000X-0.250000X0.225000X-0.250000X-0.225000X0*%
%ADD14R,1.700000X1.000000*%
%ADD15RoundRect,0.250000X1.000000X-1.950000X1.000000X1.950000X-1.000000X1.950000X-1.000000X-1.950000X0*%
%ADD16R,2.000000X1.500000*%
%ADD17R,2.000000X3.800000*%
%ADD18RoundRect,0.225000X-0.225000X-0.250000X0.225000X-0.250000X0.225000X0.250000X-0.225000X0.250000X0*%
%ADD19RoundRect,0.218750X0.256250X-0.218750X0.256250X0.218750X-0.256250X0.218750X-0.256250X-0.218750X0*%
%ADD20RoundRect,0.075000X-0.075000X0.350000X-0.075000X-0.350000X0.075000X-0.350000X0.075000X0.350000X0*%
%ADD21RoundRect,0.075000X-0.350000X-0.075000X0.350000X-0.075000X0.350000X0.075000X-0.350000X0.075000X0*%
%ADD22RoundRect,0.250000X0.475000X-0.250000X0.475000X0.250000X-0.475000X0.250000X-0.475000X-0.250000X0*%
%ADD23RoundRect,0.250000X-0.450000X-0.425000X0.450000X-0.425000X0.450000X0.425000X-0.450000X0.425000X0*%
%ADD24RoundRect,0.225000X0.225000X0.250000X-0.225000X0.250000X-0.225000X-0.250000X0.225000X-0.250000X0*%
%ADD25R,1.000000X1.300000*%
%ADD26R,1.300000X1.000000*%
%ADD27RoundRect,0.218750X-0.218750X-0.256250X0.218750X-0.256250X0.218750X0.256250X-0.218750X0.256250X0*%
%ADD28RoundRect,0.200000X0.200000X0.275000X-0.200000X0.275000X-0.200000X-0.275000X0.200000X-0.275000X0*%
%ADD29R,1.800000X2.500000*%
%ADD30R,5.250000X4.550000*%
%ADD31R,1.100000X4.600000*%
%ADD32RoundRect,0.225000X-0.250000X0.225000X-0.250000X-0.225000X0.250000X-0.225000X0.250000X0.225000X0*%
%ADD33RoundRect,0.218750X0.218750X0.256250X-0.218750X0.256250X-0.218750X-0.256250X0.218750X-0.256250X0*%
%ADD34RoundRect,0.250000X-1.950000X-1.000000X1.950000X-1.000000X1.950000X1.000000X-1.950000X1.000000X0*%
%ADD35RoundRect,0.150000X-0.587500X-0.150000X0.587500X-0.150000X0.587500X0.150000X-0.587500X0.150000X0*%
%ADD36R,1.200000X1.200000*%
%ADD37R,1.500000X1.600000*%
%ADD38RoundRect,0.200000X0.275000X-0.200000X0.275000X0.200000X-0.275000X0.200000X-0.275000X-0.200000X0*%
%ADD39RoundRect,0.250000X0.450000X-0.262500X0.450000X0.262500X-0.450000X0.262500X-0.450000X-0.262500X0*%
%ADD40RoundRect,0.250000X-0.250000X0.750000X-0.250000X-0.750000X0.250000X-0.750000X0.250000X0.750000X0*%
%ADD41R,5.400000X2.900000*%
%ADD42R,1.200000X1.400000*%
%ADD43RoundRect,0.150000X0.587500X0.150000X-0.587500X0.150000X-0.587500X-0.150000X0.587500X-0.150000X0*%
%ADD44RoundRect,0.250000X-0.255000X0.255000X-0.255000X-0.255000X0.255000X-0.255000X0.255000X0.255000X0*%
%ADD45RoundRect,0.062500X-0.062500X0.350000X-0.062500X-0.350000X0.062500X-0.350000X0.062500X0.350000X0*%
%ADD46RoundRect,0.062500X-0.350000X0.062500X-0.350000X-0.062500X0.350000X-0.062500X0.350000X0.062500X0*%
%ADD47RoundRect,0.075000X0.662500X0.075000X-0.662500X0.075000X-0.662500X-0.075000X0.662500X-0.075000X0*%
%ADD48RoundRect,0.075000X0.075000X0.662500X-0.075000X0.662500X-0.075000X-0.662500X0.075000X-0.662500X0*%
%ADD49RoundRect,0.250000X0.450000X0.425000X-0.450000X0.425000X-0.450000X-0.425000X0.450000X-0.425000X0*%
%ADD50R,1.120000X2.440000*%
G04 APERTURE END LIST*
D10*
%TO.C,U6*%
X144150000Y-126100000D02*
X145700000Y-126100000D01*
X145700000Y-126100000D02*
X145700000Y-126350000D01*
X145700000Y-126350000D02*
X144150000Y-126350000D01*
X144150000Y-126350000D02*
X144150000Y-126100000D01*
G36*
X145700000Y-126350000D02*
G01*
X144150000Y-126350000D01*
X144150000Y-126100000D01*
X145700000Y-126100000D01*
X145700000Y-126350000D01*
G37*
X145700000Y-126350000D02*
X144150000Y-126350000D01*
X144150000Y-126100000D01*
X145700000Y-126100000D01*
X145700000Y-126350000D01*
X149750000Y-120250000D02*
X151300000Y-120250000D01*
X151300000Y-120250000D02*
X151300000Y-120500000D01*
X151300000Y-120500000D02*
X149750000Y-120500000D01*
X149750000Y-120500000D02*
X149750000Y-120250000D01*
G36*
X151300000Y-120500000D02*
G01*
X149750000Y-120500000D01*
X149750000Y-120250000D01*
X151300000Y-120250000D01*
X151300000Y-120500000D01*
G37*
X151300000Y-120500000D02*
X149750000Y-120500000D01*
X149750000Y-120250000D01*
X151300000Y-120250000D01*
X151300000Y-120500000D01*
X144150000Y-122850000D02*
X145700000Y-122850000D01*
X145700000Y-122850000D02*
X145700000Y-123100000D01*
X145700000Y-123100000D02*
X144150000Y-123100000D01*
X144150000Y-123100000D02*
X144150000Y-122850000D01*
G36*
X145700000Y-123100000D02*
G01*
X144150000Y-123100000D01*
X144150000Y-122850000D01*
X145700000Y-122850000D01*
X145700000Y-123100000D01*
G37*
X145700000Y-123100000D02*
X144150000Y-123100000D01*
X144150000Y-122850000D01*
X145700000Y-122850000D01*
X145700000Y-123100000D01*
X149750000Y-126100000D02*
X151300000Y-126100000D01*
X151300000Y-126100000D02*
X151300000Y-126350000D01*
X151300000Y-126350000D02*
X149750000Y-126350000D01*
X149750000Y-126350000D02*
X149750000Y-126100000D01*
G36*
X151300000Y-126350000D02*
G01*
X149750000Y-126350000D01*
X149750000Y-126100000D01*
X151300000Y-126100000D01*
X151300000Y-126350000D01*
G37*
X151300000Y-126350000D02*
X149750000Y-126350000D01*
X149750000Y-126100000D01*
X151300000Y-126100000D01*
X151300000Y-126350000D01*
X144150000Y-118300000D02*
X145700000Y-118300000D01*
X145700000Y-118300000D02*
X145700000Y-118550000D01*
X145700000Y-118550000D02*
X144150000Y-118550000D01*
X144150000Y-118550000D02*
X144150000Y-118300000D01*
G36*
X145700000Y-118550000D02*
G01*
X144150000Y-118550000D01*
X144150000Y-118300000D01*
X145700000Y-118300000D01*
X145700000Y-118550000D01*
G37*
X145700000Y-118550000D02*
X144150000Y-118550000D01*
X144150000Y-118300000D01*
X145700000Y-118300000D01*
X145700000Y-118550000D01*
X149750000Y-124800000D02*
X151300000Y-124800000D01*
X151300000Y-124800000D02*
X151300000Y-125050000D01*
X151300000Y-125050000D02*
X149750000Y-125050000D01*
X149750000Y-125050000D02*
X149750000Y-124800000D01*
G36*
X151300000Y-125050000D02*
G01*
X149750000Y-125050000D01*
X149750000Y-124800000D01*
X151300000Y-124800000D01*
X151300000Y-125050000D01*
G37*
X151300000Y-125050000D02*
X149750000Y-125050000D01*
X149750000Y-124800000D01*
X151300000Y-124800000D01*
X151300000Y-125050000D01*
X149750000Y-122200000D02*
X151300000Y-122200000D01*
X151300000Y-122200000D02*
X151300000Y-122450000D01*
X151300000Y-122450000D02*
X149750000Y-122450000D01*
X149750000Y-122450000D02*
X149750000Y-122200000D01*
G36*
X151300000Y-122450000D02*
G01*
X149750000Y-122450000D01*
X149750000Y-122200000D01*
X151300000Y-122200000D01*
X151300000Y-122450000D01*
G37*
X151300000Y-122450000D02*
X149750000Y-122450000D01*
X149750000Y-122200000D01*
X151300000Y-122200000D01*
X151300000Y-122450000D01*
X149750000Y-118950000D02*
X151300000Y-118950000D01*
X151300000Y-118950000D02*
X151300000Y-119200000D01*
X151300000Y-119200000D02*
X149750000Y-119200000D01*
X149750000Y-119200000D02*
X149750000Y-118950000D01*
G36*
X151300000Y-119200000D02*
G01*
X149750000Y-119200000D01*
X149750000Y-118950000D01*
X151300000Y-118950000D01*
X151300000Y-119200000D01*
G37*
X151300000Y-119200000D02*
X149750000Y-119200000D01*
X149750000Y-118950000D01*
X151300000Y-118950000D01*
X151300000Y-119200000D01*
X144150000Y-124800000D02*
X145700000Y-124800000D01*
X145700000Y-124800000D02*
X145700000Y-125050000D01*
X145700000Y-125050000D02*
X144150000Y-125050000D01*
X144150000Y-125050000D02*
X144150000Y-124800000D01*
G36*
X145700000Y-125050000D02*
G01*
X144150000Y-125050000D01*
X144150000Y-124800000D01*
X145700000Y-124800000D01*
X145700000Y-125050000D01*
G37*
X145700000Y-125050000D02*
X144150000Y-125050000D01*
X144150000Y-124800000D01*
X145700000Y-124800000D01*
X145700000Y-125050000D01*
X149750000Y-118300000D02*
X151300000Y-118300000D01*
X151300000Y-118300000D02*
X151300000Y-118550000D01*
X151300000Y-118550000D02*
X149750000Y-118550000D01*
X149750000Y-118550000D02*
X149750000Y-118300000D01*
G36*
X151300000Y-118550000D02*
G01*
X149750000Y-118550000D01*
X149750000Y-118300000D01*
X151300000Y-118300000D01*
X151300000Y-118550000D01*
G37*
X151300000Y-118550000D02*
X149750000Y-118550000D01*
X149750000Y-118300000D01*
X151300000Y-118300000D01*
X151300000Y-118550000D01*
X144150000Y-120250000D02*
X145700000Y-120250000D01*
X145700000Y-120250000D02*
X145700000Y-120500000D01*
X145700000Y-120500000D02*
X144150000Y-120500000D01*
X144150000Y-120500000D02*
X144150000Y-120250000D01*
G36*
X145700000Y-120500000D02*
G01*
X144150000Y-120500000D01*
X144150000Y-120250000D01*
X145700000Y-120250000D01*
X145700000Y-120500000D01*
G37*
X145700000Y-120500000D02*
X144150000Y-120500000D01*
X144150000Y-120250000D01*
X145700000Y-120250000D01*
X145700000Y-120500000D01*
X144150000Y-122200000D02*
X145700000Y-122200000D01*
X145700000Y-122200000D02*
X145700000Y-122450000D01*
X145700000Y-122450000D02*
X144150000Y-122450000D01*
X144150000Y-122450000D02*
X144150000Y-122200000D01*
G36*
X145700000Y-122450000D02*
G01*
X144150000Y-122450000D01*
X144150000Y-122200000D01*
X145700000Y-122200000D01*
X145700000Y-122450000D01*
G37*
X145700000Y-122450000D02*
X144150000Y-122450000D01*
X144150000Y-122200000D01*
X145700000Y-122200000D01*
X145700000Y-122450000D01*
X144150000Y-124150000D02*
X145700000Y-124150000D01*
X145700000Y-124150000D02*
X145700000Y-124400000D01*
X145700000Y-124400000D02*
X144150000Y-124400000D01*
X144150000Y-124400000D02*
X144150000Y-124150000D01*
G36*
X145700000Y-124400000D02*
G01*
X144150000Y-124400000D01*
X144150000Y-124150000D01*
X145700000Y-124150000D01*
X145700000Y-124400000D01*
G37*
X145700000Y-124400000D02*
X144150000Y-124400000D01*
X144150000Y-124150000D01*
X145700000Y-124150000D01*
X145700000Y-124400000D01*
X149750000Y-121550000D02*
X151300000Y-121550000D01*
X151300000Y-121550000D02*
X151300000Y-121800000D01*
X151300000Y-121800000D02*
X149750000Y-121800000D01*
X149750000Y-121800000D02*
X149750000Y-121550000D01*
G36*
X151300000Y-121800000D02*
G01*
X149750000Y-121800000D01*
X149750000Y-121550000D01*
X151300000Y-121550000D01*
X151300000Y-121800000D01*
G37*
X151300000Y-121800000D02*
X149750000Y-121800000D01*
X149750000Y-121550000D01*
X151300000Y-121550000D01*
X151300000Y-121800000D01*
X144150000Y-125450000D02*
X145700000Y-125450000D01*
X145700000Y-125450000D02*
X145700000Y-125700000D01*
X145700000Y-125700000D02*
X144150000Y-125700000D01*
X144150000Y-125700000D02*
X144150000Y-125450000D01*
G36*
X145700000Y-125700000D02*
G01*
X144150000Y-125700000D01*
X144150000Y-125450000D01*
X145700000Y-125450000D01*
X145700000Y-125700000D01*
G37*
X145700000Y-125700000D02*
X144150000Y-125700000D01*
X144150000Y-125450000D01*
X145700000Y-125450000D01*
X145700000Y-125700000D01*
X149750000Y-124150000D02*
X151300000Y-124150000D01*
X151300000Y-124150000D02*
X151300000Y-124400000D01*
X151300000Y-124400000D02*
X149750000Y-124400000D01*
X149750000Y-124400000D02*
X149750000Y-124150000D01*
G36*
X151300000Y-124400000D02*
G01*
X149750000Y-124400000D01*
X149750000Y-124150000D01*
X151300000Y-124150000D01*
X151300000Y-124400000D01*
G37*
X151300000Y-124400000D02*
X149750000Y-124400000D01*
X149750000Y-124150000D01*
X151300000Y-124150000D01*
X151300000Y-124400000D01*
X144150000Y-121550000D02*
X145700000Y-121550000D01*
X145700000Y-121550000D02*
X145700000Y-121800000D01*
X145700000Y-121800000D02*
X144150000Y-121800000D01*
X144150000Y-121800000D02*
X144150000Y-121550000D01*
G36*
X145700000Y-121800000D02*
G01*
X144150000Y-121800000D01*
X144150000Y-121550000D01*
X145700000Y-121550000D01*
X145700000Y-121800000D01*
G37*
X145700000Y-121800000D02*
X144150000Y-121800000D01*
X144150000Y-121550000D01*
X145700000Y-121550000D01*
X145700000Y-121800000D01*
X149750000Y-125450000D02*
X151300000Y-125450000D01*
X151300000Y-125450000D02*
X151300000Y-125700000D01*
X151300000Y-125700000D02*
X149750000Y-125700000D01*
X149750000Y-125700000D02*
X149750000Y-125450000D01*
G36*
X151300000Y-125700000D02*
G01*
X149750000Y-125700000D01*
X149750000Y-125450000D01*
X151300000Y-125450000D01*
X151300000Y-125700000D01*
G37*
X151300000Y-125700000D02*
X149750000Y-125700000D01*
X149750000Y-125450000D01*
X151300000Y-125450000D01*
X151300000Y-125700000D01*
X144150000Y-118950000D02*
X145700000Y-118950000D01*
X145700000Y-118950000D02*
X145700000Y-119200000D01*
X145700000Y-119200000D02*
X144150000Y-119200000D01*
X144150000Y-119200000D02*
X144150000Y-118950000D01*
G36*
X145700000Y-119200000D02*
G01*
X144150000Y-119200000D01*
X144150000Y-118950000D01*
X145700000Y-118950000D01*
X145700000Y-119200000D01*
G37*
X145700000Y-119200000D02*
X144150000Y-119200000D01*
X144150000Y-118950000D01*
X145700000Y-118950000D01*
X145700000Y-119200000D01*
X144150000Y-117650000D02*
X145700000Y-117650000D01*
X145700000Y-117650000D02*
X145700000Y-117900000D01*
X145700000Y-117900000D02*
X144150000Y-117900000D01*
X144150000Y-117900000D02*
X144150000Y-117650000D01*
G36*
X145700000Y-117900000D02*
G01*
X144150000Y-117900000D01*
X144150000Y-117650000D01*
X145700000Y-117650000D01*
X145700000Y-117900000D01*
G37*
X145700000Y-117900000D02*
X144150000Y-117900000D01*
X144150000Y-117650000D01*
X145700000Y-117650000D01*
X145700000Y-117900000D01*
X149750000Y-123500000D02*
X151300000Y-123500000D01*
X151300000Y-123500000D02*
X151300000Y-123750000D01*
X151300000Y-123750000D02*
X149750000Y-123750000D01*
X149750000Y-123750000D02*
X149750000Y-123500000D01*
G36*
X151300000Y-123750000D02*
G01*
X149750000Y-123750000D01*
X149750000Y-123500000D01*
X151300000Y-123500000D01*
X151300000Y-123750000D01*
G37*
X151300000Y-123750000D02*
X149750000Y-123750000D01*
X149750000Y-123500000D01*
X151300000Y-123500000D01*
X151300000Y-123750000D01*
X149750000Y-117650000D02*
X151300000Y-117650000D01*
X151300000Y-117650000D02*
X151300000Y-117900000D01*
X151300000Y-117900000D02*
X149750000Y-117900000D01*
X149750000Y-117900000D02*
X149750000Y-117650000D01*
G36*
X151300000Y-117900000D02*
G01*
X149750000Y-117900000D01*
X149750000Y-117650000D01*
X151300000Y-117650000D01*
X151300000Y-117900000D01*
G37*
X151300000Y-117900000D02*
X149750000Y-117900000D01*
X149750000Y-117650000D01*
X151300000Y-117650000D01*
X151300000Y-117900000D01*
X144150000Y-119600000D02*
X145700000Y-119600000D01*
X145700000Y-119600000D02*
X145700000Y-119850000D01*
X145700000Y-119850000D02*
X144150000Y-119850000D01*
X144150000Y-119850000D02*
X144150000Y-119600000D01*
G36*
X145700000Y-119850000D02*
G01*
X144150000Y-119850000D01*
X144150000Y-119600000D01*
X145700000Y-119600000D01*
X145700000Y-119850000D01*
G37*
X145700000Y-119850000D02*
X144150000Y-119850000D01*
X144150000Y-119600000D01*
X145700000Y-119600000D01*
X145700000Y-119850000D01*
X149750000Y-119600000D02*
X151300000Y-119600000D01*
X151300000Y-119600000D02*
X151300000Y-119850000D01*
X151300000Y-119850000D02*
X149750000Y-119850000D01*
X149750000Y-119850000D02*
X149750000Y-119600000D01*
G36*
X151300000Y-119850000D02*
G01*
X149750000Y-119850000D01*
X149750000Y-119600000D01*
X151300000Y-119600000D01*
X151300000Y-119850000D01*
G37*
X151300000Y-119850000D02*
X149750000Y-119850000D01*
X149750000Y-119600000D01*
X151300000Y-119600000D01*
X151300000Y-119850000D01*
X144150000Y-120900000D02*
X145700000Y-120900000D01*
X145700000Y-120900000D02*
X145700000Y-121150000D01*
X145700000Y-121150000D02*
X144150000Y-121150000D01*
X144150000Y-121150000D02*
X144150000Y-120900000D01*
G36*
X145700000Y-121150000D02*
G01*
X144150000Y-121150000D01*
X144150000Y-120900000D01*
X145700000Y-120900000D01*
X145700000Y-121150000D01*
G37*
X145700000Y-121150000D02*
X144150000Y-121150000D01*
X144150000Y-120900000D01*
X145700000Y-120900000D01*
X145700000Y-121150000D01*
X146525000Y-118770000D02*
X148925000Y-118770000D01*
X148925000Y-118770000D02*
X148925000Y-125230000D01*
X148925000Y-125230000D02*
X146525000Y-125230000D01*
X146525000Y-125230000D02*
X146525000Y-118770000D01*
G36*
X148925000Y-125230000D02*
G01*
X146525000Y-125230000D01*
X146525000Y-118770000D01*
X148925000Y-118770000D01*
X148925000Y-125230000D01*
G37*
X148925000Y-125230000D02*
X146525000Y-125230000D01*
X146525000Y-118770000D01*
X148925000Y-118770000D01*
X148925000Y-125230000D01*
X144150000Y-123500000D02*
X145700000Y-123500000D01*
X145700000Y-123500000D02*
X145700000Y-123750000D01*
X145700000Y-123750000D02*
X144150000Y-123750000D01*
X144150000Y-123750000D02*
X144150000Y-123500000D01*
G36*
X145700000Y-123750000D02*
G01*
X144150000Y-123750000D01*
X144150000Y-123500000D01*
X145700000Y-123500000D01*
X145700000Y-123750000D01*
G37*
X145700000Y-123750000D02*
X144150000Y-123750000D01*
X144150000Y-123500000D01*
X145700000Y-123500000D01*
X145700000Y-123750000D01*
X149750000Y-122850000D02*
X151300000Y-122850000D01*
X151300000Y-122850000D02*
X151300000Y-123100000D01*
X151300000Y-123100000D02*
X149750000Y-123100000D01*
X149750000Y-123100000D02*
X149750000Y-122850000D01*
G36*
X151300000Y-123100000D02*
G01*
X149750000Y-123100000D01*
X149750000Y-122850000D01*
X151300000Y-122850000D01*
X151300000Y-123100000D01*
G37*
X151300000Y-123100000D02*
X149750000Y-123100000D01*
X149750000Y-122850000D01*
X151300000Y-122850000D01*
X151300000Y-123100000D01*
X149750000Y-120900000D02*
X151300000Y-120900000D01*
X151300000Y-120900000D02*
X151300000Y-121150000D01*
X151300000Y-121150000D02*
X149750000Y-121150000D01*
X149750000Y-121150000D02*
X149750000Y-120900000D01*
G36*
X151300000Y-121150000D02*
G01*
X149750000Y-121150000D01*
X149750000Y-120900000D01*
X151300000Y-120900000D01*
X151300000Y-121150000D01*
G37*
X151300000Y-121150000D02*
X149750000Y-121150000D01*
X149750000Y-120900000D01*
X151300000Y-120900000D01*
X151300000Y-121150000D01*
%TO.C,ANT1*%
G36*
X165975000Y-134050000D02*
G01*
X165975000Y-138950000D01*
X167375000Y-138950000D01*
X167375000Y-134050000D01*
X167875000Y-134050000D01*
X167875000Y-138950000D01*
X169575000Y-138950000D01*
X169575000Y-136310000D01*
X172575000Y-136310000D01*
X172575000Y-138950000D01*
X174275000Y-138950000D01*
X174275000Y-136310000D01*
X177275000Y-136310000D01*
X177275000Y-138950000D01*
X178975000Y-138950000D01*
X178975000Y-135010000D01*
X179475000Y-135010000D01*
X179475000Y-139450000D01*
X176775000Y-139450000D01*
X176775000Y-136810000D01*
X174775000Y-136810000D01*
X174775000Y-139450000D01*
X172075000Y-139450000D01*
X172075000Y-136810000D01*
X170075000Y-136810000D01*
X170075000Y-139450000D01*
X165075000Y-139450000D01*
X165075000Y-134293215D01*
X165377417Y-134293215D01*
X165382153Y-134341622D01*
X165401815Y-134386416D01*
X165436755Y-134423186D01*
X165469647Y-134440092D01*
X165517733Y-134447982D01*
X165567318Y-134441408D01*
X165612628Y-134421313D01*
X165647888Y-134388643D01*
X165664782Y-134356417D01*
X165673222Y-134308158D01*
X165666691Y-134258632D01*
X165646132Y-134213447D01*
X165612489Y-134178213D01*
X165593878Y-134167600D01*
X165548363Y-134154700D01*
X165499844Y-134153957D01*
X165457181Y-134166065D01*
X165449269Y-134170419D01*
X165411326Y-134203203D01*
X165387258Y-134245605D01*
X165377417Y-134293215D01*
X165075000Y-134293215D01*
X165075000Y-134050000D01*
X165975000Y-134050000D01*
G37*
%TO.C,U5*%
X144077500Y-105250000D02*
X145627500Y-105250000D01*
X145627500Y-105250000D02*
X145627500Y-105500000D01*
X145627500Y-105500000D02*
X144077500Y-105500000D01*
X144077500Y-105500000D02*
X144077500Y-105250000D01*
G36*
X145627500Y-105500000D02*
G01*
X144077500Y-105500000D01*
X144077500Y-105250000D01*
X145627500Y-105250000D01*
X145627500Y-105500000D01*
G37*
X145627500Y-105500000D02*
X144077500Y-105500000D01*
X144077500Y-105250000D01*
X145627500Y-105250000D01*
X145627500Y-105500000D01*
X144077500Y-105900000D02*
X145627500Y-105900000D01*
X145627500Y-105900000D02*
X145627500Y-106150000D01*
X145627500Y-106150000D02*
X144077500Y-106150000D01*
X144077500Y-106150000D02*
X144077500Y-105900000D01*
G36*
X145627500Y-106150000D02*
G01*
X144077500Y-106150000D01*
X144077500Y-105900000D01*
X145627500Y-105900000D01*
X145627500Y-106150000D01*
G37*
X145627500Y-106150000D02*
X144077500Y-106150000D01*
X144077500Y-105900000D01*
X145627500Y-105900000D01*
X145627500Y-106150000D01*
X149677500Y-102650000D02*
X151227500Y-102650000D01*
X151227500Y-102650000D02*
X151227500Y-102900000D01*
X151227500Y-102900000D02*
X149677500Y-102900000D01*
X149677500Y-102900000D02*
X149677500Y-102650000D01*
G36*
X151227500Y-102900000D02*
G01*
X149677500Y-102900000D01*
X149677500Y-102650000D01*
X151227500Y-102650000D01*
X151227500Y-102900000D01*
G37*
X151227500Y-102900000D02*
X149677500Y-102900000D01*
X149677500Y-102650000D01*
X151227500Y-102650000D01*
X151227500Y-102900000D01*
X144077500Y-101350000D02*
X145627500Y-101350000D01*
X145627500Y-101350000D02*
X145627500Y-101600000D01*
X145627500Y-101600000D02*
X144077500Y-101600000D01*
X144077500Y-101600000D02*
X144077500Y-101350000D01*
G36*
X145627500Y-101600000D02*
G01*
X144077500Y-101600000D01*
X144077500Y-101350000D01*
X145627500Y-101350000D01*
X145627500Y-101600000D01*
G37*
X145627500Y-101600000D02*
X144077500Y-101600000D01*
X144077500Y-101350000D01*
X145627500Y-101350000D01*
X145627500Y-101600000D01*
X144077500Y-98750000D02*
X145627500Y-98750000D01*
X145627500Y-98750000D02*
X145627500Y-99000000D01*
X145627500Y-99000000D02*
X144077500Y-99000000D01*
X144077500Y-99000000D02*
X144077500Y-98750000D01*
G36*
X145627500Y-99000000D02*
G01*
X144077500Y-99000000D01*
X144077500Y-98750000D01*
X145627500Y-98750000D01*
X145627500Y-99000000D01*
G37*
X145627500Y-99000000D02*
X144077500Y-99000000D01*
X144077500Y-98750000D01*
X145627500Y-98750000D01*
X145627500Y-99000000D01*
X149677500Y-105250000D02*
X151227500Y-105250000D01*
X151227500Y-105250000D02*
X151227500Y-105500000D01*
X151227500Y-105500000D02*
X149677500Y-105500000D01*
X149677500Y-105500000D02*
X149677500Y-105250000D01*
G36*
X151227500Y-105500000D02*
G01*
X149677500Y-105500000D01*
X149677500Y-105250000D01*
X151227500Y-105250000D01*
X151227500Y-105500000D01*
G37*
X151227500Y-105500000D02*
X149677500Y-105500000D01*
X149677500Y-105250000D01*
X151227500Y-105250000D01*
X151227500Y-105500000D01*
X149677500Y-100050000D02*
X151227500Y-100050000D01*
X151227500Y-100050000D02*
X151227500Y-100300000D01*
X151227500Y-100300000D02*
X149677500Y-100300000D01*
X149677500Y-100300000D02*
X149677500Y-100050000D01*
G36*
X151227500Y-100300000D02*
G01*
X149677500Y-100300000D01*
X149677500Y-100050000D01*
X151227500Y-100050000D01*
X151227500Y-100300000D01*
G37*
X151227500Y-100300000D02*
X149677500Y-100300000D01*
X149677500Y-100050000D01*
X151227500Y-100050000D01*
X151227500Y-100300000D01*
X149677500Y-101350000D02*
X151227500Y-101350000D01*
X151227500Y-101350000D02*
X151227500Y-101600000D01*
X151227500Y-101600000D02*
X149677500Y-101600000D01*
X149677500Y-101600000D02*
X149677500Y-101350000D01*
G36*
X151227500Y-101600000D02*
G01*
X149677500Y-101600000D01*
X149677500Y-101350000D01*
X151227500Y-101350000D01*
X151227500Y-101600000D01*
G37*
X151227500Y-101600000D02*
X149677500Y-101600000D01*
X149677500Y-101350000D01*
X151227500Y-101350000D01*
X151227500Y-101600000D01*
X149677500Y-97450000D02*
X151227500Y-97450000D01*
X151227500Y-97450000D02*
X151227500Y-97700000D01*
X151227500Y-97700000D02*
X149677500Y-97700000D01*
X149677500Y-97700000D02*
X149677500Y-97450000D01*
G36*
X151227500Y-97700000D02*
G01*
X149677500Y-97700000D01*
X149677500Y-97450000D01*
X151227500Y-97450000D01*
X151227500Y-97700000D01*
G37*
X151227500Y-97700000D02*
X149677500Y-97700000D01*
X149677500Y-97450000D01*
X151227500Y-97450000D01*
X151227500Y-97700000D01*
X149677500Y-99400000D02*
X151227500Y-99400000D01*
X151227500Y-99400000D02*
X151227500Y-99650000D01*
X151227500Y-99650000D02*
X149677500Y-99650000D01*
X149677500Y-99650000D02*
X149677500Y-99400000D01*
G36*
X151227500Y-99650000D02*
G01*
X149677500Y-99650000D01*
X149677500Y-99400000D01*
X151227500Y-99400000D01*
X151227500Y-99650000D01*
G37*
X151227500Y-99650000D02*
X149677500Y-99650000D01*
X149677500Y-99400000D01*
X151227500Y-99400000D01*
X151227500Y-99650000D01*
X149677500Y-104600000D02*
X151227500Y-104600000D01*
X151227500Y-104600000D02*
X151227500Y-104850000D01*
X151227500Y-104850000D02*
X149677500Y-104850000D01*
X149677500Y-104850000D02*
X149677500Y-104600000D01*
G36*
X151227500Y-104850000D02*
G01*
X149677500Y-104850000D01*
X149677500Y-104600000D01*
X151227500Y-104600000D01*
X151227500Y-104850000D01*
G37*
X151227500Y-104850000D02*
X149677500Y-104850000D01*
X149677500Y-104600000D01*
X151227500Y-104600000D01*
X151227500Y-104850000D01*
X144077500Y-100700000D02*
X145627500Y-100700000D01*
X145627500Y-100700000D02*
X145627500Y-100950000D01*
X145627500Y-100950000D02*
X144077500Y-100950000D01*
X144077500Y-100950000D02*
X144077500Y-100700000D01*
G36*
X145627500Y-100950000D02*
G01*
X144077500Y-100950000D01*
X144077500Y-100700000D01*
X145627500Y-100700000D01*
X145627500Y-100950000D01*
G37*
X145627500Y-100950000D02*
X144077500Y-100950000D01*
X144077500Y-100700000D01*
X145627500Y-100700000D01*
X145627500Y-100950000D01*
X144077500Y-99400000D02*
X145627500Y-99400000D01*
X145627500Y-99400000D02*
X145627500Y-99650000D01*
X145627500Y-99650000D02*
X144077500Y-99650000D01*
X144077500Y-99650000D02*
X144077500Y-99400000D01*
G36*
X145627500Y-99650000D02*
G01*
X144077500Y-99650000D01*
X144077500Y-99400000D01*
X145627500Y-99400000D01*
X145627500Y-99650000D01*
G37*
X145627500Y-99650000D02*
X144077500Y-99650000D01*
X144077500Y-99400000D01*
X145627500Y-99400000D01*
X145627500Y-99650000D01*
X144077500Y-103950000D02*
X145627500Y-103950000D01*
X145627500Y-103950000D02*
X145627500Y-104200000D01*
X145627500Y-104200000D02*
X144077500Y-104200000D01*
X144077500Y-104200000D02*
X144077500Y-103950000D01*
G36*
X145627500Y-104200000D02*
G01*
X144077500Y-104200000D01*
X144077500Y-103950000D01*
X145627500Y-103950000D01*
X145627500Y-104200000D01*
G37*
X145627500Y-104200000D02*
X144077500Y-104200000D01*
X144077500Y-103950000D01*
X145627500Y-103950000D01*
X145627500Y-104200000D01*
X149677500Y-103950000D02*
X151227500Y-103950000D01*
X151227500Y-103950000D02*
X151227500Y-104200000D01*
X151227500Y-104200000D02*
X149677500Y-104200000D01*
X149677500Y-104200000D02*
X149677500Y-103950000D01*
G36*
X151227500Y-104200000D02*
G01*
X149677500Y-104200000D01*
X149677500Y-103950000D01*
X151227500Y-103950000D01*
X151227500Y-104200000D01*
G37*
X151227500Y-104200000D02*
X149677500Y-104200000D01*
X149677500Y-103950000D01*
X151227500Y-103950000D01*
X151227500Y-104200000D01*
X149677500Y-102000000D02*
X151227500Y-102000000D01*
X151227500Y-102000000D02*
X151227500Y-102250000D01*
X151227500Y-102250000D02*
X149677500Y-102250000D01*
X149677500Y-102250000D02*
X149677500Y-102000000D01*
G36*
X151227500Y-102250000D02*
G01*
X149677500Y-102250000D01*
X149677500Y-102000000D01*
X151227500Y-102000000D01*
X151227500Y-102250000D01*
G37*
X151227500Y-102250000D02*
X149677500Y-102250000D01*
X149677500Y-102000000D01*
X151227500Y-102000000D01*
X151227500Y-102250000D01*
X149677500Y-98100000D02*
X151227500Y-98100000D01*
X151227500Y-98100000D02*
X151227500Y-98350000D01*
X151227500Y-98350000D02*
X149677500Y-98350000D01*
X149677500Y-98350000D02*
X149677500Y-98100000D01*
G36*
X151227500Y-98350000D02*
G01*
X149677500Y-98350000D01*
X149677500Y-98100000D01*
X151227500Y-98100000D01*
X151227500Y-98350000D01*
G37*
X151227500Y-98350000D02*
X149677500Y-98350000D01*
X149677500Y-98100000D01*
X151227500Y-98100000D01*
X151227500Y-98350000D01*
X146452500Y-98570000D02*
X148852500Y-98570000D01*
X148852500Y-98570000D02*
X148852500Y-105030000D01*
X148852500Y-105030000D02*
X146452500Y-105030000D01*
X146452500Y-105030000D02*
X146452500Y-98570000D01*
G36*
X148852500Y-105030000D02*
G01*
X146452500Y-105030000D01*
X146452500Y-98570000D01*
X148852500Y-98570000D01*
X148852500Y-105030000D01*
G37*
X148852500Y-105030000D02*
X146452500Y-105030000D01*
X146452500Y-98570000D01*
X148852500Y-98570000D01*
X148852500Y-105030000D01*
X144077500Y-102000000D02*
X145627500Y-102000000D01*
X145627500Y-102000000D02*
X145627500Y-102250000D01*
X145627500Y-102250000D02*
X144077500Y-102250000D01*
X144077500Y-102250000D02*
X144077500Y-102000000D01*
G36*
X145627500Y-102250000D02*
G01*
X144077500Y-102250000D01*
X144077500Y-102000000D01*
X145627500Y-102000000D01*
X145627500Y-102250000D01*
G37*
X145627500Y-102250000D02*
X144077500Y-102250000D01*
X144077500Y-102000000D01*
X145627500Y-102000000D01*
X145627500Y-102250000D01*
X144077500Y-102650000D02*
X145627500Y-102650000D01*
X145627500Y-102650000D02*
X145627500Y-102900000D01*
X145627500Y-102900000D02*
X144077500Y-102900000D01*
X144077500Y-102900000D02*
X144077500Y-102650000D01*
G36*
X145627500Y-102900000D02*
G01*
X144077500Y-102900000D01*
X144077500Y-102650000D01*
X145627500Y-102650000D01*
X145627500Y-102900000D01*
G37*
X145627500Y-102900000D02*
X144077500Y-102900000D01*
X144077500Y-102650000D01*
X145627500Y-102650000D01*
X145627500Y-102900000D01*
X144077500Y-98100000D02*
X145627500Y-98100000D01*
X145627500Y-98100000D02*
X145627500Y-98350000D01*
X145627500Y-98350000D02*
X144077500Y-98350000D01*
X144077500Y-98350000D02*
X144077500Y-98100000D01*
G36*
X145627500Y-98350000D02*
G01*
X144077500Y-98350000D01*
X144077500Y-98100000D01*
X145627500Y-98100000D01*
X145627500Y-98350000D01*
G37*
X145627500Y-98350000D02*
X144077500Y-98350000D01*
X144077500Y-98100000D01*
X145627500Y-98100000D01*
X145627500Y-98350000D01*
X149677500Y-103300000D02*
X151227500Y-103300000D01*
X151227500Y-103300000D02*
X151227500Y-103550000D01*
X151227500Y-103550000D02*
X149677500Y-103550000D01*
X149677500Y-103550000D02*
X149677500Y-103300000D01*
G36*
X151227500Y-103550000D02*
G01*
X149677500Y-103550000D01*
X149677500Y-103300000D01*
X151227500Y-103300000D01*
X151227500Y-103550000D01*
G37*
X151227500Y-103550000D02*
X149677500Y-103550000D01*
X149677500Y-103300000D01*
X151227500Y-103300000D01*
X151227500Y-103550000D01*
X149677500Y-100700000D02*
X151227500Y-100700000D01*
X151227500Y-100700000D02*
X151227500Y-100950000D01*
X151227500Y-100950000D02*
X149677500Y-100950000D01*
X149677500Y-100950000D02*
X149677500Y-100700000D01*
G36*
X151227500Y-100950000D02*
G01*
X149677500Y-100950000D01*
X149677500Y-100700000D01*
X151227500Y-100700000D01*
X151227500Y-100950000D01*
G37*
X151227500Y-100950000D02*
X149677500Y-100950000D01*
X149677500Y-100700000D01*
X151227500Y-100700000D01*
X151227500Y-100950000D01*
X149677500Y-105900000D02*
X151227500Y-105900000D01*
X151227500Y-105900000D02*
X151227500Y-106150000D01*
X151227500Y-106150000D02*
X149677500Y-106150000D01*
X149677500Y-106150000D02*
X149677500Y-105900000D01*
G36*
X151227500Y-106150000D02*
G01*
X149677500Y-106150000D01*
X149677500Y-105900000D01*
X151227500Y-105900000D01*
X151227500Y-106150000D01*
G37*
X151227500Y-106150000D02*
X149677500Y-106150000D01*
X149677500Y-105900000D01*
X151227500Y-105900000D01*
X151227500Y-106150000D01*
X144077500Y-97450000D02*
X145627500Y-97450000D01*
X145627500Y-97450000D02*
X145627500Y-97700000D01*
X145627500Y-97700000D02*
X144077500Y-97700000D01*
X144077500Y-97700000D02*
X144077500Y-97450000D01*
G36*
X145627500Y-97700000D02*
G01*
X144077500Y-97700000D01*
X144077500Y-97450000D01*
X145627500Y-97450000D01*
X145627500Y-97700000D01*
G37*
X145627500Y-97700000D02*
X144077500Y-97700000D01*
X144077500Y-97450000D01*
X145627500Y-97450000D01*
X145627500Y-97700000D01*
X144077500Y-104600000D02*
X145627500Y-104600000D01*
X145627500Y-104600000D02*
X145627500Y-104850000D01*
X145627500Y-104850000D02*
X144077500Y-104850000D01*
X144077500Y-104850000D02*
X144077500Y-104600000D01*
G36*
X145627500Y-104850000D02*
G01*
X144077500Y-104850000D01*
X144077500Y-104600000D01*
X145627500Y-104600000D01*
X145627500Y-104850000D01*
G37*
X145627500Y-104850000D02*
X144077500Y-104850000D01*
X144077500Y-104600000D01*
X145627500Y-104600000D01*
X145627500Y-104850000D01*
X144077500Y-100050000D02*
X145627500Y-100050000D01*
X145627500Y-100050000D02*
X145627500Y-100300000D01*
X145627500Y-100300000D02*
X144077500Y-100300000D01*
X144077500Y-100300000D02*
X144077500Y-100050000D01*
G36*
X145627500Y-100300000D02*
G01*
X144077500Y-100300000D01*
X144077500Y-100050000D01*
X145627500Y-100050000D01*
X145627500Y-100300000D01*
G37*
X145627500Y-100300000D02*
X144077500Y-100300000D01*
X144077500Y-100050000D01*
X145627500Y-100050000D01*
X145627500Y-100300000D01*
X149677500Y-98750000D02*
X151227500Y-98750000D01*
X151227500Y-98750000D02*
X151227500Y-99000000D01*
X151227500Y-99000000D02*
X149677500Y-99000000D01*
X149677500Y-99000000D02*
X149677500Y-98750000D01*
G36*
X151227500Y-99000000D02*
G01*
X149677500Y-99000000D01*
X149677500Y-98750000D01*
X151227500Y-98750000D01*
X151227500Y-99000000D01*
G37*
X151227500Y-99000000D02*
X149677500Y-99000000D01*
X149677500Y-98750000D01*
X151227500Y-98750000D01*
X151227500Y-99000000D01*
X144077500Y-103300000D02*
X145627500Y-103300000D01*
X145627500Y-103300000D02*
X145627500Y-103550000D01*
X145627500Y-103550000D02*
X144077500Y-103550000D01*
X144077500Y-103550000D02*
X144077500Y-103300000D01*
G36*
X145627500Y-103550000D02*
G01*
X144077500Y-103550000D01*
X144077500Y-103300000D01*
X145627500Y-103300000D01*
X145627500Y-103550000D01*
G37*
X145627500Y-103550000D02*
X144077500Y-103550000D01*
X144077500Y-103300000D01*
X145627500Y-103300000D01*
X145627500Y-103550000D01*
%TD*%
D11*
%TO.C,R7*%
X164600000Y-100250000D03*
X164600000Y-101900000D03*
%TD*%
D12*
%TO.C,R14*%
X139575000Y-95800000D03*
X141225000Y-95800000D03*
%TD*%
D13*
%TO.C,C14*%
X170900000Y-120425000D03*
X170900000Y-118875000D03*
%TD*%
D14*
%TO.C,SW1*%
X161800000Y-135000000D03*
X155500000Y-135000000D03*
X161800000Y-138800000D03*
X155500000Y-138800000D03*
%TD*%
D15*
%TO.C,C5*%
X184890000Y-71430000D03*
X184890000Y-64030000D03*
%TD*%
D16*
%TO.C,U8*%
X150050000Y-83500000D03*
X150050000Y-81200000D03*
D17*
X143750000Y-81200000D03*
D16*
X150050000Y-78900000D03*
%TD*%
D18*
%TO.C,C27*%
X139625000Y-117500000D03*
X141175000Y-117500000D03*
%TD*%
D19*
%TO.C,D3*%
X191850000Y-135400000D03*
X191850000Y-133825000D03*
%TD*%
D14*
%TO.C,SW4*%
X144800000Y-138800000D03*
X138500000Y-138800000D03*
X138500000Y-135000000D03*
X144800000Y-135000000D03*
%TD*%
D18*
%TO.C,C13*%
X177175000Y-124675000D03*
X178725000Y-124675000D03*
%TD*%
D20*
%TO.C,U2*%
X171250000Y-98050000D03*
X170750000Y-98050000D03*
X170250000Y-98050000D03*
X169750000Y-98050000D03*
X169250000Y-98050000D03*
X168750000Y-98050000D03*
D21*
X168050000Y-98750000D03*
X168050000Y-99250000D03*
X168050000Y-99750000D03*
X168050000Y-100250000D03*
X168050000Y-100750000D03*
X168050000Y-101250000D03*
D20*
X168750000Y-101950000D03*
X169250000Y-101950000D03*
X169750000Y-101950000D03*
X170250000Y-101950000D03*
X170750000Y-101950000D03*
X171250000Y-101950000D03*
D21*
X171950000Y-101250000D03*
X171950000Y-100750000D03*
X171950000Y-100250000D03*
X171950000Y-99750000D03*
X171950000Y-99250000D03*
X171950000Y-98750000D03*
%TD*%
D22*
%TO.C,C1*%
X180300000Y-96100000D03*
X180300000Y-94200000D03*
%TD*%
D19*
%TO.C,D5*%
X194825000Y-135400000D03*
X194825000Y-133825000D03*
%TD*%
D23*
%TO.C,C39*%
X142900000Y-86000000D03*
X145600000Y-86000000D03*
%TD*%
D11*
%TO.C,R4*%
X187400000Y-109175000D03*
X187400000Y-110825000D03*
%TD*%
D24*
%TO.C,C10*%
X168075000Y-103800000D03*
X166525000Y-103800000D03*
%TD*%
D25*
%TO.C,U4*%
X202325000Y-118112500D03*
X200825000Y-118112500D03*
X199325000Y-118112500D03*
X197825000Y-118112500D03*
X196325000Y-118112500D03*
X194825000Y-118112500D03*
X193325000Y-118112500D03*
X191825000Y-118112500D03*
X190325000Y-118112500D03*
X188825000Y-118112500D03*
X187325000Y-118112500D03*
X185825000Y-118112500D03*
X184325000Y-118112500D03*
D26*
X182825000Y-119212500D03*
X182825000Y-120712500D03*
X182825000Y-122212500D03*
X182825000Y-123712500D03*
X182825000Y-125212500D03*
X182825000Y-126712500D03*
X182825000Y-128212500D03*
X182825000Y-129712500D03*
D25*
X184325000Y-130812500D03*
X185825000Y-130812500D03*
X187325000Y-130812500D03*
X188825000Y-130812500D03*
X190325000Y-130812500D03*
X191825000Y-130812500D03*
X193325000Y-130812500D03*
X194825000Y-130812500D03*
X196325000Y-130812500D03*
X197825000Y-130812500D03*
X199325000Y-130812500D03*
X200825000Y-130812500D03*
X202325000Y-130812500D03*
%TD*%
D19*
%TO.C,D2*%
X188875000Y-135400000D03*
X188875000Y-133825000D03*
%TD*%
D27*
%TO.C,L3*%
X169212500Y-129675000D03*
X170787500Y-129675000D03*
%TD*%
D13*
%TO.C,C12*%
X174100000Y-102250000D03*
X174100000Y-100700000D03*
%TD*%
%TO.C,C2*%
X182100000Y-96150000D03*
X182100000Y-94600000D03*
%TD*%
D18*
%TO.C,C40*%
X155660000Y-62250000D03*
X157210000Y-62250000D03*
%TD*%
D28*
%TO.C,R9*%
X178775000Y-126275000D03*
X177125000Y-126275000D03*
%TD*%
D29*
%TO.C,D4*%
X166200000Y-75400000D03*
X166200000Y-71400000D03*
%TD*%
D18*
%TO.C,C18*%
X177175000Y-123075000D03*
X178725000Y-123075000D03*
%TD*%
D30*
%TO.C,U7*%
X176775000Y-67550000D03*
X176775000Y-62700000D03*
X171225000Y-67550000D03*
X171225000Y-62700000D03*
D31*
X170600000Y-74275000D03*
X172300000Y-74275000D03*
X174000000Y-74275000D03*
X175700000Y-74275000D03*
X177400000Y-74275000D03*
%TD*%
D32*
%TO.C,C15*%
X177175000Y-127875000D03*
X177175000Y-129425000D03*
%TD*%
D18*
%TO.C,C26*%
X154150000Y-117500000D03*
X155700000Y-117500000D03*
%TD*%
%TO.C,C22*%
X166125000Y-131175000D03*
X167675000Y-131175000D03*
%TD*%
D32*
%TO.C,C31*%
X140700000Y-125200000D03*
X140700000Y-126750000D03*
%TD*%
%TO.C,C35*%
X193700000Y-99025000D03*
X193700000Y-100575000D03*
%TD*%
D11*
%TO.C,R19*%
X191850000Y-136900000D03*
X191850000Y-138550000D03*
%TD*%
D28*
%TO.C,R1*%
X195250000Y-102100000D03*
X193600000Y-102100000D03*
%TD*%
D13*
%TO.C,C36*%
X182090000Y-76070000D03*
X182090000Y-74520000D03*
%TD*%
D24*
%TO.C,C21*%
X170775000Y-131175000D03*
X169225000Y-131175000D03*
%TD*%
D32*
%TO.C,C28*%
X140700000Y-104450000D03*
X140700000Y-106000000D03*
%TD*%
D33*
%TO.C,L2*%
X173975000Y-131175000D03*
X172400000Y-131175000D03*
%TD*%
D34*
%TO.C,C30*%
X143470000Y-91900000D03*
X150870000Y-91900000D03*
%TD*%
D12*
%TO.C,R16*%
X139575000Y-116000000D03*
X141225000Y-116000000D03*
%TD*%
D28*
%TO.C,R22*%
X167170000Y-67690000D03*
X165520000Y-67690000D03*
%TD*%
D34*
%TO.C,C33*%
X143500000Y-112100000D03*
X150900000Y-112100000D03*
%TD*%
D35*
%TO.C,Q2*%
X191062500Y-77950000D03*
X191062500Y-79850000D03*
X192937500Y-78900000D03*
%TD*%
D18*
%TO.C,C24*%
X153970000Y-97300000D03*
X155520000Y-97300000D03*
%TD*%
D19*
%TO.C,D6*%
X185900000Y-135400000D03*
X185900000Y-133825000D03*
%TD*%
D32*
%TO.C,C3*%
X190500000Y-105650000D03*
X190500000Y-107200000D03*
%TD*%
D36*
%TO.C,RV2*%
X157975000Y-125900000D03*
D37*
X154725000Y-124900000D03*
D36*
X157975000Y-123900000D03*
%TD*%
D18*
%TO.C,C4*%
X192250000Y-105700000D03*
X193800000Y-105700000D03*
%TD*%
D38*
%TO.C,R8*%
X164025000Y-123725000D03*
X164025000Y-122075000D03*
%TD*%
D11*
%TO.C,R18*%
X188875000Y-136900000D03*
X188875000Y-138550000D03*
%TD*%
D18*
%TO.C,C42*%
X165600000Y-64550000D03*
X167150000Y-64550000D03*
%TD*%
%TO.C,C25*%
X139625000Y-97300000D03*
X141175000Y-97300000D03*
%TD*%
%TO.C,C19*%
X166125000Y-128075000D03*
X167675000Y-128075000D03*
%TD*%
D28*
%TO.C,R3*%
X170500000Y-86750000D03*
X168850000Y-86750000D03*
%TD*%
D18*
%TO.C,C23*%
X184250000Y-116300000D03*
X185800000Y-116300000D03*
%TD*%
D39*
%TO.C,R17*%
X138700000Y-130625000D03*
X138700000Y-128800000D03*
%TD*%
D40*
%TO.C,J4*%
X184470000Y-83500000D03*
X183200000Y-83500000D03*
X181930000Y-83500000D03*
X180660000Y-83500000D03*
%TD*%
D28*
%TO.C,R6*%
X175700000Y-97400000D03*
X174050000Y-97400000D03*
%TD*%
D41*
%TO.C,L5*%
X158000000Y-75350000D03*
X158000000Y-65650000D03*
%TD*%
D13*
%TO.C,C37*%
X180480000Y-76060000D03*
X180480000Y-74510000D03*
%TD*%
D42*
%TO.C,Y1*%
X198600000Y-104500000D03*
X198600000Y-102300000D03*
X196900000Y-102300000D03*
X196900000Y-104500000D03*
%TD*%
%TO.C,Y2*%
X167725000Y-124075000D03*
X167725000Y-121875000D03*
X166025000Y-121875000D03*
X166025000Y-124075000D03*
%TD*%
D43*
%TO.C,Q1*%
X170987500Y-85100000D03*
X170987500Y-83200000D03*
X169112500Y-84150000D03*
%TD*%
D32*
%TO.C,C8*%
X196800000Y-109150000D03*
X196800000Y-110700000D03*
%TD*%
D44*
%TO.C,U3*%
X173500000Y-125200000D03*
X172250000Y-123950000D03*
X172250000Y-125200000D03*
X173500000Y-123950000D03*
D45*
X173875000Y-122637500D03*
X173375000Y-122637500D03*
X172875000Y-122637500D03*
X172375000Y-122637500D03*
X171875000Y-122637500D03*
D46*
X170937500Y-123575000D03*
X170937500Y-124075000D03*
X170937500Y-124575000D03*
X170937500Y-125075000D03*
X170937500Y-125575000D03*
D45*
X171875000Y-126512500D03*
X172375000Y-126512500D03*
X172875000Y-126512500D03*
X173375000Y-126512500D03*
X173875000Y-126512500D03*
D46*
X174812500Y-125575000D03*
X174812500Y-125075000D03*
X174812500Y-124575000D03*
X174812500Y-124075000D03*
X174812500Y-123575000D03*
%TD*%
D36*
%TO.C,RV1*%
X157970000Y-106400000D03*
D37*
X154720000Y-105400000D03*
D36*
X157970000Y-104400000D03*
%TD*%
D13*
%TO.C,C11*%
X166200000Y-101850000D03*
X166200000Y-100300000D03*
%TD*%
D39*
%TO.C,R12*%
X140700000Y-109312500D03*
X140700000Y-107487500D03*
%TD*%
D18*
%TO.C,C7*%
X196950000Y-100500000D03*
X198500000Y-100500000D03*
%TD*%
D24*
%TO.C,C17*%
X167675000Y-125875000D03*
X166125000Y-125875000D03*
%TD*%
%TO.C,C29*%
X141175000Y-98800000D03*
X139625000Y-98800000D03*
%TD*%
%TO.C,C32*%
X141175000Y-119000000D03*
X139625000Y-119000000D03*
%TD*%
D47*
%TO.C,U1*%
X190462500Y-103650000D03*
X190462500Y-103150000D03*
X190462500Y-102650000D03*
X190462500Y-102150000D03*
X190462500Y-101650000D03*
X190462500Y-101150000D03*
X190462500Y-100650000D03*
X190462500Y-100150000D03*
X190462500Y-99650000D03*
X190462500Y-99150000D03*
X190462500Y-98650000D03*
X190462500Y-98150000D03*
D48*
X189050000Y-96737500D03*
X188550000Y-96737500D03*
X188050000Y-96737500D03*
X187550000Y-96737500D03*
X187050000Y-96737500D03*
X186550000Y-96737500D03*
X186050000Y-96737500D03*
X185550000Y-96737500D03*
X185050000Y-96737500D03*
X184550000Y-96737500D03*
X184050000Y-96737500D03*
X183550000Y-96737500D03*
D47*
X182137500Y-98150000D03*
X182137500Y-98650000D03*
X182137500Y-99150000D03*
X182137500Y-99650000D03*
X182137500Y-100150000D03*
X182137500Y-100650000D03*
X182137500Y-101150000D03*
X182137500Y-101650000D03*
X182137500Y-102150000D03*
X182137500Y-102650000D03*
X182137500Y-103150000D03*
X182137500Y-103650000D03*
D48*
X183550000Y-105062500D03*
X184050000Y-105062500D03*
X184550000Y-105062500D03*
X185050000Y-105062500D03*
X185550000Y-105062500D03*
X186050000Y-105062500D03*
X186550000Y-105062500D03*
X187050000Y-105062500D03*
X187550000Y-105062500D03*
X188050000Y-105062500D03*
X188550000Y-105062500D03*
X189050000Y-105062500D03*
%TD*%
D38*
%TO.C,R2*%
X198400000Y-110750000D03*
X198400000Y-109100000D03*
%TD*%
D32*
%TO.C,C9*%
X166200000Y-97050000D03*
X166200000Y-98600000D03*
%TD*%
D11*
%TO.C,R24*%
X185900000Y-136900000D03*
X185900000Y-138550000D03*
%TD*%
%TO.C,R11*%
X197800000Y-136900000D03*
X197800000Y-138550000D03*
%TD*%
D49*
%TO.C,C38*%
X145500000Y-76400000D03*
X142800000Y-76400000D03*
%TD*%
D12*
%TO.C,R10*%
X200575000Y-132800000D03*
X202225000Y-132800000D03*
%TD*%
D24*
%TO.C,C6*%
X198350000Y-106300000D03*
X196800000Y-106300000D03*
%TD*%
D18*
%TO.C,C16*%
X166175000Y-120075000D03*
X167725000Y-120075000D03*
%TD*%
D33*
%TO.C,L4*%
X195287500Y-95900000D03*
X193712500Y-95900000D03*
%TD*%
D18*
%TO.C,C34*%
X193712500Y-97500000D03*
X195262500Y-97500000D03*
%TD*%
D19*
%TO.C,D1*%
X197800000Y-135400000D03*
X197800000Y-133825000D03*
%TD*%
D39*
%TO.C,R15*%
X140700000Y-130625000D03*
X140700000Y-128800000D03*
%TD*%
D12*
%TO.C,R5*%
X174050000Y-99000000D03*
X175700000Y-99000000D03*
%TD*%
D50*
%TO.C,SW2*%
X138240000Y-76095000D03*
X135700000Y-76095000D03*
X133160000Y-76095000D03*
X133160000Y-84705000D03*
X135700000Y-84705000D03*
X138240000Y-84705000D03*
%TD*%
D33*
%TO.C,L1*%
X173975000Y-129675000D03*
X172400000Y-129675000D03*
%TD*%
D39*
%TO.C,R13*%
X138700000Y-109312500D03*
X138700000Y-107487500D03*
%TD*%
D12*
%TO.C,R21*%
X165540000Y-66120000D03*
X167190000Y-66120000D03*
%TD*%
D11*
%TO.C,R20*%
X189000000Y-109175000D03*
X189000000Y-110825000D03*
%TD*%
D15*
%TO.C,C41*%
X147050000Y-71470000D03*
X147050000Y-64070000D03*
%TD*%
D11*
%TO.C,R23*%
X194825000Y-136900000D03*
X194825000Y-138550000D03*
%TD*%
D18*
%TO.C,C20*%
X166125000Y-129675000D03*
X167675000Y-129675000D03*
%TD*%
D14*
%TO.C,SW5*%
X147000000Y-135000000D03*
X153300000Y-135000000D03*
X147000000Y-138800000D03*
X153300000Y-138800000D03*
%TD*%
M02*
